<svg width="773" height="710" viewBox="0 0 773 710" fill="none" xmlns="http://www.w3.org/2000/svg">
<g clip-path="url(#clip0_3_2)">
<rect width="773" height="710" fill="#1D1D1D"/>
<path d="M697.011 620.999L697.011 655.287L607.374 655.287M697.011 620.999L770.652 620.999L770.652 470.13L726.721 470.13L697.011 470.13M697.011 620.999L697.011 606.013M607.374 655.287L607.374 663.795L513.673 663.795M607.374 655.287L607.374 606.013M697.011 606.013L697.011 576.043M697.011 606.013L677.459 606.013M513.673 663.795L513.673 572.741M513.673 663.795L419.21 663.795M607.374 606.013L633.021 606.013M607.374 606.013L607.374 572.741M176.705 663.795L176.705 706.084L92.6541 706.084M176.705 663.795L229.777 663.795M176.705 663.795L176.705 627.094L182.292 627.094M92.6541 706.084L2.00006 706.084L2.00005 600.68L43.645 600.68M92.6541 706.084L92.654 600.68M229.777 663.795L324.748 663.795M229.777 663.795L229.777 627.094M182.292 627.094L182.292 600.68M182.292 627.094L229.777 627.094M43.645 600.68L59.897 600.68M43.645 600.68L43.645 480.544M59.897 600.68L59.897 575.027L140.393 575.027L140.393 567.549M59.897 600.68L68.1401 600.68M43.645 480.544L43.645 363.456M43.645 480.544L92.019 480.544L106.366 480.544L140.393 480.544M43.645 363.456L2.00003 363.456L2.00003 302.245M43.645 363.456L112.461 363.456M2.00003 302.245L2.00002 241.288L90.115 241.288M2.00003 302.245L140.393 302.245M112.461 363.456L140.393 363.456M112.461 363.456L112.461 422L140.393 422M90.115 241.288L90.115 211.063M90.115 241.288L140.393 241.288M90.115 211.063L90.115 180.585M90.115 211.063L117.032 211.063L130.49 211.063L140.393 211.063L140.393 241.288M140.393 241.288L140.393 302.245M90.115 180.585L2.00002 180.585L2.00001 92.9591M90.115 180.585L90.115 116.787M2.00001 92.9591L2 6.71977e-05L90.115 5.94944e-05M2.00001 92.9591L90.115 92.959M229.777 306.817L229.777 363.456M229.777 306.817L180.261 306.817L180.261 288.148L180.261 269.48L180.261 257.543M229.777 306.817L229.777 257.543M229.777 363.456L229.777 432.032M229.777 363.456L180.261 363.456L180.261 439.441M180.261 257.543L180.261 238.748L180.261 226.303M180.261 257.543L229.777 257.543M229.777 257.543L229.777 226.303M229.777 432.032L324.655 432.032M229.777 432.032L229.777 480.544M324.655 432.032L324.655 516.864M324.655 432.032L419.21 431.651M229.777 480.544L229.777 516.864M229.777 480.544L180.261 480.544M620.578 516.864L620.578 432.032L513.673 432.032M620.578 516.864L532.464 516.864M620.578 516.864L638.968 516.864M513.673 432.032L513.673 516.864M513.673 432.032L419.21 431.651M697.011 470.13L697.011 565.375M697.011 470.13L681.014 470.13L681.014 483.832M633.021 606.013L666.54 606.013M633.021 606.013L633.021 544.802L618.039 544.802L607.374 544.802L607.374 572.741M607.374 572.741L532.464 572.741M681.014 483.832L681.014 516.864L638.968 516.864M681.014 483.832L638.968 483.832L638.968 516.864M419.21 431.651L419.21 516.864M419.21 663.795L324.748 663.795M419.21 663.795L419.21 572.741M229.777 572.741L229.777 627.094M229.777 572.741L305.195 572.741M229.777 572.741L182.292 572.741L182.292 600.68M324.748 663.795L324.748 572.741M419.21 572.741L493.612 572.741M419.21 572.741L343.539 572.741M229.777 516.864L305.195 516.864M229.777 516.864L180.261 516.864L180.261 480.544M419.21 516.864L343.539 516.864M419.21 516.864L424.5 516.864L493.104 516.864M182.292 600.68L172.389 600.68M92.654 600.68L154.241 600.68M92.654 600.68L86.016 600.68M140.393 480.544L140.393 549.971M140.393 480.544L140.393 463.871L129.215 463.871L129.215 457.316M140.393 363.456L140.393 422M140.393 363.456L140.393 344.402L131.003 344.402L131.003 339.338M140.393 422L140.393 430.503L129.215 430.503L129.215 439.441M140.393 302.245L140.393 316.993L131.003 316.993L131.003 322.058M180.261 180.585L229.777 180.585M180.261 180.585L134.045 180.585L134.045 116.787M180.261 180.585L180.261 226.303M229.777 180.585L229.777 86.102M229.777 180.585L229.777 226.303M229.777 86.102L229.777 4.72848e-05L134.045 5.56539e-05M229.777 86.102L214.033 86.102L214.033 92.959L134.045 92.959M229.777 226.303L180.261 226.303M134.045 5.56539e-05L90.115 5.94944e-05M134.045 5.56539e-05L134.045 71.204M90.115 5.94944e-05L90.115 71.204M134.045 92.959L134.045 99.209M134.045 92.959L134.045 87.5901M90.115 92.959L90.115 87.5901M90.115 92.959L90.115 99.209M180.261 480.544L180.261 457.316" stroke="white" stroke-width="2.91599"/>
<path d="M678.659 594.066C672.105 593.768 665.252 600.62 665.252 606.578" stroke="white" stroke-width="1.7496" stroke-linecap="square" stroke-dasharray="2.92 2.92"/>
<path d="M678.659 594.066L678.659 606.578" stroke="white" stroke-width="1.7496" stroke-linecap="square" stroke-linejoin="bevel"/>
<path d="M684.617 564.571C684.319 571.125 691.172 577.977 697.13 577.977" stroke="white" stroke-width="1.7496" stroke-linecap="square" stroke-dasharray="2.92 2.92"/>
<path d="M684.617 564.571L697.13 564.571" stroke="white" stroke-width="1.7496" stroke-linecap="square" stroke-linejoin="bevel"/>
<path d="M512.513 555.347C502.844 554.908 492.736 565.016 492.737 573.805" stroke="white" stroke-width="1.7496" stroke-linecap="square" stroke-dasharray="2.92 2.92"/>
<path d="M512.513 555.347L512.513 573.805" stroke="white" stroke-width="1.7496" stroke-linecap="square" stroke-linejoin="bevel"/>
<path d="M323.643 555.347C313.975 554.908 303.867 565.016 303.867 573.805" stroke="white" stroke-width="1.7496" stroke-linecap="square" stroke-dasharray="2.92 2.92"/>
<path d="M323.643 555.347L323.643 573.805" stroke="white" stroke-width="1.7496" stroke-linecap="square" stroke-linejoin="bevel"/>
<path d="M173.376 581.568C163.708 581.129 153.6 591.236 153.6 600.026" stroke="white" stroke-width="1.7496" stroke-linecap="square" stroke-dasharray="2.92 2.92"/>
<path d="M173.376 581.568L173.376 600.026" stroke="white" stroke-width="1.7496" stroke-linecap="square" stroke-linejoin="bevel"/>
<path d="M86.9724 621.461C77.3034 621.9 67.1955 611.792 67.1955 603.003" stroke="white" stroke-width="1.7496" stroke-linecap="square" stroke-dasharray="2.92 2.92"/>
<path d="M86.9724 621.461L86.9724 603.003" stroke="white" stroke-width="1.7496" stroke-linecap="square" stroke-linejoin="bevel"/>
<path d="M157.865 549.858C158.304 559.526 148.196 569.634 139.407 569.634" stroke="white" stroke-width="1.7496" stroke-linecap="square" stroke-dasharray="2.92 2.92"/>
<path d="M157.865 549.858L139.407 549.858" stroke="white" stroke-width="1.7496" stroke-linecap="square" stroke-linejoin="bevel"/>
<path d="M148.925 438.433C149.365 448.101 139.257 458.209 130.468 458.209" stroke="white" stroke-width="1.7496" stroke-linecap="square" stroke-dasharray="2.92 2.92"/>
<path d="M148.925 438.433L130.468 438.433" stroke="white" stroke-width="1.7496" stroke-linecap="square" stroke-linejoin="bevel"/>
<path d="M198.98 458.206C199.419 448.538 189.312 438.43 180.522 438.43" stroke="white" stroke-width="1.7496" stroke-linecap="square" stroke-dasharray="2.92 2.92"/>
<path d="M198.98 458.206L180.522 458.206" stroke="white" stroke-width="1.7496" stroke-linecap="square" stroke-linejoin="bevel"/>
<path d="M149.515 340.233C149.955 330.564 139.847 320.457 131.057 320.457" stroke="white" stroke-width="1.7496" stroke-linecap="square" stroke-dasharray="2.92 2.92"/>
<path d="M149.515 340.233L131.057 340.233" stroke="white" stroke-width="1.7496" stroke-linecap="square" stroke-linejoin="bevel"/>
<path d="M109.001 98.2021C109.441 107.871 99.3334 117.978 90.5444 117.978" stroke="white" stroke-width="1.7496" stroke-linecap="square" stroke-dasharray="2.92 2.92"/>
<path d="M109.001 98.2021L90.5444 98.2021" stroke="white" stroke-width="1.7496" stroke-linecap="square" stroke-linejoin="bevel"/>
<path d="M116.19 98.2021C115.75 107.871 125.858 117.978 134.647 117.978" stroke="white" stroke-width="1.7496" stroke-linecap="square" stroke-dasharray="2.92 2.92"/>
<path d="M116.19 98.2021L134.647 98.2021" stroke="white" stroke-width="1.7496" stroke-linecap="square" stroke-linejoin="bevel"/>
<path d="M107.816 88.781C108.255 79.112 98.1483 69.005 89.3583 69.005" stroke="white" stroke-width="1.7496" stroke-linecap="square" stroke-dasharray="2.92 2.92"/>
<path d="M107.816 88.781L89.3584 88.781" stroke="white" stroke-width="1.7496" stroke-linecap="square" stroke-linejoin="bevel"/>
<path d="M114.994 88.784C114.555 79.116 124.663 69.0091 133.452 69.0091" stroke="white" stroke-width="1.7496" stroke-linecap="square" stroke-dasharray="2.92 2.92"/>
<path d="M114.994 88.784L133.452 88.784" stroke="white" stroke-width="1.7496" stroke-linecap="square" stroke-linejoin="bevel"/>
<path d="M512.52 534.466C502.852 534.905 492.744 524.797 492.744 516.008" stroke="white" stroke-width="1.7496" stroke-linecap="square" stroke-dasharray="2.92 2.92"/>
<path d="M512.52 534.466L512.52 516.008" stroke="white" stroke-width="1.7496" stroke-linecap="square" stroke-linejoin="bevel"/>
<path d="M323.643 534.466C313.975 534.905 303.867 524.797 303.867 516.008" stroke="white" stroke-width="1.7496" stroke-linecap="square" stroke-dasharray="2.92 2.92"/>
<path d="M323.643 534.466L323.643 516.008" stroke="white" stroke-width="1.7496" stroke-linecap="square" stroke-linejoin="bevel"/>
<path d="M515.284 555.347C524.952 554.908 535.06 565.016 535.06 573.805" stroke="white" stroke-width="1.7496" stroke-linecap="square" stroke-dasharray="2.92 2.92"/>
<path d="M515.284 555.347L515.284 573.805" stroke="white" stroke-width="1.7496" stroke-linecap="square" stroke-linejoin="bevel"/>
<path d="M326.386 555.347C336.054 554.908 346.162 565.016 346.162 573.805" stroke="white" stroke-width="1.7496" stroke-linecap="square" stroke-dasharray="2.92 2.92"/>
<path d="M326.386 555.347L326.386 573.805" stroke="white" stroke-width="1.7496" stroke-linecap="square" stroke-linejoin="bevel"/>
<path d="M515.288 534.466C524.956 534.905 535.064 524.797 535.064 516.008" stroke="white" stroke-width="1.7496" stroke-linecap="square" stroke-dasharray="2.92 2.92"/>
<path d="M515.288 534.466L515.288 516.008" stroke="white" stroke-width="1.7496" stroke-linecap="square" stroke-linejoin="bevel"/>
<path d="M326.393 534.466C336.062 534.905 346.169 524.797 346.169 516.008" stroke="white" stroke-width="1.7496" stroke-linecap="square" stroke-dasharray="2.92 2.92"/>
<path d="M326.393 535.466L326.393 517.008" stroke="white" stroke-width="1.7496" stroke-linecap="square" stroke-linejoin="bevel"/>
<path d="M176 563.5H599V528H174V186.5H125.5V7.5H98.5V205H148.5V594.5H176V563.5Z" stroke="#FF0000" stroke-width="3"/>
</g>
<defs>
<clipPath id="clip0_3_2">
<rect width="773" height="710" fill="white"/>
</clipPath>
</defs>
</svg>
