<svg width="773" height="710" viewBox="0 0 773 710" fill="none" xmlns="http://www.w3.org/2000/svg">
<rect x="632.775" y="285.415" width="28.0051" height="58.3934" fill="#85B126"/>
<rect x="632.318" y="344.245" width="138.6" height="61.1998" fill="#02007C"/>
<rect x="259.719" y="191.245" width="187.2" height="84.5997" fill="#63FE6A"/>
<rect x="450.518" y="191.245" width="91.8" height="86.3997" fill="#1D1D1D"/>
<rect x="140.879" y="101.672" width="24" height="61" fill="#1D1D1D"/>
<rect x="152.879" y="191.672" width="105" height="85" fill="#1D1D1D"/>
<path d="M47.2559 239.141L152.722 239.141L152.722 299.62L92.8387 299.62L92.8387 282.042L47.2559 282.042L47.2559 239.141Z" fill="#1D1D1D"/>
<rect x="542.209" y="190.688" width="50.6475" height="154.921" fill="#1D1D1D"/>
<rect x="543" y="451" width="50" height="31" fill="#1D1D1D"/>
<rect x="543" y="403" width="50" height="48" fill="#FFBE17"/>
<rect x="544.119" y="526.045" width="226.8" height="181.799" fill="#1D1D1D"/>
<path d="M632.17 406.345L769.216 406.345L769.216 467.757L681.626 467.757L681.626 499.04L632.17 499.04L632.17 406.345Z" fill="#1D1D1D"/>
<rect x="164.879" y="45.6719" width="379" height="90" fill="#1D1D1D"/>
<rect x="2.95117" y="88.793" width="73.29" height="148.963" fill="#008080"/>
<rect x="75.6582" y="54.2344" width="89.378" height="48.264" fill="#FB6B31"/>
<path d="M595.235 -1.12502e-07L679.846 -1.99195e-06L679.846 107.253L590.17 107.253L590.17 79.2483L595.235 79.2483L595.235 -1.12502e-07Z" fill="#CC2624"/>
<rect x="681.633" y="1.78809" width="89.378" height="105.466" fill="#9FEA18"/>
<rect x="543.992" y="480.258" width="49.4558" height="46.4764" fill="#A431FF"/>
<path d="M633.967 227.021L728.707 227.021L728.708 343.807L659.886 343.807L659.886 285.414L633.967 285.414L633.967 227.021Z" fill="#ED57EC"/>
<path d="M631.576 132.875L713.208 132.875L713.208 106.955L728.7 106.955L728.7 228.807L631.576 228.807L631.576 132.875Z" fill="#2AB9FF"/>
<rect x="90.5332" y="189.48" width="42.3056" height="33.9635" fill="#F4C690"/>
<path d="M543.391 45.2832L595.826 45.2832L595.826 79.9352L590.153 79.9352L590.568 135.257L543.391 135.257L543.391 45.2832Z" fill="#E61366"/>
<path d="M632.684 496.817L682.736 496.817L682.736 707.749L638.643 707.749L638.643 527.504L592.464 527.504L592.464 402.077L543.455 402.077L543.455 344.875L592.464 344.875L592.464 192.337L152.128 191.145L152.128 249.672L135.88 249.672L135.88 247.672L113.38 247.672L113.38 243.58L91.9474 243.58L91.9474 224.513L132.763 224.513L132.763 190.847L91.9474 190.847L91.9474 237.324L75.8594 237.324L75.8594 189.954L75.8594 101.768L139.913 101.768L139.913 163.587L167.024 163.587L167.024 134.547L590.919 134.547L590.919 106.534L712.528 106.534L712.528 133.05L632.684 133.05L632.684 244.474L644.602 244.474L644.602 277.544L632.684 277.544L632.684 363.644L643.37 363.644L643.376 391.046L632.352 391.046L632.684 496.817Z" fill="#A69677"/>
<path d="M75.9136 87.3474L75.9136 53.0591L165.551 53.0591M75.9136 87.3474L2.27344 87.3474L2.27345 238.216L46.2036 238.216M75.9136 87.3474L75.9136 102.333M165.551 53.0591L165.551 44.5506L259.252 44.5506M165.551 53.0591L165.551 102.333M596.22 44.5506L596.22 2.26172L680.271 2.26172M596.22 44.5506L543.148 44.5506M596.22 44.5506L596.22 81.2517L590.633 81.2517M729.28 107.666L770.925 107.666L770.925 2.26172L680.271 2.26172M729.28 107.666L713.028 107.666M729.28 107.666L729.28 227.802M729.28 344.89L770.925 344.89L770.925 406.101M729.28 344.89L729.28 227.802M729.28 344.89L660.464 344.89M682.81 467.058L770.925 467.058L770.925 406.101M682.81 467.058L682.81 497.283M682.81 467.058L632.532 467.058M682.81 527.761L770.925 527.761L770.925 615.387M682.81 527.761L682.81 497.283M682.81 527.761L682.81 591.559M543.148 401.529L543.148 344.89M543.148 401.529L592.664 401.529L592.664 420.198L592.664 438.866L592.664 450.803M543.148 401.529L543.148 450.803M543.148 344.89L543.148 276.314M543.148 344.89L592.664 344.89L592.664 268.905M543.148 276.314L448.27 276.314M543.148 276.314L543.148 227.802M152.347 276.314L152.347 300.443L91.9113 300.443L91.9113 280.886M152.347 276.314L152.347 191.482L240.461 191.482M152.347 276.314L259.252 276.314M91.9113 280.886L46.2036 280.886L46.2036 238.216M91.9113 280.886L91.9113 238.216M46.2036 238.216L75.9136 238.216M75.9136 238.216L75.9136 142.971M75.9136 238.216L91.9113 238.216M75.9136 132.303L75.9136 102.333M165.551 102.333L139.904 102.333M165.551 102.333L165.551 135.605M106.385 102.333L139.904 102.333M95.4663 102.333L75.9136 102.333M91.9113 238.216L91.9113 224.514M91.9113 224.514L91.9113 191.482L109.433 191.482M91.9113 224.514L133.957 224.514L133.957 191.482L122.338 191.482M139.904 102.333L139.904 163.544L154.886 163.544L165.551 163.544L165.551 135.605M259.252 191.482L259.252 276.314M259.252 276.314L353.715 276.695M165.551 135.605L240.461 135.605M259.252 135.605L259.252 44.5506M259.252 44.5506L353.715 44.5506M543.148 135.605L543.148 81.2517M543.148 135.605L467.73 135.605M543.148 135.605L569.824 135.605M543.148 44.5506L448.177 44.5506M543.148 44.5506L543.148 81.2517M448.177 44.5506L448.177 135.605M448.177 44.5506L353.715 44.5506M353.715 135.605L353.715 44.5506M353.715 135.605L279.313 135.605M353.715 135.605L429.386 135.605M543.148 191.482L543.148 227.802M543.148 191.482L467.73 191.482M543.148 191.482L569.824 191.482M448.27 191.482L448.27 276.314M448.27 276.314L353.715 276.695M353.715 276.695L353.715 191.482M353.715 191.482L279.821 191.482M353.715 191.482L429.386 191.482M590.633 81.2517L590.633 107.666M590.633 81.2517L586.806 81.2517M590.633 107.666L590.633 135.605L586.806 135.605M590.633 107.666L600.536 107.666M680.271 107.666L680.271 2.26172M680.271 107.666L618.684 107.666M680.271 107.666L686.909 107.666M632.532 227.802L632.532 158.375M632.532 227.802L666.559 227.802L680.906 227.802L729.28 227.802M632.532 227.802L632.532 244.475L643.71 244.475L643.71 251.03M713.028 107.666L713.028 133.319L632.532 133.319L632.532 140.797M713.028 107.666L704.785 107.666M543.148 81.2517L569.824 81.2517M632.532 344.89L632.532 286.346M632.532 344.89L660.464 344.89M632.532 344.89L632.532 363.944L641.922 363.944L641.922 369.008M632.532 286.346L660.464 286.346L660.464 290.952M632.532 286.346L632.532 277.843L643.71 277.843L643.71 268.905M660.464 344.89L660.464 303.763M632.532 406.101L770.925 406.101M632.532 406.101L632.532 467.058M632.532 406.101L632.532 391.353L641.922 391.353L641.922 386.288M682.81 497.283L655.893 497.283L642.435 497.283L632.532 497.283L632.532 467.058M592.664 527.761L543.148 527.761M592.664 527.761L638.88 527.761L638.88 591.559M592.664 527.761L592.664 523.036M543.148 527.761L543.148 622.244M543.148 527.761L543.148 482.043M638.88 708.346L543.148 708.346L543.148 622.244M638.88 708.346L682.81 708.346M638.88 708.346L638.88 637.142M682.81 708.346L770.925 708.346L770.925 615.387M682.81 708.346L682.81 637.142M543.148 622.244L558.892 622.244L558.892 615.387L638.88 615.387M638.88 615.387L638.88 609.137M638.88 615.387L638.88 620.756M682.81 615.387L770.925 615.387M682.81 615.387L682.81 620.756M682.81 615.387L682.81 609.137M592.664 482.043L543.148 482.043M592.664 482.043L592.664 510.821M592.664 482.043L592.664 469.598L592.664 450.803M543.148 482.043L543.148 450.803M592.664 450.803L543.148 450.803M592.664 227.802L543.148 227.802M592.664 227.802L592.664 191.482L586.806 191.482M592.664 227.802L592.664 251.03" stroke="white" stroke-width="2.91599"/>
<path d="M94.625 114.28C101.179 114.578 108.032 107.726 108.032 101.768" stroke="white" stroke-width="1.7496" stroke-linecap="square" stroke-dasharray="2.92 2.92"/>
<path d="M94.625 114.28L94.625 101.768" stroke="white" stroke-width="1.7496" stroke-linecap="square" stroke-linejoin="bevel"/>
<path d="M88.6672 143.775C88.9651 137.221 82.1128 130.369 76.1543 130.369" stroke="white" stroke-width="1.7496" stroke-linecap="square" stroke-dasharray="2.92 2.92"/>
<path d="M88.6672 143.775L76.1543 143.775" stroke="white" stroke-width="1.7496" stroke-linecap="square" stroke-linejoin="bevel"/>
<path d="M122.934 204.851C116.379 205.149 109.527 198.296 109.527 192.338" stroke="white" stroke-width="1.7496" stroke-linecap="square" stroke-dasharray="2.92 2.92"/>
<path d="M122.934 204.851L122.934 192.338" stroke="white" stroke-width="1.7496" stroke-linecap="square" stroke-linejoin="bevel"/>
<path d="M260.771 152.999C270.44 153.438 280.548 143.33 280.547 134.541" stroke="white" stroke-width="1.7496" stroke-linecap="square" stroke-dasharray="2.92 2.92"/>
<path d="M260.771 152.999L260.771 134.541" stroke="white" stroke-width="1.7496" stroke-linecap="square" stroke-linejoin="bevel"/>
<path d="M449.641 152.999C459.309 153.438 469.417 143.33 469.417 134.541" stroke="white" stroke-width="1.7496" stroke-linecap="square" stroke-dasharray="2.92 2.92"/>
<path d="M449.641 152.999L449.641 134.541" stroke="white" stroke-width="1.7496" stroke-linecap="square" stroke-linejoin="bevel"/>
<path d="M588.113 174.478C578.445 174.039 568.337 184.146 568.337 192.936" stroke="white" stroke-width="1.7496" stroke-linecap="square" stroke-dasharray="2.92 2.92"/>
<path d="M588.113 174.478L588.113 192.936" stroke="white" stroke-width="1.7496" stroke-linecap="square" stroke-linejoin="bevel"/>
<path d="M588.117 152.998C578.449 153.437 568.341 143.329 568.341 134.54" stroke="white" stroke-width="1.7496" stroke-linecap="square" stroke-dasharray="2.92 2.92"/>
<path d="M588.117 152.998L588.117 134.54" stroke="white" stroke-width="1.7496" stroke-linecap="square" stroke-linejoin="bevel"/>
<path d="M588.012 62.4585C578.399 62.019 568.349 72.1267 568.349 80.916" stroke="white" stroke-width="1.7496" stroke-linecap="square" stroke-dasharray="2.92 2.92"/>
<path d="M588.012 62.4585L588.012 80.916" stroke="white" stroke-width="1.7496" stroke-linecap="square" stroke-linejoin="bevel"/>
<path d="M599.908 126.778C609.576 127.217 619.684 117.11 619.684 108.32" stroke="white" stroke-width="1.7496" stroke-linecap="square" stroke-dasharray="2.92 2.92"/>
<path d="M599.908 126.778L599.908 108.32" stroke="white" stroke-width="1.7496" stroke-linecap="square" stroke-linejoin="bevel"/>
<path d="M686.312 86.8852C695.981 86.4457 706.089 96.5535 706.089 105.343" stroke="white" stroke-width="1.7496" stroke-linecap="square" stroke-dasharray="2.92 2.92"/>
<path d="M686.312 86.8852L686.312 105.343" stroke="white" stroke-width="1.7496" stroke-linecap="square" stroke-linejoin="bevel"/>
<path d="M615.419 158.488C614.98 148.82 625.088 138.712 633.877 138.712" stroke="white" stroke-width="1.7496" stroke-linecap="square" stroke-dasharray="2.92 2.92"/>
<path d="M615.419 158.488L633.877 158.488" stroke="white" stroke-width="1.7496" stroke-linecap="square" stroke-linejoin="bevel"/>
<path d="M624.359 269.913C623.919 260.245 634.027 250.137 642.816 250.137" stroke="white" stroke-width="1.7496" stroke-linecap="square" stroke-dasharray="2.92 2.92"/>
<path d="M624.359 269.913L642.816 269.913" stroke="white" stroke-width="1.7496" stroke-linecap="square" stroke-linejoin="bevel"/>
<path d="M646.993 290.058C646.667 297.231 654.166 304.73 660.688 304.73" stroke="white" stroke-width="1.7496" stroke-linecap="square" stroke-dasharray="2.92 2.92"/>
<path d="M646.993 290.058L660.688 290.058" stroke="white" stroke-width="1.7496" stroke-linecap="square" stroke-linejoin="bevel"/>
<path d="M574.304 250.14C573.865 259.808 583.972 269.916 592.762 269.916" stroke="white" stroke-width="1.7496" stroke-linecap="square" stroke-dasharray="2.92 2.92"/>
<path d="M574.304 250.14L592.762 250.14" stroke="white" stroke-width="1.7496" stroke-linecap="square" stroke-linejoin="bevel"/>
<path d="M623.769 368.113C623.329 377.782 633.437 387.889 642.227 387.889" stroke="white" stroke-width="1.7496" stroke-linecap="square" stroke-dasharray="2.92 2.92"/>
<path d="M623.769 368.113L642.227 368.113" stroke="white" stroke-width="1.7496" stroke-linecap="square" stroke-linejoin="bevel"/>
<path d="M664.283 610.144C663.843 600.475 673.951 590.368 682.74 590.368" stroke="white" stroke-width="1.7496" stroke-linecap="square" stroke-dasharray="2.92 2.92"/>
<path d="M664.283 610.144L682.74 610.144" stroke="white" stroke-width="1.7496" stroke-linecap="square" stroke-linejoin="bevel"/>
<path d="M657.094 610.144C657.534 600.475 647.426 590.368 638.637 590.368" stroke="white" stroke-width="1.7496" stroke-linecap="square" stroke-dasharray="2.92 2.92"/>
<path d="M657.094 610.144L638.637 610.144" stroke="white" stroke-width="1.7496" stroke-linecap="square" stroke-linejoin="bevel"/>
<path d="M665.468 619.565C665.029 629.234 675.136 639.341 683.926 639.341" stroke="white" stroke-width="1.7496" stroke-linecap="square" stroke-dasharray="2.92 2.92"/>
<path d="M665.468 619.565L683.926 619.565" stroke="white" stroke-width="1.7496" stroke-linecap="square" stroke-linejoin="bevel"/>
<path d="M658.29 619.562C658.729 629.23 648.621 639.337 639.832 639.337" stroke="white" stroke-width="1.7496" stroke-linecap="square" stroke-dasharray="2.92 2.92"/>
<path d="M658.29 619.562L639.832 619.562" stroke="white" stroke-width="1.7496" stroke-linecap="square" stroke-linejoin="bevel"/>
<path d="M608.845 523.961C609.157 517.1 601.984 509.926 595.746 509.926" stroke="white" stroke-width="1.7496" stroke-linecap="square" stroke-dasharray="2.92 2.92"/>
<path d="M608.845 523.961L595.746 523.961" stroke="white" stroke-width="1.7496" stroke-linecap="square" stroke-linejoin="bevel"/>
<path d="M260.764 173.88C270.432 173.441 280.54 183.549 280.54 192.338" stroke="white" stroke-width="1.7496" stroke-linecap="square" stroke-dasharray="2.92 2.92"/>
<path d="M260.764 173.88L260.764 192.338" stroke="white" stroke-width="1.7496" stroke-linecap="square" stroke-linejoin="bevel"/>
<path d="M449.641 173.88C459.309 173.441 469.417 183.549 469.417 192.338" stroke="white" stroke-width="1.7496" stroke-linecap="square" stroke-dasharray="2.92 2.92"/>
<path d="M449.641 173.88L449.641 192.338" stroke="white" stroke-width="1.7496" stroke-linecap="square" stroke-linejoin="bevel"/>
<path d="M258 152.999C248.332 153.438 238.224 143.33 238.224 134.541" stroke="white" stroke-width="1.7496" stroke-linecap="square" stroke-dasharray="2.92 2.92"/>
<path d="M258 152.999L258 134.541" stroke="white" stroke-width="1.7496" stroke-linecap="square" stroke-linejoin="bevel"/>
<path d="M446.898 152.999C437.23 153.438 427.122 143.33 427.122 134.541" stroke="white" stroke-width="1.7496" stroke-linecap="square" stroke-dasharray="2.92 2.92"/>
<path d="M446.898 152.999L446.898 134.541" stroke="white" stroke-width="1.7496" stroke-linecap="square" stroke-linejoin="bevel"/>
<path d="M257.996 173.88C248.328 173.441 238.22 183.549 238.22 192.338" stroke="white" stroke-width="1.7496" stroke-linecap="square" stroke-dasharray="2.92 2.92"/>
<path d="M257.996 173.88L257.996 192.338" stroke="white" stroke-width="1.7496" stroke-linecap="square" stroke-linejoin="bevel"/>
<path d="M446.891 173.88C437.222 173.441 427.115 183.549 427.115 192.338" stroke="white" stroke-width="1.7496" stroke-linecap="square" stroke-dasharray="2.92 2.92"/>
<path d="M446.891 173.88L446.891 192.338" stroke="white" stroke-width="1.7496" stroke-linecap="square" stroke-linejoin="bevel"/>
<line x1="112.724" y1="299.663" x2="112.724" y2="281.663" stroke="white" stroke-width="2.33279"/>
<line x1="117.39" y1="299.663" x2="117.39" y2="281.663" stroke="white" stroke-width="2.33279"/>
<line x1="122.056" y1="299.663" x2="122.056" y2="281.663" stroke="white" stroke-width="2.33279"/>
<line x1="126.72" y1="299.663" x2="126.72" y2="281.663" stroke="white" stroke-width="2.33279"/>
<line x1="131.386" y1="299.663" x2="131.386" y2="281.663" stroke="white" stroke-width="2.33279"/>
<line x1="92.2422" y1="276.499" x2="110.242" y2="276.499" stroke="white" stroke-width="2.33279"/>
<line x1="92.2422" y1="271.25" x2="110.242" y2="271.25" stroke="white" stroke-width="2.33279"/>
<line x1="92.2422" y1="266.001" x2="110.242" y2="266.001" stroke="white" stroke-width="2.33279"/>
<line x1="92.2422" y1="260.753" x2="110.242" y2="260.753" stroke="white" stroke-width="2.33279"/>
<line x1="92.2422" y1="255.504" x2="110.242" y2="255.504" stroke="white" stroke-width="2.33279"/>
<line x1="92.2422" y1="250.255" x2="110.242" y2="250.255" stroke="white" stroke-width="2.33279"/>
<line x1="134.816" y1="249.901" x2="151.016" y2="249.901" stroke="white" stroke-width="2.33279"/>
<line x1="134.816" y1="254.567" x2="151.016" y2="254.567" stroke="white" stroke-width="2.33279"/>
<line x1="134.816" y1="259.232" x2="151.016" y2="259.232" stroke="white" stroke-width="2.33279"/>
<line x1="134.816" y1="263.898" x2="151.016" y2="263.898" stroke="white" stroke-width="2.33279"/>
<line x1="134.816" y1="268.563" x2="151.016" y2="268.563" stroke="white" stroke-width="2.33279"/>
<line x1="134.816" y1="273.229" x2="151.016" y2="273.229" stroke="white" stroke-width="2.33279"/>
<line x1="134.816" y1="277.894" x2="151.016" y2="277.894" stroke="white" stroke-width="2.33279"/>
<path d="M92.3438 243.003C92.3438 243.003 106.235 243.003 110.397 243.003C114.56 243.003 113.906 246.603 113.906 246.603" stroke="white" stroke-width="2.33279"/>
<rect x="110.983" y="247.423" width="24.4933" height="33.431" rx="1.458" stroke="white" stroke-width="2.91599"/>
</svg>
