<svg width="1848" height="1847" viewBox="0 0 1848 1847" fill="none" xmlns="http://www.w3.org/2000/svg">
<path d="M985.382 955.806C1004.97 935.381 1004.29 902.946 983.862 883.36C963.436 863.774 931.001 864.454 911.415 884.88C891.829 905.305 892.51 937.741 912.935 957.327C933.36 976.912 965.796 976.232 985.382 955.806Z" fill="#211915" fill-opacity="0.7"/>
<path d="M1315.53 521.203L1315.17 521.506L1314.86 521.212L1314.63 521.451L1314.35 521.222L1311.88 524.284L1250.33 576.221C1169.53 503.22 1063.09 458.294 946.696 456.632L937.42 381.038L937.28 372.763L928.58 372.915L928.58 373.009L928.529 373.754L927.775 373.849L928.257 377.757L922.801 456.901C805.397 461.208 699.324 509.234 620.068 584.949L570.39 545.887L557.406 533.228L556.056 534.616L555.678 534.318L553.207 537.456L550.276 539.993L550.767 540.563L550.299 541.161L553.39 543.596L603.55 601.54C526.749 682.632 478.971 791.276 476.58 910.511L398.954 919.279L395.039 918.972L394.981 919.729L394.214 919.817L394.664 923.784L394.363 927.651L395.11 927.709L395.197 928.466L399.107 928.025L400.718 928.149L400.719 928.179L401.063 928.174L476.706 934.119C480.373 1055.23 530.535 1164.47 609.723 1244.91L566.421 1298.57L563.411 1301.1L563.688 1301.43L563.421 1301.71L563.684 1301.96L563.433 1302.27L566.448 1304.71L569.022 1307.76L569.383 1307.46L569.689 1307.75L569.918 1307.51L570.201 1307.74L572.67 1304.68L625.444 1260.15C708.209 1336.7 818.767 1383.4 939.653 1383.43L946.794 1452.27L946.451 1456.2L947.206 1456.26L947.283 1457.01L951.139 1456.61L955.116 1456.96L955.181 1456.19L955.939 1456.11L955.932 1456.05L955.968 1456.05L955.844 1448.67L961.611 1382.94C1081.36 1377.37 1189.04 1326.29 1268.11 1246.87L1314.16 1283.08L1327.15 1295.74L1328.5 1294.36L1328.87 1294.65L1331.34 1291.51L1334.27 1288.98L1333.78 1288.41L1334.25 1287.81L1331.16 1285.38L1283.64 1230.49C1358.48 1147.69 1403.81 1037.93 1403.3 918.136L1478.69 909.585L1482.61 909.516L1484.57 909.668L1484.63 908.908L1485.37 908.824L1484.94 904.975L1485.24 900.997L1484.48 900.939L1484.39 900.182L1480.49 900.626L1402.61 894.542C1396.18 776.814 1345.77 670.961 1267.76 592.82L1318.13 530.411L1321.13 527.873L1320.86 527.546L1321.12 527.27L1320.87 527.021L1321.11 526.71L1318.1 524.273L1315.53 521.203ZM1239.98 584.947L1216.81 604.501C1214.39 602.38 1211.91 600.332 1209.45 598.26C1209.58 598.323 1209.72 598.369 1209.84 598.323C1214.29 596.804 1216.42 591.257 1218.93 587.54C1221.89 583.165 1224.98 578.899 1228.06 574.613C1232.08 577.999 1236.07 581.429 1239.98 584.947ZM1229.47 881.002C1227.62 867.21 1224.79 853.739 1221.08 840.636C1231.39 836.582 1240.91 830.712 1249.15 823.013C1260.8 812.143 1273.74 795.154 1274.4 778.58C1274.51 775.761 1270.98 774.476 1269.58 777.158C1269.37 777.547 1269.21 777.953 1269.02 778.344C1268.29 778.206 1267.52 778.289 1266.83 778.7C1250.93 788.198 1236.41 793.577 1217.62 793.981C1199.27 794.379 1181.15 790.683 1162.95 788.9C1158.62 788.477 1154.19 788.178 1149.74 788.032C1144.15 779.161 1138.04 770.645 1131.41 762.581C1130 764.591 1128.54 766.471 1127.01 768.262C1132.11 774.541 1136.8 781.156 1141.26 787.948C1128.44 788.201 1115.7 790.165 1104.37 795.268L1140.69 750.264C1150.97 762.41 1160.17 775.495 1168.15 789.377C1171.06 789.293 1173.98 789.247 1176.89 789.275C1167.97 773.175 1157.44 758.101 1145.57 744.221L1154.02 733.747C1168.94 750.873 1181.85 769.803 1192.37 790.17C1195.7 790.518 1199.01 790.985 1202.28 791.586C1190.79 768.217 1176.28 746.612 1159.25 727.267L1232.84 636.086C1297.34 702.845 1339.33 791.577 1346.25 890.121L1229.47 881.002ZM1333.86 903.361L1317.32 903.647C1314.98 902.342 1312.64 901.021 1310.29 899.744C1307.62 898.298 1304.95 896.818 1302.24 895.411L1322.75 897.012C1325.26 899.452 1328.85 901.05 1331.9 902.473C1332.54 902.773 1333.2 903.069 1333.86 903.361ZM1136.13 892.679C1131.12 888.713 1125.98 884.927 1120.77 881.24L1136.83 882.495C1143.28 887.376 1150.56 891.442 1157.21 895.827C1162.23 899.136 1167.27 902.859 1172.5 906.149L1152.19 906.498C1148.64 900.86 1140.84 896.412 1136.13 892.679ZM1052.05 860.088L1094.46 807.534C1122.03 789.362 1156.53 795.161 1188.26 798.926C1208.55 801.334 1234.39 803.032 1254.47 794.158C1224.18 819.073 1178.41 806.203 1142.41 814.885C1108.79 822.992 1085.65 852.725 1052.05 860.088ZM1143.45 906.651L1127.32 906.926C1120.64 900.115 1112.94 894.164 1105.41 888.374C1101.72 885.536 1097.78 882.191 1093.67 879.118L1109.97 880.39C1117.41 885.444 1124.74 890.629 1131.82 896.176C1135.28 898.889 1139.24 903.267 1143.45 906.651ZM1077.64 886.181C1073.89 883.233 1070.09 880.03 1066.18 876.975L1082.34 878.235C1088.26 883.02 1095.43 886.885 1101.31 891.324C1107.95 896.326 1114.19 901.844 1120.67 907.045L1101.76 907.371C1095.25 899.087 1085.86 892.652 1077.64 886.181ZM1200.34 846.194C1201.55 845.995 1202.78 845.786 1203.99 845.557C1207.14 844.966 1210.22 844.173 1213.27 843.284C1216.65 855.333 1219.26 867.698 1221.04 880.343L1207.51 879.291C1205.8 868.009 1203.39 856.966 1200.34 846.194ZM1199.7 878.678L1189.23 877.859C1187.48 877.035 1185.7 876.329 1183.9 875.751C1182.26 866.771 1180.14 857.968 1177.57 849.358C1182.56 848.583 1187.62 847.986 1192.7 847.314C1195.65 857.52 1198 867.989 1199.7 878.678ZM1148.04 883.367L1163.43 884.569C1169.56 888.199 1175.63 891.914 1181.58 895.835C1186.08 898.798 1190.59 902.546 1195.3 905.757L1181 906.004C1174.51 900.66 1166.95 896.358 1160.06 891.754C1156.08 889.096 1152.1 886.164 1148.04 883.367ZM1157.23 875.358C1157.19 875.338 1157.16 875.319 1157.13 875.299C1156.37 874.89 1155.62 874.921 1154.97 875.184L1127.39 873.03C1133.82 869.433 1139.84 864.334 1144.19 861.274C1152.48 855.437 1161.39 852.48 1170.6 850.599C1173.21 859.178 1175.38 867.944 1177.02 876.906L1157.23 875.358ZM1194.2 886.977C1199.24 890.092 1204.59 892.841 1209.36 895.685C1214.72 898.869 1220.11 902.189 1225.63 905.233L1203.51 905.618C1198.12 900.071 1190.61 895.851 1184.45 891.746C1181.17 889.554 1177.81 887.501 1174.47 885.433L1194.2 886.977ZM1210.3 890.751C1208.79 889.845 1207.28 888.872 1205.76 887.877L1220.38 889.017C1225.89 892.15 1231.6 894.963 1237.28 897.739C1241.71 899.91 1246.24 902.524 1250.88 904.797L1234.51 905.079C1226.69 899.937 1218.28 895.541 1210.3 890.751ZM1231.19 889.864L1251.24 891.427C1255.54 894.26 1260.48 896.249 1265.14 898.349C1268.11 899.684 1271.08 901.03 1274.05 902.358C1275.22 902.878 1277.17 903.537 1279.17 904.308L1260.49 904.628C1254.34 900.528 1246.95 897.709 1240.51 894.486C1237.42 892.934 1234.31 891.385 1231.19 889.864ZM1262.08 892.274L1293.22 894.709C1297.96 898.052 1303.23 901.071 1308.61 903.799L1286.45 904.18C1283.06 900.822 1276.72 899.231 1272.85 897.446C1269.32 895.819 1265.73 893.954 1262.08 892.274ZM1036.18 865.903L997.951 862.919L1249.15 602.013L1036.18 865.903ZM1096.35 907.464L1078.38 907.775C1072.38 902.09 1064.54 897.659 1058.17 892.736C1052 887.962 1045.54 880.953 1038.32 877.104L1040.07 874.939L1055.54 876.15C1061.31 880.757 1067.7 884.809 1073.44 889.264C1081 895.127 1088.27 902.182 1096.35 907.464ZM1040.11 894.948C1037.1 892.432 1033.82 889.382 1030.26 887.094L1035.42 880.702C1040.3 886.799 1048.03 891.447 1053.89 895.932C1058.75 899.65 1063.91 904.206 1069.38 907.928L1053.94 908.196C1050 903.235 1044.88 898.942 1040.11 894.948ZM1047.13 908.311L1025.56 908.685C1023.36 907.048 1021.12 905.455 1019.01 903.714C1018.6 903.369 1018.17 902.989 1017.75 902.59L1026.71 891.482C1029.76 894.055 1033.28 896.26 1036.21 898.656C1039.94 901.699 1043.46 905.111 1047.13 908.311ZM1067.13 748.818C1063.14 749.982 1059.1 751.121 1055.08 752.358L1070.67 739.199C1080.65 737.342 1090.35 733.553 1099.94 730.401C1106 728.41 1112.99 726.899 1119.27 724.371L1104.91 739.279C1092.16 741.551 1079.55 745.192 1067.13 748.818ZM1098.8 745.623L1083.79 761.217C1071.84 763.719 1060.02 766.974 1048.35 770.48C1040.8 772.747 1032.7 774.878 1025.01 777.733L1045.09 760.784C1053.02 758.785 1060.81 756.055 1068.62 753.788C1078.63 750.884 1088.76 748.41 1098.8 745.623ZM1045.33 749.197C1048.28 743.554 1050.23 737.254 1051.54 731.108C1053.18 723.456 1054.23 716.002 1055.45 708.682C1063 712.813 1070.31 717.304 1077.35 722.185L1045.33 749.197ZM1096.53 726.205C1090.92 728.024 1085.17 729.718 1079.55 731.705L1099.63 714.764C1112.03 713.457 1125.32 709.754 1137.59 705.331L1125.54 717.846C1115.9 718.224 1105.46 723.311 1096.53 726.205ZM1094.74 707.511L1082.85 717.543C1074.5 711.663 1065.78 706.316 1056.74 701.472C1057.73 696.374 1058.93 691.333 1060.57 686.321C1072.52 692.522 1083.93 699.618 1094.74 707.511ZM1063.28 679.14C1064.23 676.9 1065.28 674.665 1066.5 672.432C1067.41 670.748 1068.36 669.075 1069.32 667.403C1084.03 674.969 1097.99 683.781 1111.09 693.704L1100.73 702.453C1088.93 693.713 1076.42 685.897 1063.28 679.14ZM1107.58 708.054L1120.82 696.881C1131.97 695.157 1143.55 691.638 1154.49 687.782L1144.07 698.608C1132.12 701.056 1119.36 704.01 1107.58 708.054ZM1130.1 689.05L1142.55 678.546C1149.41 676.704 1156.04 673.496 1162.78 671.31C1165.87 670.309 1169.5 669.695 1172.88 668.68L1161.69 680.308C1151.4 682.653 1140.42 685.391 1130.1 689.05ZM1160.19 667.701C1157.6 668.524 1154.92 669.403 1152.26 670.352L1168.35 656.78C1172.1 655.993 1175.82 655.009 1179.52 654.137C1182.65 653.399 1185.82 652.701 1188.98 651.97L1177.68 663.7C1172.01 663.112 1165.32 666.068 1160.19 667.701ZM1181.52 649.27C1179.66 649.681 1177.76 650.057 1175.86 650.443L1188.89 639.445C1192.18 638.719 1195.44 637.815 1198.68 636.974C1200.7 636.445 1202.81 635.94 1204.92 635.404L1194.19 646.552C1189.94 647.352 1185.73 648.344 1181.52 649.27ZM1198.86 632.585C1198.01 632.802 1197.15 632.995 1196.29 633.204L1210.06 621.588C1214.17 620.312 1218.26 618.857 1222.31 617.341L1210.52 629.596C1206.57 630.346 1202.66 631.63 1198.86 632.585ZM1117.55 688.259C1103.76 677.669 1089 668.309 1073.44 660.279C1080.08 648.875 1086.55 637.368 1088.89 624.179C1091.51 609.44 1088.99 594.511 1082.57 581.131C1082.29 579.075 1081.92 576.995 1081.34 574.883C1080.48 571.8 1075.48 573.079 1075.9 576.192C1075.96 576.715 1075.96 577.209 1076.01 577.727C1074.97 578.497 1074.43 579.772 1075.22 581.308C1075.62 582.084 1075.95 582.882 1076.32 583.663C1076.14 609.049 1057.65 628.07 1039.61 645.403C1016.85 637.102 992.801 631.557 967.857 629.17L953.451 511.729C1050.4 514.906 1139.11 552.238 1207.7 612.194L1117.55 688.259ZM1033 651.755C1031.5 653.199 1030.02 654.639 1028.57 656.072C1026.53 658.091 1024.39 660.119 1022.2 662.169C1005.6 656.852 988.331 653.117 970.545 651.095L968.881 637.549C991.09 639.812 1012.57 644.639 1033 651.755ZM1015.78 668.134C1011.51 672.073 1007.17 676.114 1002.95 680.289C993.298 677.721 983.45 675.679 973.392 674.294L971.494 658.843C986.685 660.676 1001.48 663.808 1015.78 668.134ZM997.35 685.99C989.564 694.255 982.654 703.126 978.126 712.924L974.268 681.468C982.091 682.595 989.786 684.114 997.35 685.99ZM1009.62 683.978C1022.74 671.143 1035.83 658.282 1048.86 645.352C1055.92 638.345 1063.39 630.544 1069.57 622.035C1068.79 625.084 1067.93 628.104 1066.74 631.019C1062.92 640.451 1057.94 649.337 1052.49 657.923C1041.93 674.567 1029.26 689.705 1017.89 705.773C1003.56 726.025 988.258 751.074 985.968 776.864L979.303 722.526C986.123 706.977 997.65 695.684 1009.62 683.978ZM1015.12 786.07C1027.45 783.367 1039.57 777.863 1051.64 774.236C1060.4 771.605 1069.24 769.355 1078.09 767.127L1061.17 784.701C1049.59 786.969 1038.13 791.13 1026.96 794.524C1015.59 797.976 1003.14 800.814 992.024 805.559L1015.12 786.07ZM1028.4 799.304C1036.98 796.611 1045.95 794.355 1054.63 791.505L1036.16 810.69C1028.78 810.122 1021.15 812.757 1013.94 814.138C1006.41 815.582 998.447 816.541 991.144 819.085L990.177 811.189C1003.1 808.667 1015.91 803.222 1028.4 799.304ZM1013.29 819.132C1019.04 817.98 1025.52 817.404 1031.37 815.662L1018.02 829.528C1017.75 829.358 1017.45 829.247 1017.09 829.275C1011.61 829.716 1006.26 831.481 1000.99 832.946C998.399 833.662 995.682 834.269 993.122 835.186L991.611 822.869C998.893 822.51 1006.21 820.554 1013.29 819.132ZM1002.43 837.748C1006 836.746 1009.64 835.817 1013.16 834.575L1002.61 845.533C1000.22 845.759 997.896 846.253 995.576 846.915C995.252 847.009 994.923 847.107 994.591 847.203L993.722 840.11C996.68 839.59 999.614 838.538 1002.43 837.748ZM1221.25 612.138L1232.12 602.966C1233.94 602.543 1235.77 602.046 1237.6 601.461L1229.71 609.654C1226.92 610.413 1224.08 611.241 1221.25 612.138ZM1224.59 571.748C1221.34 576.126 1218.23 580.622 1215.21 585.156C1212.72 588.895 1208.55 593.192 1209.12 597.882C1209.13 597.992 1209.23 598.068 1209.31 598.148C1205.43 594.884 1201.46 591.718 1197.47 588.592C1200.07 584.198 1202.6 579.776 1205.4 575.498C1208.17 571.27 1211.46 567.397 1213.15 562.633C1217.02 565.602 1220.83 568.649 1224.59 571.748ZM1210.5 560.568C1206.49 563.45 1203.98 567.513 1201.25 571.667C1198.36 576.074 1195.62 580.618 1193.17 585.298C1187.68 581.115 1182.04 577.117 1176.34 573.201C1182.52 565.341 1187.73 556.34 1193.01 547.972C1198.94 552.039 1204.78 556.227 1210.5 560.568ZM1188.82 545.125C1183.27 553.327 1177.19 561.743 1172.46 570.58C1167.7 567.383 1162.84 564.318 1157.94 561.314C1164.97 554.389 1170.51 545.198 1175.41 536.507C1179.93 539.31 1184.41 542.169 1188.82 545.125ZM1170.84 533.685C1165.53 542.313 1159.32 550.4 1154.27 559.11C1148.4 555.597 1142.42 552.265 1136.38 549.033C1142.45 541.043 1147.53 531.834 1152.56 523.265C1158.74 526.604 1164.84 530.066 1170.84 533.685ZM1147.61 520.579C1142.33 529.033 1136.59 537.77 1132.33 546.86C1127.02 544.089 1121.62 541.465 1116.18 538.916C1119.71 534.101 1122.59 528.684 1125.54 523.545C1127.49 520.153 1130.25 516.541 1131.83 512.734C1137.15 515.26 1142.41 517.854 1147.61 520.579ZM1126.45 510.204C1123.95 513.663 1122.21 517.977 1120.21 521.515C1117.38 526.529 1114.33 531.64 1112.07 536.991C1107.63 534.968 1103.09 533.113 1098.57 531.24C1103.64 522.494 1108.05 513.172 1112.2 503.942C1117 505.944 1121.74 508.042 1126.45 510.204ZM1107.6 502.093C1103.03 511.073 1098.55 520.307 1094.93 529.694C1087.88 526.861 1080.7 524.277 1073.47 521.819C1076.98 518.099 1078.97 512.889 1080.96 508.264C1082.95 503.641 1084.73 498.896 1086.25 494.09C1093.46 496.572 1100.57 499.251 1107.6 502.093ZM1064.59 487.186C1070.09 488.775 1075.53 490.501 1080.93 492.292C1079.46 496.845 1077.96 501.383 1076.16 505.834C1074.18 510.731 1071.32 515.57 1070.35 520.789C1065.26 519.104 1060.12 517.528 1054.95 516.028C1056.91 512.649 1057.74 508.361 1058.93 504.774C1060.8 499.172 1062.75 493.583 1064.5 487.939C1064.59 487.673 1064.58 487.434 1064.59 487.186ZM1059.42 485.744C1059.32 485.909 1059.2 486.029 1059.14 486.221C1057.22 491.81 1055.5 497.473 1053.69 503.099C1052.52 506.775 1050.66 510.807 1050.29 514.766C1044.28 513.1 1038.22 511.567 1032.11 510.165C1034.15 506.606 1034.26 501.216 1035.07 497.502C1036.31 491.856 1037.81 486.318 1039.47 480.796C1046.17 482.313 1052.83 483.93 1059.42 485.744ZM1033.62 479.505C1031.91 485.166 1030.45 490.918 1029.43 496.737C1028.81 500.304 1027.38 505.352 1028.25 509.26C1023.13 508.138 1017.98 507.105 1012.79 506.178C1015.35 496.469 1016.71 486.422 1017.42 476.403C1022.85 477.351 1028.26 478.365 1033.62 479.505ZM1011.4 475.381C1010.65 485.434 1009.33 495.386 1008.1 505.388C1001.81 504.333 995.459 503.446 989.078 502.678C990.894 492.909 991.272 482.617 991.75 472.651C998.343 473.422 1004.9 474.331 1011.4 475.381ZM985.602 472.067C984.86 481.99 983.935 492.26 984.557 502.144C979.612 501.606 974.64 501.163 969.645 500.807C972.361 491.327 971.513 480.378 969.79 470.726C975.081 471.097 980.358 471.523 985.602 472.067ZM963.052 470.315C965.114 480.597 964.409 490.195 964.506 500.418C960.356 500.174 956.179 500.02 951.999 499.902L948.3 469.746C953.24 469.859 958.155 470.049 963.052 470.315ZM938.952 469.696C939.146 469.697 939.334 469.698 939.528 469.699L980.516 803.891L945.235 833.662L939.766 516.955C939.893 516.479 940.049 516.01 940.156 515.529C940.277 514.981 940.044 514.579 939.719 514.262L938.952 469.696ZM919.356 760.388C916.234 764.98 912.868 769.578 909.631 774.264L910.498 761.684C914.371 756.24 917.492 750.176 921.033 744.574C925.317 737.803 930.448 731.317 934.643 724.441L934.882 738.402C929.425 745.523 924.412 752.956 919.356 760.388ZM934.982 743.869L935.294 761.914C931.082 766.125 927.829 772.592 924.858 776.741C918.911 785.044 911.834 793.439 907.657 802.881L908.942 784.278C913.125 778.308 916.931 771.983 920.859 765.998C925.658 758.679 930.498 751.38 934.982 743.869ZM917.561 740.721C915.465 743.942 913.278 747.237 911.264 750.627L911.968 740.4C916.476 734.279 919.974 727.473 924.044 721.061C927.285 715.949 930.922 711.063 934.328 706.044L934.536 718.149C927.826 724.398 922.549 733.064 917.561 740.721ZM912.613 731.068L913.803 713.759C917.052 709.289 919.856 704.477 922.755 699.794C926.515 693.724 930.666 687.544 933.899 681.083L934.219 699.76C925.779 708.156 917.69 719.697 912.613 731.068ZM910.329 637.664L909.41 651.018C892.633 652.915 876.312 656.308 860.617 661.129C862.096 663.316 863.543 665.531 864.98 667.746C879.139 663.533 893.821 660.529 908.877 658.741L907.822 674.084C896.068 675.616 884.57 677.938 873.396 681.049C873.42 681.087 873.444 681.125 873.468 681.167C870.489 677.772 867.619 674.263 864.905 670.612C859.461 663.297 855.043 655.535 850.89 647.627C851.45 648.364 852.035 649.08 852.586 649.822C871.062 643.833 890.393 639.745 910.329 637.664ZM907.329 681.198L905.359 709.753C895.755 702.933 886.811 695.334 878.705 686.883C888.036 684.434 897.588 682.525 907.329 681.198ZM920.913 695.051C918.77 698.368 916.529 701.705 914.4 705.105L915.321 691.744C922.355 683.66 928.279 674.263 933.615 664.771L933.817 676.341C928.887 682.024 924.982 688.748 920.913 695.051ZM928.425 664.004C926.652 666.878 924.9 669.761 923.145 672.647C920.447 677.073 917.908 681.51 915.708 686.15L917.001 667.414C921.151 662.665 924.199 657.119 927.232 651.573C929.245 647.888 931.411 644.074 933.19 640.138L933.452 655.438C933.124 655.961 932.941 656.543 932.917 657.229C931.286 658.398 928.856 663.31 928.425 664.004ZM923.313 649.466C921.415 652.938 919.385 656.329 917.523 659.805L918.47 646.089C923.827 638.417 928.863 629.561 932.853 620.578L933.05 631.91C929.153 637.29 926.491 643.655 923.313 649.466ZM919.161 636.063L920.748 613.046C923.149 609.283 924.764 604.947 926.6 600.921C927.938 597.98 929.251 595.029 930.544 592.069C931.103 590.794 931.644 589.159 932.284 587.518L932.679 610.362C927.471 618.186 922.824 627.141 919.161 636.063ZM926.351 589.815C924.977 592.642 923.331 595.627 921.738 598.698L923.196 577.542C923.264 577.492 923.346 577.496 923.408 577.426C927.093 573.124 929.296 567.8 931.71 562.718C931.754 562.626 931.803 562.528 931.847 562.435L932.148 579.832C929.252 581.823 927.718 587.016 926.351 589.815ZM928.02 560.726C926.584 563.523 925.064 566.336 923.773 569.232L925.408 545.582C925.435 545.559 925.476 545.563 925.504 545.54C928.004 543.219 929.823 540.245 931.416 537.158L931.699 553.695C930.421 556.011 929.226 558.371 928.02 560.726ZM925.892 538.451L927.809 510.647C929.003 508.804 929.982 506.805 930.853 504.768L931.249 527.652C930.845 528.531 930.467 529.42 930.044 530.287C928.726 533.009 927.202 535.691 925.892 538.451ZM910.904 629.357C889.243 631.51 868.283 635.98 848.286 642.597C844.835 635.851 841.456 629.045 837.713 622.353C823.621 597.164 799.144 580.845 770.696 576.635C767.591 576.176 765.013 580.757 768.047 582.644C770.209 583.994 772.292 585.437 774.314 586.948C779.186 591.854 784.359 596.41 789.288 601.251C794.962 608.243 799.457 616.179 802.412 624.988C806.15 636.133 807.246 647.868 807.574 659.609C789.496 668.829 772.537 679.904 756.876 692.528L663.957 619.458C731.689 556.967 820.663 517.104 918.989 512.09L910.904 629.357ZM807.719 668.826C807.731 671.43 807.732 674.03 807.732 676.614C807.733 678.964 807.756 681.365 807.791 683.788C796.004 690.411 784.769 697.883 774.157 706.121L763.511 697.753C777.273 686.809 792.056 677.103 807.719 668.826ZM808.038 692.394C808.282 697.97 808.729 703.61 809.488 709.196C803.702 712.785 798.092 716.618 792.634 720.651L780.313 710.962C789.137 704.215 798.389 698.009 808.038 692.394ZM810.707 716.674C812.482 725.698 815.342 734.336 819.804 742.016L798.308 725.115C802.351 722.178 806.483 719.357 810.707 716.674ZM814.451 655.215C814.08 645.917 812.723 636.919 810.334 628.399C812.296 631.643 814.173 634.934 815.868 638.315C826.045 658.577 829.19 680.457 835.169 702.06C840.514 721.385 850.258 736.559 863.447 751.455C876.987 766.743 891.863 781.746 896.406 802.257L841.245 758.88C841.285 758.24 841.059 757.57 840.36 757.014C809.104 732.045 815.861 690.509 814.451 655.215ZM907.368 807.058C907.577 807.038 907.774 806.968 907.926 806.845C914.86 801.024 919.751 792.807 924.841 785.383C928.344 780.278 931.625 773.928 935.403 768.293L935.734 787.489C930.89 791.662 927.138 798.259 923.523 803.032C920.416 807.136 916.522 811.342 913.875 815.996L907.123 810.684L907.368 807.058ZM929.167 804.569C931.156 801.912 933.67 799.056 935.881 796.048L936.192 813.939C933.808 816.94 931.732 820.286 929.463 823.287C928.695 824.301 927.853 825.304 927.003 826.315L918.041 819.267C922.338 814.973 925.675 809.235 929.167 804.569ZM933.913 825.429C934.716 824.294 935.53 823.134 936.327 821.954L936.533 833.812L931.089 829.529C932.078 828.133 933.003 826.716 933.913 825.429ZM930.677 494.544C929.966 496.361 929.284 498.186 928.547 499.953L930.328 474.169L930.677 494.544ZM921.894 469.987L919.046 511.297C918.944 507.648 919.025 503.98 919.245 500.271C912.133 500.619 905.09 501.197 898.091 501.921C895.846 492.118 894.059 481.95 891.098 472.383C901.275 471.278 911.52 470.398 921.894 469.987ZM886.696 472.865C887.084 482.644 889.62 492.966 892.362 502.548C885.187 503.394 878.059 504.394 870.995 505.586C869.684 495.78 867.624 485.425 864.689 476.002C871.968 474.773 879.307 473.735 886.696 472.865ZM860.207 476.702C861.07 486.512 863.131 496.868 865.654 506.465C860.178 507.463 854.729 508.553 849.329 509.763C847.382 500.101 845.411 489.532 841.625 480.471C847.779 479.099 853.965 477.824 860.207 476.702ZM836.092 481.769C837.223 491.492 840.527 501.762 843.167 511.227C837.287 512.636 831.442 514.133 825.661 515.782C823.83 510.056 821.703 504.415 819.735 498.738C818.394 494.868 817.198 490.914 815.599 487.146C822.369 485.199 829.193 483.403 836.092 481.769ZM810.723 488.615C811.645 492.741 813.1 496.779 814.408 500.777C816.226 506.346 818.001 511.964 820.147 517.418C813.276 519.487 806.447 521.662 799.724 524.07C798.411 518.287 795.683 512.529 793.709 507.119C792.409 503.558 791.437 499.189 789.648 495.504C796.596 493.044 803.623 490.745 810.723 488.615ZM784.366 497.367C785.291 501.416 787.317 505.499 788.546 509.101C790.401 514.531 791.919 520.61 794.497 525.895C788.75 528.035 783.063 530.288 777.44 532.667C773.992 523.41 770.403 513.494 765.692 504.738C771.85 502.149 778.075 499.689 784.366 497.367ZM741.934 515.553C748.224 512.463 754.586 509.501 761.04 506.697C763.869 516.267 768.2 525.861 772.265 534.886C766.401 537.464 760.602 540.152 754.881 542.981C753.047 537.601 750.328 532.38 747.879 527.299C746.007 523.414 744.22 519.286 741.934 515.553ZM737.281 517.935C739.095 522.572 741.579 527.049 743.636 531.515C745.763 536.143 747.636 540.951 750.032 545.453C744.923 548.066 739.851 550.744 734.866 553.555C730.147 544.88 724.314 536.015 718.154 528.203C724.437 524.636 730.809 521.21 737.281 517.935ZM694.31 542.671C700.612 538.554 707.045 534.623 713.559 530.82C718.258 539.605 724.004 548.556 730.072 556.339C723.539 560.14 717.093 564.064 710.792 568.202C707.358 562.435 703.103 557.053 699.491 551.4C697.822 548.792 696.381 545.291 694.31 542.671ZM689.345 545.986C690.833 549.552 693.688 553.113 695.349 555.798C698.617 561.096 701.989 566.579 706.061 571.346C700.613 575.025 695.223 578.779 689.958 582.704C684.444 574.394 678.924 565.624 672.696 557.737C678.152 553.701 683.701 549.781 689.345 545.986ZM650.765 575.068C656.538 570.224 662.43 565.525 668.445 560.963C673.589 569.601 679.718 577.867 685.488 586.018C680.657 589.72 675.886 593.504 671.221 597.406C664.976 589.917 658.354 581.551 650.765 575.068ZM646.791 578.37C653.149 586.027 660.502 593.023 666.889 600.639C666.955 600.712 667.032 600.735 667.097 600.803C662.83 604.467 658.654 608.229 654.541 612.06L630.418 593.089C635.743 588.04 641.222 583.153 646.791 578.37ZM629.142 603.152L898.125 814.674L894.849 862.162L629.142 603.152ZM618.185 605.139C618.269 605.051 618.357 604.965 618.444 604.879L630.479 616.609C630.477 617.625 630.56 618.646 630.764 619.671L618.185 605.139ZM637.648 627.623C637.363 626.437 637.043 625.263 636.752 624.126C636.6 623.541 636.462 622.92 636.317 622.307L644.252 630.041C644.943 632.135 645.837 634.199 646.443 636.162C646.7 636.981 646.939 637.809 647.18 638.639L637.648 627.623ZM653.049 645.413C652.761 642.389 651.872 639.437 650.917 636.536L658.585 644.009C658.759 647.562 660.513 651.454 661.453 654.619C661.527 654.86 661.591 655.115 661.662 655.358L653.049 645.413ZM668.353 663.091C667.722 659.982 666.657 656.926 665.752 653.938C665.383 652.711 665.056 651.356 664.704 649.976L672.759 657.825C673.236 661.769 674.396 665.714 675.442 669.45C675.693 670.354 675.959 671.267 676.22 672.171L668.353 663.091ZM875.315 863.272C875.366 864.004 875.382 864.737 875.395 865.468L866.298 866.496C866.185 864.627 866.006 862.755 865.865 860.884C865.459 855.502 865.127 850.096 864.497 844.729L874.177 854.166C874.83 857.141 875.09 860.303 875.315 863.272ZM878.51 858.39L884.689 864.42L879.761 864.976C879.613 862.79 879.136 860.557 878.51 858.39ZM859.925 843.178C859.976 848.893 860.519 854.6 860.918 860.3C861.074 862.519 861.143 864.799 861.343 867.051L854.446 867.83C854.499 862.474 853.592 856.976 853.194 851.741C852.699 845.252 852.462 838.654 851.613 832.174L860.923 841.247C860.351 841.641 859.919 842.279 859.925 843.178ZM848.241 850.593C848.652 856.354 848.507 862.559 849.485 868.39L846.384 868.742L843.738 865.686C842.898 858.557 841.695 851.448 841.097 844.291C840.447 836.521 840.631 828.527 839.879 820.734L847.116 827.788C846.86 835.388 847.7 843.016 848.241 850.593ZM532.603 917.193C532.609 915.772 532.614 914.351 532.633 912.933L842.805 877.905L871.749 911.339L532.603 917.193ZM871.901 920.039L868.285 924.522C867.139 923.777 866.008 923.047 864.951 922.303C864.011 921.64 863.059 920.922 862.094 920.206L871.901 920.039ZM1014 1156.63C1015.24 1161.52 1016.35 1166.45 1017.36 1171.41C1005.07 1175.21 992.402 1178.12 979.417 1180.09L980.779 1164.56C992.136 1162.67 1003.23 1160.01 1014 1156.63ZM981.408 1157.38L985.528 1110.44C997.831 1120.87 1007.01 1133.62 1012 1149.26C1012.07 1149.47 1012.11 1149.68 1012.17 1149.89C1002.18 1153.03 991.913 1155.54 981.408 1157.38ZM1018.94 1178.91C1019.88 1183.23 1020.9 1187.53 1022.18 1191.77C1007.75 1196.15 992.846 1199.41 977.541 1201.44L978.726 1187.91C992.499 1185.92 1005.93 1182.89 1018.94 1178.91ZM1023.95 1173.63C1018.1 1146.04 1010.35 1120.96 986.052 1104.46L991.847 1038.45C1023.6 1070.9 1027.62 1114.7 1033.71 1158.05C1037.3 1183.58 1042.95 1211.39 1056.87 1233.61C1052.45 1229.36 1048.24 1224.9 1044.33 1220.16C1032.9 1206.26 1027.64 1190.98 1023.95 1173.63ZM981.793 1053.42C974.295 1061.58 968.728 1071.71 962.696 1080.92C958.554 1087.25 953.827 1093.61 949.837 1100.27L949.486 1079.92C955.374 1071.26 960.771 1062.23 966.456 1053.46C972.446 1044.22 979.582 1035.05 984.286 1025.03L981.793 1053.42ZM966.402 1083.3C971.264 1075.96 976.801 1068.66 981.142 1060.88L979.18 1083.25C973.764 1090.25 969.494 1098.39 964.579 1105.63C960.42 1111.76 954.447 1118.08 950.262 1124.81L949.962 1107.58C956.152 1100.11 961.118 1091.27 966.402 1083.3ZM967.201 1109.61C970.834 1104.38 974.865 1098.92 978.299 1093.21L976.851 1109.75C971.879 1115.81 968.034 1122.87 963.607 1129.31C959.523 1135.25 954.912 1140.85 950.634 1146.66L950.372 1131.52C957.328 1125.92 962.293 1116.68 967.201 1109.61ZM966.402 1133.06C969.7 1128.33 973.245 1123.43 976.106 1118.26L974.307 1138.73C970.154 1144.05 966.715 1150.02 962.918 1155.55C959.167 1161.02 954.986 1166.2 951.065 1171.55L950.745 1153.01C956.632 1147 961.632 1139.9 966.402 1133.06ZM963.513 1161.83C966.905 1157.12 970.54 1152.22 973.578 1147.06L972.358 1160.99C968.315 1166.32 964.908 1172.25 961.116 1177.67C958.382 1181.59 954.221 1185.83 951.391 1190.35L951.163 1177.34C952.456 1176.07 953.574 1174.88 953.465 1175.02C957.007 1170.79 960.294 1166.3 963.513 1161.83ZM964.466 1179.82C966.804 1176.49 969.287 1173.1 971.597 1169.6L970.659 1180.34C965.332 1186.06 961.511 1193.25 957.392 1199.81C955.462 1202.88 953.45 1205.76 951.708 1208.73L951.495 1196.55C957.007 1192.77 960.836 1184.99 964.466 1179.82ZM962.051 1201.01C964.676 1196.87 967.516 1192.7 969.956 1188.35L968.104 1209.44C965.587 1213.5 963.194 1217.65 960.635 1221.62C957.957 1225.77 954.991 1229.78 952.146 1233.86L951.836 1216.08C955.585 1211.37 958.714 1206.27 962.051 1201.01ZM964.018 1223.79C965.106 1222.12 966.206 1220.42 967.293 1218.71L966.301 1230.02C963.548 1234.12 961.113 1238.47 958.634 1242.62C956.592 1246.03 954.484 1249.44 952.471 1252.89L952.259 1240.61C956.651 1235.38 960.343 1229.45 964.018 1223.79ZM962.985 1243.58C963.792 1242.24 964.634 1240.89 965.469 1239.52L963.876 1257.64C960.853 1260.79 958.305 1264.45 956.055 1268.12C955.213 1269.49 953.99 1271.28 952.824 1273.21L952.606 1260.52C956.341 1255.06 959.597 1249.22 962.985 1243.58ZM958.847 1271.08C960.21 1268.82 961.74 1266.65 963.271 1264.49L961.426 1285.54C959.845 1288.43 958.314 1291.35 956.739 1294.19C955.574 1296.29 954.437 1298.42 953.293 1300.53L952.979 1282.32C955.516 1279.23 957.009 1274.13 958.847 1271.08ZM960.606 1293.28C960.66 1293.19 960.716 1293.08 960.773 1292.99L958.924 1314.08C958.513 1313.9 957.957 1313.97 957.654 1314.34C955.954 1316.44 954.742 1319.02 953.659 1321.64L953.388 1305.92C955.89 1301.76 958.243 1297.51 960.606 1293.28ZM976.807 1209.79C993.326 1207.7 1009.39 1204.2 1024.92 1199.47C1035.51 1225.43 1058.18 1245.42 1081.15 1260.57C1083.76 1262.29 1087.91 1259.13 1085.44 1256.42C1071.44 1241.08 1063.87 1222.13 1063.98 1201.3C1064.01 1195.42 1064.56 1189.59 1065.3 1183.79C1089.59 1172.19 1112.01 1157.36 1132.03 1139.84L1224.94 1212.9C1224.3 1212.42 1223.65 1211.98 1223.01 1211.49C1155.77 1276.59 1066.16 1318.82 966.666 1325.32L976.807 1209.79ZM1066.7 1173.99C1067.54 1168.57 1068.42 1163.15 1069.13 1157.72C1085.47 1148.8 1100.81 1138.31 1114.89 1126.36L1125.5 1134.7C1107.71 1150.12 1087.96 1163.33 1066.7 1173.99ZM1070.09 1148.44C1070.22 1146.88 1070.36 1145.31 1070.42 1143.74C1070.6 1139.6 1070.51 1135.26 1070.2 1130.82C1079.42 1125.1 1088.25 1118.82 1096.62 1111.99L1108.75 1121.53C1096.74 1131.61 1083.79 1140.6 1070.09 1148.44ZM1069.42 1123.1C1067.45 1108.08 1062.74 1092.41 1055 1079.25L1091.02 1107.58C1084.12 1113.14 1076.91 1118.32 1069.42 1123.1ZM962.907 1051.18C958.385 1058.23 953.736 1065.26 949.354 1072.45L949.078 1056.37C954.367 1049.96 959.161 1043.13 964.085 1036.45C968.501 1030.46 973.332 1024.53 977.282 1018.15L982.708 1022.41C974.828 1030.79 969.083 1041.55 962.907 1051.18ZM961.925 1032.67C957.609 1038.61 953.129 1044.48 948.977 1050.56L948.757 1037.78C952.398 1033.4 955.852 1028.86 959.332 1024.36C962.537 1020.21 966.13 1016.08 968.883 1011.54L974.424 1015.9C969.893 1021.18 965.981 1027.09 961.925 1032.67ZM956.933 1021.19C954.175 1024.79 951.386 1028.38 948.656 1032.02L948.477 1021.55C948.975 1021.61 949.497 1021.49 949.947 1021.07C953.343 1017.88 956.197 1014.11 958.944 1010.36C959.934 1009.01 960.971 1007.57 961.958 1006.1L966.251 1009.47C962.81 1013.06 959.91 1017.31 956.933 1021.19ZM955.547 1007.18C953.226 1010.37 950.724 1013.44 948.392 1016.62L948.121 1000.94C948.924 999.612 949.904 998.516 950.992 997.47L958.326 1003.24C957.384 1004.58 956.468 1005.92 955.547 1007.18ZM945.544 1355.82L910.654 1019.47L939.325 995.286L945.544 1355.82ZM713.621 1173.46C705.998 1176.04 698.324 1178.92 690.75 1182L700.66 1171.71C709.69 1169.11 718.724 1165.98 727.607 1162.55L714.33 1173.76C714.192 1173.51 713.962 1173.34 713.621 1173.46ZM635.408 1226.93L848.167 963.307L886.335 966.305L868.833 984.485C868.543 984.606 868.241 984.696 867.959 984.829C867.611 984.989 867.553 985.372 867.674 985.688L705.433 1154.2C704.759 1154.47 704.062 1154.73 703.393 1155.01C702.719 1155.29 702.87 1156.03 703.33 1156.39L635.408 1226.93ZM660.47 1219.2L630.956 1244.1L653.39 1220.8C655.751 1220.26 658.103 1219.62 660.47 1219.2ZM569.982 941.44C570.1 941.463 570.218 941.511 570.336 941.534C570.43 941.55 570.516 941.507 570.612 941.49L593.471 943.289C594.489 943.637 595.486 944.064 596.518 944.356C597.041 944.503 597.498 944.088 597.628 943.614L633.31 946.418C633.418 946.446 633.518 946.497 633.625 946.52C633.769 946.553 633.89 946.505 634.019 946.474L649.138 947.664C650.909 966.295 654.448 984.383 659.552 1001.82C656.154 1003.2 652.756 1004.59 649.39 1006.06C622.49 1017.79 589.469 1035.88 581.744 1066.73C581.115 1069.24 584.266 1070.05 585.786 1068.6C586.132 1068.46 586.474 1068.25 586.782 1067.9C587.68 1066.86 588.633 1065.94 589.557 1064.95C618.211 1052.7 647.838 1050.99 678.143 1049.6C689.04 1071.52 702.575 1091.89 718.38 1110.27L645.689 1200.34C579.945 1131.68 537.941 1040.05 533.063 938.538L569.982 941.44ZM532.696 929.782C532.661 928.481 532.558 927.2 532.536 925.897L533.404 925.881C535.967 927.78 538.992 929.229 542.076 930.517L532.696 929.782ZM592.056 934.446L581.495 933.616C575.458 930.83 569.246 928.335 563.356 925.365L579.905 925.079C582.578 929.183 588.017 931.994 592.056 934.446ZM571.158 932.806L555.03 931.536C553.537 930.892 552.047 930.251 550.577 929.6C547.935 928.428 545.229 927 542.465 925.722L556.568 925.479C560.289 928.21 565.544 929.907 569.07 931.707C569.763 932.062 570.463 932.439 571.158 932.806ZM586.375 924.968L593.257 924.849C598.943 928.969 605.098 932.428 611.202 935.877C611.254 935.906 611.303 935.934 611.354 935.963L602.39 935.257C600.166 934.118 597.95 932.97 595.82 931.691C592.769 929.858 589.656 927.087 586.375 924.968ZM729.57 936.994C733.742 940.056 738.279 943.573 743.077 946.314L733.455 945.556C726.853 940.946 719.81 936.931 713.116 932.443C708.573 929.398 704.178 926.061 699.614 923.007L714.758 922.745C717.375 929.02 724.22 933.07 729.57 936.994ZM747.172 936.031C752.418 939.844 757.641 944.219 763.166 947.891L753.518 947.134C747.939 942.263 740.709 939.12 734.628 934.876C729.404 931.227 724.427 925.562 718.566 922.686L730.844 922.474C735.194 928.096 741.453 931.873 747.172 936.031ZM762.497 933.484C770.884 938.902 779.204 944.487 787.67 949.821L771.042 948.515C765.499 943.18 758.659 938.975 752.457 934.509C746.697 930.363 741.057 925.409 734.578 922.414L749.348 922.157C750.149 927.553 758.288 930.764 762.497 933.484ZM837.823 953.762L822.602 952.569C807.892 942.782 793.979 932.065 779.776 921.633L795.564 921.361C808.667 933.256 823.062 943.902 837.823 953.762ZM802.167 921.242L814.287 921.034C824.651 930.917 836.191 941.16 848.062 949.575L845.221 953.095C830.324 943.159 816.192 932.352 802.167 921.242ZM813.561 951.855L797.923 950.625C790.446 945.491 782.737 940.672 775.098 935.791C768.368 931.492 760.476 927.561 754.454 922.07L773.726 921.737C785.796 932.952 799.627 942.808 813.561 951.855ZM796.941 959.279C764.486 990.13 725.588 1006.62 682.11 1015.99C655.99 1021.61 626.353 1027.65 604.014 1043.47C609.245 1037.96 615.137 1033 622.078 1028.5C637.574 1018.44 654.789 1011.7 671.856 1004.89C686.945 998.855 702.029 992.571 715.91 984.045C726.958 977.262 740.627 967.527 746.77 955.331L796.941 959.279ZM791.506 1019.66L751.157 1069.66C744.873 1061.74 739.094 1053.41 733.822 1044.73C744.558 1042.73 755.091 1039.81 765.116 1035.36C774.488 1031.2 783.347 1025.89 791.506 1019.66ZM710.009 1047.8C715.484 1047.36 720.961 1046.77 726.411 1045.97C732.479 1056.21 739.238 1065.99 746.663 1075.22L736.96 1087.24C726.836 1074.98 717.808 1061.79 710.009 1047.8ZM732.061 1093.32L723.619 1103.78C709.452 1087.13 697.192 1068.82 687.125 1049.18C691.94 1048.96 696.773 1048.71 701.622 1048.41C710.276 1064.42 720.483 1079.46 732.061 1093.32ZM700.374 984.19C700.333 984.212 700.293 984.233 700.25 984.257C695.739 986.579 691.137 988.695 686.499 990.722C682.816 977.534 680.157 963.922 678.566 949.977L693.871 951.181C695.296 962.443 697.485 973.455 700.374 984.19ZM700.989 951.737L738.104 954.653C734.107 959.18 730.305 963.873 725.61 967.865C719.796 972.804 713.361 977.023 706.703 980.778C704.223 971.313 702.301 961.624 700.989 951.737ZM679.395 993.71C675.328 995.397 671.259 997.071 667.174 998.71C662.479 982.467 659.2 965.627 657.467 948.319L670.833 949.371C672.481 964.562 675.344 979.381 679.395 993.71ZM723.21 944.755L706.607 943.449C706.476 942.998 706.22 942.563 705.739 942.237C696.264 935.765 686.566 929.354 676.685 923.409L693.244 923.123C701.533 931.341 712.548 938.85 723.21 944.755ZM698.479 942.812L685.501 941.794C681.154 938.972 676.588 936.42 672.299 933.653C667.309 930.435 662.408 927.037 657.445 923.744L668.705 923.549C678.317 930.341 688.38 936.704 698.479 942.812ZM675.452 941.001L664.481 940.142C656.805 934.217 647.86 928.638 639.036 924.062L650.24 923.868C656.103 928.338 662.336 932.36 668.491 936.371C670.788 937.865 673.105 939.444 675.452 941.001ZM655.48 939.432L642.433 938.407C639.088 936.272 635.598 934.336 632.227 932.317C627.813 929.67 623.407 926.967 618.926 924.405L631.812 924.183C638.988 929.662 647.222 934.994 655.48 939.432ZM633.236 937.683L621.507 936.761C619.237 935.571 616.961 934.391 614.728 933.158C609.771 930.42 604.905 927.469 599.933 924.732L612.242 924.52C618.086 928.532 624.219 932.144 630.269 935.831C631.257 936.434 632.246 937.062 633.236 937.683ZM820.683 920.923L833.888 920.696C839.013 925.77 844.907 930.146 850.509 934.659C852.436 936.213 854.346 937.82 856.269 939.415L851.328 945.54C841.941 936.708 831.185 928.414 820.683 920.923ZM891.445 1024.3C881.5 1026.71 871.639 1029.86 861.851 1032.4C850.068 1035.48 837.84 1037.93 826.091 1041.42L841.329 1025.6C851.702 1023.55 861.981 1020.86 872.248 1018.39C881.867 1016.07 891.676 1014.06 900.995 1010.68L901.525 1015.79L891.445 1024.3ZM880.918 1153.69C881.824 1152.59 882.783 1151.54 883.647 1150.4C901.174 1127.31 907.456 1097.63 906.978 1068.39L916.467 1159.87C904.341 1158.69 892.468 1156.62 880.918 1153.69ZM917.204 1166.97L918.787 1182.21C899.717 1180.68 881.191 1177.15 863.454 1171.75C867.726 1167.86 871.863 1163.84 875.79 1159.62C889.189 1163.21 903.031 1165.67 917.204 1166.97ZM759.909 1124.05C753.614 1126.08 747.171 1127.93 740.808 1130L753.11 1117.22C762.491 1115.58 771.815 1112.51 780.82 1109.95C785.341 1108.67 789.931 1107.43 794.499 1106.1L790.764 1109.25C790.72 1109.22 790.67 1109.19 790.626 1109.15C788.818 1110.7 786.991 1112.23 785.144 1113.73C785.201 1113.77 785.258 1113.81 785.315 1113.86L781.567 1117.01C774.304 1119.27 767.102 1121.73 759.909 1124.05ZM757.984 1112.16L770.077 1099.6C780.612 1097.59 791.081 1094.16 801.362 1091.47C806.475 1090.14 811.605 1088.83 816.69 1087.38L802.25 1099.56C794.095 1101.89 786.011 1104.59 777.917 1106.88C771.399 1108.73 764.621 1110.27 757.984 1112.16ZM792.409 1119.25C802.268 1126.54 812.682 1133.1 823.561 1138.89C820.778 1143.12 817.924 1147.29 815.119 1151.42C803.032 1144.88 791.501 1137.46 780.626 1129.19L792.409 1119.25ZM798.276 1114.92C799.746 1114.33 801.221 1113.76 802.659 1113.11C803.526 1112.72 802.972 1111.42 802.092 1111.6C801.806 1111.66 801.522 1111.74 801.238 1111.8L842.491 1076.99C846.495 1097.31 838.198 1115.68 827.314 1133.06C817.19 1127.69 807.492 1121.62 798.276 1114.92ZM823.52 1081.61C814.387 1083.43 805.388 1086.04 796.41 1088.45C789.553 1090.29 782.504 1091.91 775.592 1093.87L789.897 1079.02C806.514 1078.54 826.557 1073.82 841.949 1066.06L823.52 1081.61ZM817.662 1069.88C809.732 1072.01 801.584 1073.32 793.595 1075.17L803.201 1065.19C816.973 1063.49 830.73 1059 844.133 1055.6C848.846 1054.4 853.658 1053.3 858.466 1052.13L848.161 1060.82C837.797 1062.96 827.891 1067.13 817.662 1069.88ZM841.12 1051.82C830.166 1054.55 818.729 1056.76 807.911 1060.31L820.963 1046.75C835.713 1044.69 850.531 1040.03 864.851 1036.17C870.848 1034.55 876.981 1033.04 883.074 1031.36L866.467 1045.37C857.931 1047.24 849.461 1049.74 841.12 1051.82ZM871.31 1014.35C863.001 1016.35 854.625 1018.22 846.34 1020.39L861.672 1004.47C868.982 1003.59 876.255 1002.34 883.52 1001.15C888.909 1000.26 894.434 999.657 899.7 998.197L900.725 1008.09C890.78 1009.32 881.031 1012.01 871.31 1014.35ZM882.462 996.581C877.164 997.481 871.862 998.387 866.579 999.371L878.649 986.835C881.66 986.556 884.667 986.047 887.485 985.667C890.951 985.2 894.64 984.807 898.233 984.092L899.266 994.046C893.631 994.358 887.99 995.642 882.462 996.581ZM887.951 981.28C886.497 981.507 884.995 981.668 883.483 981.815L895.359 969.482C895.85 969.927 896.348 970.365 896.854 970.795L897.747 979.397C894.455 980.011 891.176 980.782 887.951 981.28ZM668.286 1205.33C671.584 1204.5 674.755 1202.88 677.883 1201.59C680.22 1200.62 682.55 1199.64 684.855 1198.62L666.469 1214.13C663.988 1214.21 661.479 1214.48 659.016 1214.96L668.286 1205.33ZM678.676 1197.75C677.093 1198.42 675.41 1199.03 673.728 1199.67L685.173 1187.78C694.239 1184.82 703.161 1180.85 711.322 1176.28L691.553 1192.96C687.168 1194.3 682.913 1195.99 678.676 1197.75ZM705.835 1166.33L717.754 1153.95C727.972 1151.65 738.306 1148.58 748.357 1145.04L735.158 1156.18C725.309 1159.19 715.408 1162.53 705.835 1166.33ZM724.048 1147.41L735.012 1136.02C745.052 1133.24 754.948 1129.55 764.751 1126.41C767.083 1125.67 769.427 1124.93 771.775 1124.19C770.269 1125.59 768.778 1127 767.28 1128.4C767.412 1128.51 767.554 1128.62 767.689 1128.73L756.686 1138.01C745.803 1140.78 734.777 1143.88 724.048 1147.41ZM774.676 1134.22C786.069 1142.99 798.167 1150.85 810.862 1157.76C808.382 1161.52 806.034 1165.25 803.897 1168.96C789.993 1161.34 776.779 1152.64 764.384 1142.9L774.676 1134.22ZM820.203 1156.14C837.099 1131.38 856.496 1103.36 848.231 1072.15L875.921 1048.78C881.749 1095.86 848.357 1133.85 822.51 1169.39C812.344 1183.36 802.833 1197.97 796.209 1213.94C796.231 1213.77 796.23 1213.6 796.254 1213.42C798.931 1191.75 808.023 1174.01 820.203 1156.14ZM856.84 1177.66C876.864 1184.14 897.879 1188.34 919.589 1189.96L920.97 1203.27C894.709 1201.53 869.39 1196.22 845.511 1187.77C849.249 1184.36 853.041 1181.01 856.84 1177.66ZM859.269 935.693C856.461 933.514 853.598 931.397 850.882 929.236C847.233 926.336 843.621 923.341 839.844 920.592L855.033 920.329C857.479 922.699 860.595 924.62 863.164 926.554C863.865 927.082 864.575 927.663 865.287 928.236L859.269 935.693ZM701.998 791.115C697.959 789.288 693.931 787.455 689.911 785.66C699.006 768.785 709.759 752.936 721.964 738.309L730.737 748.442C719.86 761.689 710.232 775.969 701.998 791.115ZM735.799 754.294L745.835 765.887C737.296 776.623 729.641 788.071 722.948 800.132C718.257 798.278 713.597 796.288 708.961 794.236C716.699 780.09 725.685 766.73 735.799 754.294ZM682.256 782.33C666.806 775.76 650.971 770.411 634.181 768.65C615.009 766.641 596.177 767.332 578.04 759.751C576.673 759.179 575.061 760.007 574.823 761.499C574.692 762.332 574.671 762.989 574.756 763.54C574.674 763.531 574.602 763.502 574.521 763.494C573.878 763.421 573.5 764.096 573.837 764.623C578.363 771.772 588.075 773.962 595.867 775.962C599.241 776.828 602.62 777.59 606.002 778.344C614.825 781.622 624.116 784.057 633.02 786.48C646.221 792.296 658.186 800.462 669.479 809.455C658.976 835.061 652.004 862.446 649.168 891.009L532.76 904.156C536.32 804.076 576.287 712.857 639.93 643.552L716.435 731.925C703.37 747.443 691.906 764.335 682.256 782.33ZM694.258 885.926L678.807 887.668C681.262 867.813 685.911 848.619 692.56 830.356C690.408 828.772 688.302 827.145 686.255 825.462C678.762 845.5 673.566 866.632 671.009 888.55L657.569 890.067C660.308 864.094 666.544 839.126 675.842 815.667C674.807 814.53 673.818 813.362 672.869 812.177C676.77 815.38 680.602 818.66 684.371 821.97C690.944 827.739 697.795 834.218 704.934 840.749C700.016 855.266 696.417 870.369 694.258 885.926ZM710.628 845.89C725.392 859.075 741.423 871.729 758.983 878.612L701.449 885.11C703.423 871.65 706.516 858.552 710.628 845.89ZM813.141 859.734C800.476 856.687 787.878 853.295 775.545 849.086C750.751 840.623 729.225 828.181 707.75 813.34C689.504 800.727 671.156 791.233 649.808 784.997C647.121 784.211 644.417 783.468 641.707 782.731C639.081 781.454 636.423 780.232 633.701 779.148C627.903 776.836 621.957 775.198 615.924 773.823C619.943 774.146 623.97 774.431 627.985 774.805C650.127 776.884 670.042 784.603 690.104 793.761C721.269 807.979 754.38 823.877 789.344 816.147L830.061 863.185C824.37 861.968 818.579 861.043 813.141 859.734ZM729.549 802.626C735.717 791.612 742.717 781.128 750.48 771.254L766.945 790.269C767.017 790.438 767.077 790.615 767.154 790.779C767.293 791.077 767.556 791.224 767.832 791.295L783.859 809.81C764.941 812.702 746.995 808.916 729.549 802.626ZM836.205 844.857C836.577 849.384 836.979 853.973 837.551 858.537L832.288 852.458C830.615 843.362 828.679 834.308 827.203 825.168C826.2 818.958 825.788 812.319 824.694 805.933L835.879 816.833C834.454 825.96 835.459 835.757 836.205 844.857ZM823.309 827.643C824.26 833.652 825.25 839.684 826.417 845.676L817.453 835.32C816.253 826.897 813.926 818.536 812.374 810.2C811.513 805.563 810.725 800.918 809.986 796.264C809.708 794.431 809.425 792.599 809.137 790.767L820.031 801.382C819.885 810.09 821.986 819.307 823.309 827.643ZM806.838 806.777C808.009 813.566 809.105 820.641 810.708 827.531L804.226 820.043C801.888 811.486 799.198 803.072 797.375 794.341C796.144 788.452 796.252 781.12 793.57 775.595L803.64 785.41C802.416 791.664 805.98 801.799 806.838 806.777ZM791.033 773.247C787.991 780.539 791.75 790.653 793.406 798.096C794.373 802.445 795.392 806.849 796.573 811.203L787.633 800.875C786.431 792.585 784.344 784.41 782.518 776.239C781.506 771.708 779.375 765.973 778.005 760.421L791.111 773.192C791.094 773.22 791.05 773.214 791.033 773.247ZM777.733 776.793C778.984 782.447 780.135 788.144 781.496 793.783L768.963 779.307C768.444 774.818 767.535 770.336 766.875 765.937C765.915 759.511 764.96 753.084 763.899 746.669L773.165 755.7C773.861 762.781 776.236 770.031 777.733 776.793ZM762.026 766.495C762.302 768.36 762.535 770.26 762.776 772.162L755.744 764.042C755.453 758.546 754.507 753.031 753.818 747.632C753.321 743.724 753.122 739.563 752.483 735.543L758.521 741.433C759.466 749.81 760.787 758.154 762.026 766.495ZM749.406 749.805C749.708 752.434 749.985 755.089 750.295 757.74L744.082 750.566C743.482 745.99 742.575 741.439 741.756 736.904C740.897 732.115 740.103 727.288 739.117 722.507L747.549 730.727C747.082 736.993 748.701 743.742 749.406 749.805ZM737.635 739.126C737.929 740.785 738.209 742.455 738.496 744.122L732.228 736.88C731.545 731.626 730.445 726.406 729.511 721.217C728.975 718.234 728.752 714.987 728.197 711.872L734.191 717.719C734.905 724.897 736.374 732.041 737.635 739.126ZM725.105 723.226C725.512 725.517 725.938 727.825 726.391 730.13L719.946 722.688C719.121 717.603 717.535 712.62 716.201 707.66C715.342 704.452 714.623 701.16 713.846 697.876L722.85 706.65C722.243 712.068 724.176 718.006 725.105 723.226ZM711.219 708.2C711.802 710.395 712.432 712.595 713.104 714.781L699.545 699.121C698.577 694.732 697.323 690.406 696.084 686.071C695.438 683.801 694.917 681.321 694.318 678.841L707.556 691.75C708.225 697.304 709.793 702.868 711.219 708.2ZM691.141 686.658C691.535 688.063 691.956 689.455 692.385 690.849L683.325 680.386C682.313 676.911 681.019 673.506 679.944 670.051C679.231 667.771 678.644 665.367 678.033 662.967L687.744 672.433C688.067 677.251 689.924 682.289 691.141 686.658ZM612.137 611.445L632.146 634.562C631.124 635.701 630.112 636.851 629.086 637.987C621.37 631.626 613.619 624.647 605.258 619.083C607.552 616.535 609.789 613.942 612.137 611.445ZM602.023 622.68C609.243 629.658 617.729 635.72 625.616 641.872C621.352 646.745 617.163 651.686 613.121 656.754C605.827 650.363 597.583 643.102 588.956 638.195C593.197 632.925 597.552 627.754 602.023 622.68ZM586.21 641.532C593.023 648.789 602.075 655.124 610.019 660.717C606.025 665.86 602.104 671.063 598.343 676.389C590.092 670.518 581.756 664.18 573.065 659.063C577.31 653.113 581.691 647.264 586.21 641.532ZM570.247 663.189C577.687 669.895 586.668 675.628 595.196 680.878C591.193 686.706 587.328 692.646 583.615 698.677C578.261 695.902 572.843 693.255 567.589 690.272C563.963 688.212 560.417 685.799 556.682 683.873C561.024 676.849 565.538 669.951 570.247 663.189ZM554.163 687.936C557.276 690.348 560.835 692.275 564.215 694.259C569.621 697.432 575.151 700.565 580.864 703.205C577.951 708.074 575.101 712.981 572.376 717.97C564.099 712.751 554.491 706.995 545.12 703.65C548.041 698.351 551.043 693.109 554.163 687.936ZM543.115 707.239C546.566 709.611 550.293 711.602 553.961 713.644C559.25 716.581 564.527 719.66 569.96 722.352C567.367 727.247 564.853 732.188 562.448 737.193C553.376 732.729 543.972 727.816 534.372 724.382C537.177 718.602 540.079 712.881 543.115 707.239ZM532.433 728.293C541.174 733.543 550.987 737.665 560.203 741.839C557.727 747.151 555.339 752.512 553.083 757.94C548.017 754.598 541.107 753.404 535.464 751.529C531.613 750.25 527.732 748.908 523.796 747.797C526.53 741.221 529.4 734.712 532.433 728.293ZM522.193 751.891C526.816 753.775 531.602 755.317 536.28 756.95C541.221 758.675 546.28 761.252 551.513 761.746C548.974 768.025 546.568 774.372 544.328 780.797C534.083 778.909 524.172 776.054 514.082 773.63C516.609 766.298 519.303 759.046 522.193 751.891ZM512.619 777.933C522.116 781.792 532.586 784.007 542.674 785.725C540.458 792.343 538.362 799.017 536.47 805.771C531.056 805.149 525.663 804.417 520.31 803.389C515.479 802.461 510.636 801.124 505.745 800.405C507.837 792.829 510.147 785.343 512.619 777.933ZM504.658 804.165C513.84 808.357 525.062 809.84 535.06 810.924C533.481 816.851 531.984 822.807 530.66 828.834C525.307 827.612 519.463 827.544 514.112 827.002C509.249 826.513 504.378 825.918 499.499 825.628C501.043 818.405 502.767 811.255 504.658 804.165ZM498.659 830.01C503.927 830.862 509.276 831.322 514.567 831.932C519.426 832.492 524.61 833.572 529.611 833.605C528.342 839.719 527.167 845.865 526.164 852.07C515.823 851.276 505.432 850.31 495.059 849.92C496.113 843.234 497.315 836.597 498.659 830.01ZM494.36 854.831C504.635 856.01 515.026 856.597 525.328 857.358C524.254 864.642 523.295 871.967 522.602 879.368C516.029 878.801 509.32 878.827 502.791 878.526C499.552 878.378 495.464 877.58 491.644 877.543C492.362 869.913 493.265 862.344 494.36 854.831ZM491.116 883.112C495.665 883.679 500.88 883.188 504.61 883.417C510.374 883.778 516.238 884.403 522.065 884.569C521.502 891.501 521.112 898.483 520.89 905.502L489.671 909.024C489.876 900.322 490.413 891.695 491.116 883.112ZM489.527 917.799L520.821 914.265C520.81 915.307 520.802 916.351 520.798 917.395L489.527 917.934C489.527 917.893 489.528 917.845 489.527 917.799ZM511.668 926.256C512.134 926.389 512.587 926.524 513.021 926.681C514.619 927.261 516.199 927.933 517.779 928.61L492.128 926.592L511.668 926.256ZM489.792 935.14L521.146 937.604C521.393 942.589 521.708 947.555 522.13 952.493C517.469 950.941 511.831 951.5 507.092 951.729C501.626 951.994 496.162 952.605 490.877 954.002C490.405 947.743 490.003 941.468 489.792 935.14ZM491.306 959.391C496.878 958.719 502.417 957.885 508.05 957.716C512.76 957.574 517.975 958.679 522.614 957.695C523.1 962.67 523.642 967.629 524.295 972.555C518.701 972.792 512.996 973.93 507.571 974.673C502.785 975.331 497.9 975.874 493.158 976.908C492.42 971.103 491.816 965.262 491.306 959.391ZM493.83 981.741C498.311 981.385 502.79 980.632 507.219 980.111C512.987 979.432 519.17 979.252 525.012 978.21C525.818 983.7 526.721 989.161 527.734 994.581C523.309 994.103 518.502 995.34 514.158 995.782C508.21 996.393 502.214 996.868 496.303 997.804C495.374 992.484 494.572 987.121 493.83 981.741ZM497.113 1002.17C502.287 1001.92 507.454 1001.4 512.607 1000.89C517.557 1000.41 523.703 1000.77 528.584 999.052C529.41 1003.21 530.276 1007.36 531.22 1011.47C520.889 1013 510.314 1015.37 500.56 1019.14C499.291 1013.52 498.164 1007.86 497.113 1002.17ZM501.467 1022.95C511.794 1020.98 522.052 1018.42 532.354 1016.26C533.773 1022.12 535.268 1027.96 536.929 1033.72C530.937 1035.11 525.08 1037.36 519.264 1039.27C515.101 1040.64 510.886 1041.9 506.808 1043.5C504.873 1036.72 503.089 1029.86 501.467 1022.95ZM508.285 1048.36C513.421 1047.05 518.454 1045.19 523.471 1043.58C528.433 1041.98 533.501 1040.57 538.32 1038.57C540.14 1044.62 542.051 1050.62 544.133 1056.55C534.315 1059.94 524.105 1064.21 515.057 1069.21C512.636 1062.33 510.377 1055.39 508.285 1048.36ZM516.58 1073.5C526.506 1070.62 536.714 1066.39 546.019 1061.84C548.366 1068.24 550.851 1074.57 553.5 1080.83C544.147 1085.86 534.405 1090.09 524.96 1094.89C521.984 1087.85 519.201 1080.72 516.58 1073.5ZM526.764 1099.3C536.845 1096.08 546.617 1091.1 555.731 1085.94C558.06 1091.25 560.462 1096.51 563 1101.71C557.63 1105.42 552.156 1108.97 546.491 1112.24C542.956 1114.29 539.015 1115.99 535.536 1118.24C532.469 1112.01 529.543 1105.69 526.764 1099.3ZM537.608 1122.22C542.021 1120.67 546.162 1118.05 550.206 1115.77C555.382 1112.84 560.342 1109.59 565.234 1106.23C567.551 1110.83 569.92 1115.4 572.4 1119.9C563.614 1125.96 554.159 1131.04 545.335 1136.99C542.648 1132.13 540.113 1127.18 537.608 1122.22ZM547.443 1140.63C557.277 1136.93 566.582 1130.68 574.957 1124.54C577.445 1128.92 579.989 1133.27 582.625 1137.56C578.561 1139.38 575.046 1143.09 571.598 1145.7C566.943 1149.23 560.707 1152.58 557.499 1157.58C554.022 1152.01 550.677 1146.36 547.443 1140.63ZM559.242 1160.3C564.78 1158.73 569.651 1153.87 574.158 1150.52C577.698 1147.88 582.332 1145.47 585.398 1142.08C588.368 1146.77 591.407 1151.41 594.555 1155.98C586.219 1162.5 577.647 1169.13 569.893 1176.36C566.226 1171.09 562.684 1165.73 559.242 1160.3ZM572.748 1180.39C581.376 1174.29 589.586 1167.3 597.644 1160.47C601.262 1165.58 604.955 1170.62 608.794 1175.55C604.165 1179.17 599.688 1183 595.17 1186.74C591.679 1189.64 587.383 1192.39 584.289 1195.9C580.333 1190.82 576.487 1185.65 572.748 1180.39ZM587.285 1199.75C591.04 1197.54 594.263 1194.21 597.604 1191.47C602.39 1187.54 607.259 1183.67 611.94 1179.61C615.316 1183.84 618.752 1188.03 622.283 1192.13C617.192 1196.59 612.591 1201.8 607.861 1206.57C605.263 1209.2 601.843 1211.69 599.828 1214.83C595.542 1209.89 591.357 1204.87 587.285 1199.75ZM602.94 1218.47C606.97 1216.13 610.301 1211.45 613.37 1208.44C617.496 1204.4 621.88 1200.47 625.777 1196.17C629.822 1200.74 633.972 1205.22 638.209 1209.61L617.979 1234.68C612.829 1229.4 607.832 1223.99 602.94 1218.47ZM635.496 1251.66L757.974 1148.31C771.147 1158.81 785.22 1168.21 800.087 1176.35C790.326 1196.99 787.618 1220.94 787.494 1244.27C786.269 1252.28 786.075 1260.49 788.051 1267.67C788.064 1267.96 788.073 1268.25 788.087 1268.54C788.115 1269.15 788.378 1269.56 788.742 1269.81C788.997 1270.55 789.288 1271.27 789.598 1271.99C789.509 1272.72 789.863 1273.33 790.377 1273.71C790.82 1274.56 792.196 1274.69 792.561 1273.76C792.788 1273.58 792.995 1273.35 793.123 1273.01C802.382 1248.46 811.566 1225.39 828.632 1204.95C831.838 1201.11 835.312 1197.53 838.88 1194.04C865.021 1203.72 892.863 1209.78 921.832 1211.56L933.708 1326.05C832.603 1324.54 740.014 1286.07 669.333 1223.18C666.667 1226.11 663.802 1228.85 660.732 1231.32C666.684 1236.64 672.843 1241.73 679.092 1246.71C674.384 1252.06 669.664 1257.4 665.005 1262.79C663.002 1265.11 659.887 1267.75 657.772 1270.68C650.163 1264.55 642.685 1258.26 635.496 1251.66ZM662.666 1274.6C665.252 1272.1 667.457 1268.7 669.462 1266.46C674.246 1261.11 678.965 1255.71 683.7 1250.32C687.504 1253.26 691.378 1256.11 695.285 1258.93C688.599 1267.33 682.417 1276.05 676.641 1285.1C671.917 1281.68 667.248 1278.19 662.666 1274.6ZM680.483 1287.9C686.246 1278.84 692.435 1270.07 699.017 1261.59C703.883 1265.02 708.844 1268.32 713.854 1271.55C707.658 1280.12 701.366 1289.33 696.651 1298.8C691.179 1295.28 685.784 1291.65 680.483 1287.9ZM701.284 1301.8C707.57 1293.17 713.141 1283.7 718.797 1274.63C724.436 1278.16 730.192 1281.5 736.007 1284.75C732.864 1290.04 729.793 1295.36 726.897 1300.79C725.116 1304.13 721.604 1308.94 720.553 1313.18C714.037 1309.54 707.6 1305.76 701.284 1301.8ZM724.748 1315.45C727.787 1311.37 729.885 1306.18 732.31 1301.85C735.036 1296.98 737.887 1292.19 740.75 1287.4C746.45 1290.49 752.25 1293.43 758.102 1296.26C754.862 1301.05 752.8 1307.13 750.375 1312.17C748.438 1316.19 745.355 1320.74 743.656 1325.2C737.264 1322.09 730.963 1318.85 724.748 1315.45ZM769.687 1336.89C762.599 1333.99 755.613 1330.89 748.708 1327.64C751.714 1323.84 753.731 1318.6 755.831 1314.6C758.385 1309.74 761.803 1304.34 763.417 1298.85C769.02 1301.47 774.699 1303.94 780.432 1306.32C775.954 1316.06 771.826 1326.24 769.687 1336.69C769.671 1336.76 769.695 1336.82 769.687 1336.89ZM773.684 1338.58C773.838 1338.4 773.987 1338.21 774.084 1337.97C778.029 1328.11 781.462 1318.19 785.748 1308.49C790.398 1310.34 795.116 1312.05 799.849 1313.74C797.766 1317.16 797.265 1321.4 796.191 1325.42C794.465 1331.88 792.281 1338.45 791.096 1345.07C785.237 1343.02 779.428 1340.87 773.684 1338.58ZM795.173 1346.47C797.208 1340.78 798.467 1334.75 800.012 1328.93C801.185 1324.52 803.324 1319.67 803.282 1315.02C809.964 1317.35 816.748 1319.45 823.575 1321.44C821.967 1325.24 820.892 1329.26 819.949 1333.32C818.466 1339.7 816.351 1346.31 815.309 1352.79C808.528 1350.83 801.818 1348.73 795.173 1346.47ZM819.68 1353.97C821.823 1349.69 822.694 1344.74 823.669 1340.11C824.921 1334.14 826.437 1328.47 828.334 1322.78C835.139 1324.67 842.028 1326.35 848.958 1327.91C847.844 1333.18 847.215 1338.62 846.42 1343.93C845.622 1349.24 844.274 1354.75 844.669 1360.13C836.249 1358.3 827.921 1356.26 819.68 1353.97ZM848.826 1361.04C850.817 1355.96 851.107 1350.12 851.868 1344.75C852.597 1339.55 853.528 1334.3 853.978 1329.05C860.648 1330.46 867.381 1331.71 874.166 1332.81C872.849 1337.88 872.181 1343.16 871.304 1348.32C870.39 1353.68 868.999 1359.2 868.749 1364.67C862.059 1363.6 855.416 1362.4 848.826 1361.04ZM873.689 1365.52C875.256 1360.23 875.732 1354.52 876.624 1349.12C877.476 1343.96 878.551 1338.75 878.955 1333.52C884.993 1334.42 891.083 1335.14 897.2 1335.79C896.995 1341.9 897.067 1348.02 896.737 1354.14C896.481 1358.8 895.681 1363.52 895.563 1368.21C888.218 1367.48 880.927 1366.59 873.689 1365.52ZM921.506 1369.92C914.547 1369.64 907.63 1369.19 900.748 1368.6C903.144 1358.67 902.985 1346.24 902.006 1336.25C908.374 1336.84 914.787 1337.27 921.227 1337.58C920.893 1343.12 921.138 1348.72 921.225 1354.24C921.308 1359.37 920.904 1364.76 921.506 1369.92ZM938.305 1370.37C934.361 1370.36 930.456 1370.17 926.533 1370.05C926.952 1365.17 926.397 1360.06 926.306 1355.24C926.199 1349.42 926.281 1343.52 925.732 1337.71C928.797 1337.83 931.87 1337.91 934.942 1337.98L938.305 1370.37ZM953.801 1330.23C954.044 1329.65 954.283 1329.06 954.528 1328.48C955.838 1325.38 957.466 1322.15 958.504 1318.84L954.413 1365.47L953.801 1330.23ZM962.771 1369.79L965.625 1337.26C968.15 1337.1 970.64 1336.83 973.154 1336.63C972.374 1340.87 973.331 1345.44 973.727 1349.77C974.309 1356.12 975.059 1362.52 976.319 1368.79C971.809 1369.14 967.316 1369.56 962.771 1369.79ZM981.423 1368.4C980.65 1362 979.635 1355.61 978.866 1349.2C978.353 1344.9 978.535 1340.34 977.19 1336.29C984.331 1335.65 991.402 1334.79 998.431 1333.8C999.78 1338.97 1000.16 1344.96 1001.16 1349.81C1002.26 1355.12 1003.37 1360.43 1004.62 1365.7C996.952 1366.81 989.212 1367.69 981.423 1368.4ZM1010.07 1364.81C1008.63 1357.03 1006.88 1349.28 1005.12 1341.56C1004.53 1338.93 1004.16 1335.87 1003.36 1333.04C1011.61 1331.78 1019.74 1330.21 1027.82 1328.48C1029.37 1339.05 1033.01 1349.77 1035.83 1359.96C1027.33 1361.81 1018.75 1363.45 1010.07 1364.81ZM1040.52 1358.93C1037.95 1348.7 1035.92 1337.55 1032.11 1327.56C1039.34 1325.94 1046.47 1324.06 1053.56 1322.07C1056.15 1332.53 1060.38 1342.83 1063.89 1352.95C1056.19 1355.17 1048.38 1357.13 1040.52 1358.93ZM1069.02 1351.46C1069.01 1351.41 1069.02 1351.36 1069 1351.3C1065.53 1341.24 1062.55 1330.55 1058.17 1320.77C1065.09 1318.74 1071.92 1316.5 1078.69 1314.12C1078.98 1317.74 1081.58 1322 1082.73 1324.78C1085.4 1331.3 1088.33 1337.75 1091.69 1343.96C1084.22 1346.64 1076.68 1349.17 1069.02 1351.46ZM1097 1341.99C1093.22 1333.69 1089.25 1325.47 1085.53 1317.14C1085.57 1317.22 1084.58 1314.66 1083.33 1312.51C1090.04 1310.07 1096.66 1307.45 1103.21 1304.68C1105.65 1314.92 1111.41 1324.96 1116.94 1334C1110.37 1336.81 1103.73 1339.48 1097 1341.99ZM1141.27 1322.76C1135.12 1325.84 1128.89 1328.79 1122.59 1331.6C1117.09 1322.25 1112.94 1312.11 1107.47 1302.83C1114.25 1299.87 1120.9 1296.7 1127.48 1293.4C1129.19 1299.23 1132.03 1304.76 1134.59 1310.23C1136.56 1314.45 1137.97 1319.51 1141.27 1322.76ZM1145.79 1320.45C1145.25 1315.69 1141.83 1311.08 1139.75 1306.91C1137.15 1301.71 1134.68 1296.19 1131.27 1291.44C1137.72 1288.13 1144.03 1284.6 1150.29 1280.98C1153.38 1291.06 1158.83 1301.48 1164.17 1310.41C1158.12 1313.89 1152 1317.24 1145.79 1320.45ZM1191.26 1293.44C1184.2 1298.21 1177 1302.75 1169.66 1307.12C1165.49 1297.45 1160.86 1287.05 1155.35 1278.01C1161.16 1274.54 1166.85 1270.9 1172.48 1267.15C1174.06 1270.47 1177.09 1273.53 1179 1276.27C1183.01 1282.04 1187 1287.86 1191.26 1293.44ZM1203.74 1260.82C1208.14 1265.46 1212.63 1270.04 1217.08 1274.64C1210.26 1279.98 1203.33 1285.19 1196.21 1290.15C1192.29 1284.23 1188.05 1278.5 1183.88 1272.77C1181.95 1270.11 1180.07 1266.33 1177.53 1263.77C1183.43 1259.72 1189.18 1255.49 1194.86 1251.16C1197.44 1254.66 1200.81 1257.71 1203.74 1260.82ZM1227.72 1241.52C1232.05 1245.92 1236.06 1250.55 1240.04 1255.27C1240.07 1255.3 1240.1 1255.31 1240.13 1255.34C1234.18 1260.67 1228.07 1265.82 1221.85 1270.83C1217.32 1266.19 1212.81 1261.52 1208.25 1256.93C1205.3 1253.95 1202.38 1250.58 1199.04 1247.88C1205.59 1242.74 1211.98 1237.42 1218.22 1231.92C1221.17 1235.32 1224.57 1238.32 1227.72 1241.52ZM1245.01 1250.94C1238.65 1242.99 1231.03 1233.95 1222.23 1228.35C1225.69 1225.22 1229.1 1222.05 1232.44 1218.79L1257.8 1238.73C1253.62 1242.89 1249.34 1246.94 1245.01 1250.94ZM1255.42 1225.79L993.477 1019.81L997.465 974.351L1255.42 1225.79ZM905.615 964.961C880.974 941.333 880.153 902.2 903.781 877.56C927.409 852.919 966.544 852.095 991.184 875.723C1015.83 899.354 1016.65 938.486 993.018 963.129C969.388 987.773 930.258 988.591 905.615 964.961ZM1209.83 940.064L1223.2 938.549C1221.54 964.063 1216.52 988.693 1208.52 1011.98C1209.4 1013.13 1210.19 1014.29 1211.04 1015.44C1202.52 1006.63 1194.62 997.165 1186.94 988.42C1184.76 985.925 1182.53 983.461 1180.28 981.02C1183.44 968.577 1185.66 955.767 1186.85 942.672L1202.15 940.936C1200.71 959.074 1197.47 976.726 1192.51 993.668C1194.57 995.702 1196.6 997.783 1198.55 999.944C1204.49 980.787 1208.3 960.733 1209.83 940.064ZM1182.95 1133.62C1184.2 1137.7 1185.04 1142.13 1186.35 1146.32L1174.68 1134.95C1172.89 1126.59 1170.52 1117.91 1167.56 1109.67L1179.54 1123.51C1180.7 1126.88 1181.9 1130.23 1182.95 1133.62ZM1187.22 1132.38L1196.09 1142.63C1197.04 1146.6 1198.13 1150.53 1199.13 1154.47C1199.61 1156.32 1200.04 1158.21 1200.49 1160.1L1191.27 1151.12C1191.38 1144.92 1189.16 1138.34 1187.22 1132.38ZM1011.2 965.024C1014.59 964.54 1017.99 964.125 1021.4 963.787C1021.84 967.617 1022.48 971.44 1022.99 975.201C1023.58 979.616 1023.9 984.261 1024.71 988.748L1011.68 976.054C1012.05 972.79 1011.89 968.872 1011.2 965.024ZM1007.19 971.672L1001.93 966.537C1003.36 966.276 1004.79 966.029 1006.23 965.795C1006.59 967.743 1006.89 969.708 1007.19 971.672ZM1027.51 974.344C1027.05 970.718 1026.69 967.024 1026.15 963.366C1029.4 963.109 1032.65 962.919 1035.92 962.797C1037.18 977.439 1040.39 992.692 1043.29 1006.86L1029.52 993.444C1029.75 987.11 1028.29 980.561 1027.51 974.344ZM1046.67 1009.23C1045.98 994.456 1044.43 977.521 1040.26 962.627L1049.22 972.975C1049.69 980.945 1051.5 988.896 1052.97 996.703C1054.46 1004.67 1055.73 1012.76 1057.49 1020.71L1046.41 1009.9C1046.53 1009.71 1046.68 1009.53 1046.67 1009.23ZM1150.8 1077.01L1140.66 1065.3C1147.83 1055.41 1154.26 1044.98 1159.94 1034.08C1164.42 1036.32 1168.89 1038.64 1173.4 1040.95C1166.82 1053.6 1159.27 1065.65 1150.8 1077.01ZM1180.23 1044.37C1184.17 1046.32 1188.16 1048.2 1192.24 1049.94C1184.36 1065.19 1175.17 1079.64 1164.76 1093.13L1155.92 1082.92C1165.06 1070.82 1173.19 1057.92 1180.23 1044.37ZM1135.97 1059.88L1100.69 1019.13C1120.36 1017.43 1137.24 1023.25 1153.66 1031.03C1148.42 1041.08 1142.52 1050.71 1135.97 1059.88ZM1057.58 995.827C1056.54 990.222 1055.62 984.481 1054.32 978.864L1066.66 993.111C1068.19 1002.01 1070.92 1010.78 1073.03 1019.53C1074.63 1026.19 1075.49 1033.55 1077.56 1040.27L1062.79 1025.87C1061.63 1015.79 1059.44 1005.79 1057.58 995.827ZM1077.11 1016.67C1075.79 1011.19 1074.46 1005.63 1072.79 1000.19L1089.02 1018.94C1090.5 1032.81 1094.28 1047.24 1098.6 1060.78L1082.26 1044.85C1082.67 1035.56 1079.26 1025.52 1077.11 1016.67ZM1095.28 1026.17L1107.28 1040.03C1109.35 1053.55 1113.98 1068.39 1119.37 1081.03L1105.08 1067.09C1102.49 1053.78 1099.51 1039.48 1095.28 1026.17ZM1125.41 1086.43C1123.51 1076.63 1119.92 1067.09 1117.03 1057.53C1116.07 1054.36 1115.13 1051.17 1114.16 1047.99L1125.79 1061.42C1125.79 1061.46 1125.77 1061.47 1125.77 1061.51C1126.59 1069.69 1129.8 1077.71 1132.21 1085.55C1133.36 1089.25 1134.35 1093.05 1135.52 1096.77L1125.41 1086.92C1125.43 1086.76 1125.44 1086.61 1125.41 1086.43ZM1135.8 1081.25C1134.41 1076.74 1133.06 1072.14 1131.27 1067.75L1145.99 1084.75C1146.94 1090.49 1148.32 1096.15 1149.67 1101.84C1150.51 1105.35 1151.07 1109.15 1151.97 1112.8L1141.39 1102.49C1140.43 1095.31 1137.93 1088.12 1135.8 1081.25ZM1154.04 1101.01C1153.3 1097.81 1152.56 1094.62 1151.78 1091.44L1159.95 1100.88C1161.47 1109.66 1164.08 1118.86 1167.21 1127.66L1157.68 1118.37C1157.53 1112.55 1155.34 1106.65 1154.04 1101.01ZM1196.23 1129.5C1196.14 1129.28 1196.08 1129.06 1195.98 1128.84C1195.8 1128.41 1195.49 1128.28 1195.15 1128.24L1170.24 1099.47C1181.55 1084.98 1191.51 1069.42 1199.96 1052.95C1225.53 1062.27 1253.11 1062.89 1279.25 1055.23C1282.74 1054.21 1281.07 1049.25 1277.83 1049.34C1252.06 1050.04 1232.05 1036.29 1214.7 1019.14C1224.01 993.412 1229.79 966.041 1231.49 937.608L1347.11 924.496C1345.75 1024.76 1308 1116.66 1246.16 1187.18L1196.23 1129.5ZM1174.51 974.962C1167.41 967.773 1159.82 961.098 1151.34 955.532C1147.48 953.003 1143.11 950.414 1138.51 948.15L1179.75 943.473C1178.7 954.189 1176.93 964.693 1174.51 974.962ZM1226.93 1037.7C1220.88 1034.77 1214.99 1031.49 1209.29 1027.83C1191.26 1016.22 1174.95 1001.81 1155.43 992.617C1139.07 984.907 1121.17 982.261 1103.61 978.685C1093.57 976.65 1083.45 974.321 1074.1 970.065C1069.02 967.755 1063.93 962.545 1058.66 959.786C1057.72 959.012 1056.75 958.255 1055.76 957.54L1122.34 949.987C1126.95 951.163 1131.53 952.447 1135.97 954.518C1144.03 958.288 1151.43 963.355 1158.28 969.006C1174.07 982.044 1186.54 998.48 1200.35 1013.47C1208.44 1022.27 1217.27 1030.71 1226.93 1037.7ZM1269.13 1227L1261.87 1219.93C1261.79 1219.4 1261.7 1218.88 1261.64 1218.35L1269.13 1227ZM1251.05 1206.11C1251.55 1207.77 1252.15 1209.44 1252.82 1211.11L1244.97 1203.46C1244.01 1200.21 1241.79 1196.98 1240.42 1194.2C1240.28 1193.92 1240.14 1193.63 1240 1193.35L1251.05 1206.11ZM1231.09 1183.06C1232.39 1187.21 1234.33 1191.12 1236.29 1195L1225.93 1184.9C1224.95 1181.06 1223.38 1177.27 1222.08 1173.69C1221.86 1173.07 1221.61 1172.46 1221.38 1171.84L1231.09 1183.06ZM1218.22 1173.95C1218.84 1175.61 1219.4 1177.33 1219.93 1179.06L1206.47 1165.93C1205.49 1161.2 1204 1156.51 1202.84 1151.91C1202.67 1151.22 1202.5 1150.53 1202.33 1149.84L1214.11 1163.44C1215.45 1166.96 1216.89 1170.43 1218.22 1173.95ZM1275.04 1220.53L1246.3 1187.33C1247.32 1188.43 1248.34 1189.53 1249.33 1190.57C1250.99 1192.32 1252.58 1194.15 1254.13 1196.01C1257.13 1192.6 1260.03 1189.1 1262.93 1185.59C1265.56 1188.58 1269.4 1190.69 1272.48 1193.23C1277.56 1197.4 1282.36 1201.91 1287.39 1206.15C1283.37 1211.02 1279.26 1215.83 1275.04 1220.53ZM1290.5 1202.27C1286.24 1197.9 1281.57 1193.93 1276.85 1190.08C1273.55 1187.4 1270.09 1183.71 1266.11 1181.82C1270.2 1176.75 1274.14 1171.56 1277.99 1166.31C1286.55 1172.55 1295.34 1178.49 1303.93 1184.72C1299.59 1190.67 1295.12 1196.53 1290.5 1202.27ZM1306.9 1180.55C1298.5 1174.15 1289.81 1167.86 1280.73 1162.46C1285.27 1156.1 1289.59 1149.58 1293.79 1142.97C1301.88 1149.48 1312.01 1154.74 1321.1 1159.44C1316.57 1166.63 1311.82 1173.65 1306.9 1180.55ZM1323.97 1154.92C1314.77 1149.82 1305.72 1143.74 1296.31 1139.02C1300.87 1131.66 1305.18 1124.14 1309.29 1116.5C1312.61 1119.37 1317.29 1121.16 1321.03 1122.93C1326.6 1125.57 1332.33 1127.85 1338.13 1129.93C1333.65 1138.41 1328.97 1146.77 1323.97 1154.92ZM1340.8 1124.89C1334.86 1122.77 1329 1120.51 1323.25 1117.9C1319.42 1116.17 1315.54 1113.6 1311.43 1112.44C1314.76 1106.06 1317.91 1099.58 1320.93 1093.02C1329.98 1098.27 1340.44 1101.78 1350.11 1105.66C1347.15 1112.16 1344.04 1118.56 1340.8 1124.89ZM1352.2 1101.1C1342.55 1097.13 1332.6 1092.31 1322.43 1089.73C1325.79 1082.26 1328.9 1074.66 1331.82 1066.98C1334.36 1069.13 1339.07 1070.48 1341.95 1071.77C1348.21 1074.57 1354.51 1077.31 1360.81 1080.03C1358.1 1087.14 1355.25 1094.18 1352.2 1101.1ZM1362.69 1074.87C1357.28 1072.56 1351.86 1070.26 1346.41 1068.03C1342.27 1066.33 1337.79 1063.97 1333.31 1063.02C1335.44 1057.24 1337.43 1051.39 1339.31 1045.48C1348.41 1050.54 1359.33 1053.45 1369.21 1055.83C1367.17 1062.24 1365 1068.59 1362.69 1074.87ZM1370.87 1050.52C1360.59 1047.87 1350.87 1043.54 1340.84 1040.34C1342.37 1035.34 1343.78 1030.28 1345.13 1025.21C1354.83 1029.03 1365.79 1031.29 1375.56 1033.83C1374.1 1039.44 1372.55 1045 1370.87 1050.52ZM1376.99 1028.42C1367.33 1025.56 1356.72 1021.77 1346.42 1020.01C1347.9 1014.12 1349.21 1008.15 1350.44 1002.17C1354.4 1003.37 1358.91 1003.62 1362.73 1004.14C1369.13 1005 1375.57 1005.62 1382.03 1005.8C1380.55 1013.42 1378.84 1020.95 1376.99 1028.42ZM1382.96 1000.68C1382.87 1000.66 1382.81 1000.62 1382.72 1000.61C1376.32 1000.16 1369.93 999.793 1363.57 998.992C1359.79 998.517 1355.55 997.317 1351.5 997.02C1352.93 989.596 1354.09 982.089 1355.12 974.538C1359.09 974.699 1363.1 974.595 1367.02 974.548C1373.64 974.468 1380.3 974.557 1386.91 974.108C1385.83 983.042 1384.55 991.914 1382.96 1000.68ZM1387.53 968.847C1387.29 968.773 1387.05 968.689 1386.77 968.677C1380.37 968.509 1373.94 968.89 1367.55 969.098C1363.64 969.224 1359.67 969.289 1355.74 969.596C1356.76 961.363 1357.55 953.064 1358.1 944.701C1368.61 944.906 1379.31 943.576 1389.69 942.304C1389.25 951.23 1388.48 960.061 1387.53 968.847ZM1389.89 936.103C1379.45 937.361 1368.82 937.869 1358.4 939.312C1358.68 933.947 1358.88 928.568 1358.94 923.148L1390.26 919.596C1390.27 925.131 1390.08 930.619 1389.89 936.103ZM1116.64 941.88C1114.76 941.812 1112.89 941.877 1111.05 942.145C1110.65 942.204 1110.31 942.392 1110 942.633L1047.12 949.767C1042.27 943.705 1037.3 937.755 1032.02 932.065C1028.37 928.132 1024.76 923.431 1020.13 920.658C1019.23 919.626 1018.35 918.565 1017.44 917.532L1387.63 911.147L1116.64 941.88ZM1389.85 902.398L1343.98 903.19C1340.71 901.611 1337.26 900.385 1334 898.785C1333.36 898.473 1332.72 898.097 1332.07 897.741L1389.85 902.252C1389.85 902.303 1389.85 902.349 1389.85 902.398ZM1389.49 893.496L1358.16 891.05C1357.88 886.847 1357.46 882.683 1357.06 878.51C1361.74 878.096 1366.43 877.659 1371.13 877.388C1376.7 877.067 1382.69 877.616 1388.17 876.404C1388.71 882.075 1389.15 887.772 1389.49 893.496ZM1387.7 872.001C1381.94 871.014 1375.68 871.894 1369.93 872.31C1365.49 872.63 1361.05 873.054 1356.62 873.6C1356.25 870.158 1355.76 866.754 1355.31 863.336C1358.71 863.622 1362.28 862.273 1365.76 861.633C1372.37 860.412 1379.49 859.855 1385.92 857.826C1386.57 862.533 1387.19 867.248 1387.7 872.001ZM1385.33 853.581C1378.88 853.668 1372.27 855.38 1366.01 856.627C1362.37 857.355 1358.06 857.524 1354.76 859.236C1354.08 854.491 1353.31 849.782 1352.47 845.092C1353 845.727 1354.15 846.054 1354.92 845.809C1364.27 842.807 1373.37 840.931 1383 839.687C1383.84 844.299 1384.64 848.923 1385.33 853.581ZM1382.01 834.404C1372.15 834.937 1362.19 837.209 1353.1 840.926C1352.52 841.167 1352.15 841.643 1351.95 842.2C1351.07 837.47 1350.12 832.767 1349.08 828.099C1354.38 827.246 1359.61 825.955 1364.86 824.817C1369.47 823.813 1374.92 823.544 1379.29 821.522C1380.24 825.8 1381.18 830.083 1382.01 834.404ZM1378.13 816.457C1373.8 816.501 1369.37 818.257 1365.13 819.202C1359.42 820.477 1353.6 821.539 1347.95 823.139C1347.15 819.739 1346.34 816.334 1345.46 812.964C1350.34 811.828 1355.15 810.253 1359.93 808.808C1364.94 807.297 1370.09 805.982 1374.99 804.113C1376.08 808.207 1377.15 812.314 1378.13 816.457ZM1373.73 799.454C1367.64 800.855 1361.62 803.117 1355.72 805.001C1351.9 806.224 1348.06 807.402 1344.33 808.83C1343.36 805.308 1342.45 801.763 1341.4 798.276C1351.19 796.788 1361.81 793.504 1370.89 789.874C1371.85 793.054 1372.83 796.239 1373.73 799.454ZM1369.45 785.039C1363.78 786.374 1358.19 788.348 1352.65 790.035C1348.42 791.321 1344.16 792.548 1340.09 794.225C1338.97 790.646 1337.83 787.085 1336.62 783.55C1346.41 781.331 1356.49 777.731 1365.58 773.364C1366.91 777.234 1368.22 781.118 1369.45 785.039ZM1363.88 768.585C1354.28 771.959 1344.62 775.581 1335.24 779.513C1333.61 774.893 1331.88 770.318 1330.09 765.77C1340.13 763.95 1350 760.382 1359.12 755.891C1360.77 760.098 1362.35 764.324 1363.88 768.585ZM1356.96 750.615C1347.57 754.934 1338.03 758.1 1328.21 761.084C1326.33 756.482 1324.41 751.911 1322.37 747.391C1327.3 745.569 1332.16 743.535 1337.02 741.531C1341.49 739.688 1346.67 738.446 1350.37 735.354C1352.64 740.398 1354.86 745.475 1356.96 750.615ZM1348.46 731.182C1344 731.643 1339.8 734.246 1335.65 735.988C1330.47 738.17 1325.22 740.24 1320.13 742.631C1317.95 737.949 1315.73 733.3 1313.39 728.72C1318.57 726.514 1323.51 723.775 1328.5 721.147C1332.38 719.107 1336.94 717.492 1340.36 714.688C1343.16 720.134 1345.88 725.615 1348.46 731.182ZM1337.87 709.849C1333.61 711.104 1329.71 714.005 1325.83 716.103C1320.86 718.789 1315.83 721.367 1311.1 724.448C1308.03 718.6 1304.81 712.839 1301.47 707.158C1306.02 706.387 1310.59 702.709 1314.45 700.698C1318.85 698.403 1324.56 696.644 1328.79 693.576C1331.91 698.939 1334.96 704.349 1337.87 709.849ZM1325.81 688.523C1320.85 689.959 1315.94 693.349 1311.73 695.581C1307.85 697.641 1302.15 699.655 1299.17 703.262C1295.12 696.541 1290.95 689.897 1286.53 683.425C1288.99 682.131 1291.23 680.289 1293.52 678.66C1299.23 674.616 1304.8 670.352 1310.37 666.115C1310.61 665.932 1310.74 665.726 1310.9 665.519C1316.06 673.046 1321.09 680.678 1325.81 688.523ZM1307.84 661.17C1307.34 661.227 1306.83 661.377 1306.35 661.742C1301.11 665.681 1295.86 669.623 1290.74 673.707C1288.43 675.551 1285.81 677.322 1283.74 679.484C1279.51 673.426 1275.1 667.507 1270.56 661.688C1279.26 656.843 1287.45 649.677 1294.34 643.068C1298.97 648.995 1303.5 655.006 1307.84 661.17ZM1290.78 638.636C1283.17 644.553 1274.55 650.735 1267.41 657.657C1262.61 651.652 1257.7 645.739 1252.58 640.005C1256.69 638.997 1260.32 635.319 1263.53 632.797C1268 629.281 1272.33 625.623 1276.59 621.875C1281.43 627.357 1286.2 632.919 1290.78 638.636ZM1272.38 617.202C1268.32 620.543 1264.27 623.89 1260.23 627.264C1256.78 630.143 1251.85 632.958 1249.9 637.136C1246.79 633.716 1243.67 630.296 1240.44 626.979C1239.29 628.358 1238.11 629.707 1236.9 631.038L1259.22 603.382C1263.7 607.905 1268.1 612.492 1272.38 617.202Z" fill="#211915" fill-opacity="0.7"/>
<path d="M526.458 1272.71C523.956 1271.04 521.368 1269.75 518.69 1268.82C516.01 1267.9 513.377 1267.4 510.776 1267.33C508.185 1267.26 505.936 1267.72 504.045 1268.69C500.432 1270.67 497.928 1273.17 496.533 1276.18C495.132 1279.2 494.538 1282.43 494.743 1285.88C494.862 1287.94 495.283 1290.03 495.844 1292.13C495.977 1292.89 496.136 1293.66 496.343 1294.43C499.357 1305.59 507.356 1315.1 515.717 1323.7C518.533 1327.08 521.353 1330.46 524.229 1333.68C528.046 1337.92 531.869 1342.12 535.711 1346.25C539.335 1350.14 542.918 1354.06 546.476 1357.98C544.273 1356.87 542.004 1355.79 539.682 1354.79C536.896 1353.33 534.118 1351.84 531.32 1350.41C526.409 1347.89 521.498 1345.26 516.591 1342.55C516.162 1342.14 515.681 1341.78 515.213 1341.41C514.675 1340.27 514.019 1339 513.203 1337.49C512.253 1335.76 511.256 1333.99 510.215 1332.2C509.176 1330.4 508.115 1328.73 507.039 1327.2C505.956 1325.66 504.975 1324.44 504.068 1323.55C503.183 1322.76 502.034 1322.02 500.617 1321.33C499.192 1320.65 497.777 1320.2 496.357 1319.99C494.947 1319.78 493.621 1319.92 492.394 1320.41C491.162 1320.9 490.302 1321.91 489.813 1323.47C489.408 1325.17 489.613 1326.81 490.445 1328.36C491.275 1329.92 492.382 1331.38 493.758 1332.75C495.146 1334.11 496.672 1335.34 498.334 1336.43C499.999 1337.52 501.461 1338.39 502.71 1339.06L512.102 1344.62C514.468 1350.44 518.222 1356.33 521.814 1361.76C518.484 1359.46 515.117 1357.21 511.663 1355.09C506.45 1351.9 500.909 1348.74 495.158 1345.94C494.998 1345.84 494.845 1345.74 494.685 1345.64C492.46 1344.32 489.994 1342.77 487.273 1341.01C484.553 1339.25 481.71 1337.64 478.736 1336.18C475.765 1334.72 472.735 1333.52 469.66 1332.55C466.582 1331.59 463.596 1331.16 460.693 1331.26C457.203 1331.53 454.348 1332.46 452.125 1334.06C449.901 1335.66 448.285 1337.65 447.271 1340.04C446.266 1342.42 445.886 1345.02 446.141 1347.83C446.287 1349.49 446.705 1351.09 447.263 1352.66C448.901 1358.75 453.363 1362.44 458.763 1364.39C459.174 1364.57 459.563 1364.78 459.989 1364.94C462.349 1365.77 464.752 1366.34 467.224 1366.6C469.689 1366.86 472.008 1366.92 474.174 1366.8C474.933 1366.65 475.5 1366.37 475.868 1365.97C476.242 1365.57 476.405 1365.11 476.374 1364.61C476.331 1364.12 476.13 1363.65 475.772 1363.2C475.406 1362.77 474.845 1362.48 474.089 1362.34C472.2 1362.76 470.191 1362.97 468.055 1362.98C467.009 1362.99 465.976 1362.93 464.958 1362.8C464.694 1362.74 464.441 1362.67 464.182 1362.6C461.583 1361.17 459.237 1359.31 457.128 1357.06C456.729 1356.39 456.333 1355.72 455.934 1355.05C458.723 1347.32 463.489 1344.51 470.264 1346.66C474.521 1347.27 478.996 1348.45 483.057 1349.74C484.587 1350.23 486.094 1350.81 487.6 1351.38C488.173 1351.74 488.775 1352.14 489.326 1352.47C493.173 1355 497.123 1357.59 501.169 1360.26C505.21 1362.92 509.255 1365.55 513.286 1368.16C517.318 1370.77 521.304 1373.27 525.238 1375.67C526.623 1376.52 527.986 1377.31 529.345 1378.1C534.878 1382.98 540.26 1388.05 545.698 1393.1C548.481 1395.68 551.723 1391.71 550.034 1388.87C550.074 1388.84 550.114 1388.81 550.157 1388.78C549.85 1388.46 549.535 1388.14 549.228 1387.81C541.209 1379.5 535.022 1371.17 529.966 1361C541.698 1364.36 552.92 1366.95 563.832 1372.97C565.784 1374.05 567.364 1372.53 567.602 1370.79C568.061 1370.54 568.535 1370.31 568.959 1370.04C556.648 1355.23 541.939 1341.86 528.623 1328.19C524.041 1323.49 519.009 1318.6 514.496 1313.34C513.828 1312.42 513.147 1311.52 512.488 1310.58C510.891 1308.36 509.031 1305.75 506.918 1302.75C506.569 1302.25 506.281 1301.74 505.952 1301.24C505.388 1300.19 504.821 1299.16 504.338 1298.08C501.177 1290.99 500.718 1280.65 509.526 1277.53C519.464 1274.02 527.088 1281.82 531.282 1289.74C531.218 1289.86 531.183 1289.99 531.109 1290.11C530.907 1290.83 530.942 1291.39 531.221 1291.82C531.5 1292.24 531.883 1292.55 532.363 1292.74C532.743 1292.89 533.137 1292.84 533.543 1292.78C534.983 1293.21 536.72 1291.93 536.214 1289.99C536.136 1289.69 536.031 1289.39 535.94 1289.08C536.249 1287.66 536.341 1286.24 536.006 1284.8C535.447 1282.44 534.349 1280.24 532.693 1278.23C531.046 1276.21 528.966 1274.37 526.458 1272.71ZM495.821 1328.27C494.762 1326.99 494.038 1325.45 493.641 1323.67C495.684 1323.45 497.448 1323.78 498.93 1324.65C500.415 1325.52 501.755 1326.67 502.954 1328.1C504.158 1329.53 505.233 1331.14 506.189 1332.93C507.144 1334.71 508.029 1336.4 508.837 1337.98C507.284 1336.93 505.707 1335.93 504.091 1334.96C502.479 1334.01 500.963 1332.98 499.545 1331.87C498.118 1330.76 496.884 1329.56 495.821 1328.27Z" fill="#211915" fill-opacity="0.7"/>
<path d="M1405.61 1336.9C1401.8 1334.39 1397.53 1332.72 1392.79 1331.91C1388.06 1331.1 1383.03 1330.82 1377.7 1331.06C1372.38 1331.31 1367.18 1331.44 1362.1 1331.43C1361.06 1331.43 1360.09 1331.33 1359.08 1331.29C1354.89 1330.97 1350.62 1330.26 1346.93 1328.52C1345.26 1327.64 1343.71 1326.59 1342.32 1325.43C1341.74 1324.85 1341.21 1324.2 1340.73 1323.49C1339.85 1320.66 1338.58 1317.97 1338.3 1314.94C1338.39 1313.03 1338.87 1311.17 1339.95 1309.59C1346.15 1300.48 1362.12 1319.97 1349.54 1321.89C1349.1 1321.96 1348.89 1322.68 1349.39 1322.84C1349.6 1322.9 1349.81 1322.93 1350.01 1322.99C1350.04 1323.2 1350.15 1323.41 1350.36 1323.56C1355.85 1327.41 1363.59 1324.24 1366.05 1318.21C1369.55 1309.66 1362.97 1300.87 1355.27 1297.71C1347.14 1294.38 1338.5 1297.17 1334.24 1305C1333.88 1305.67 1333.57 1306.4 1333.3 1307.16C1332.58 1308.15 1331.94 1309.22 1331.52 1310.46C1326.92 1324.02 1339.86 1334.73 1351.59 1337.47C1355.74 1338.44 1359.97 1338.68 1364.21 1338.8C1367.35 1339.23 1370.48 1339.7 1373.5 1340.47C1386.36 1343.75 1411.33 1357.31 1403.92 1372.09C1403.11 1373.03 1402.29 1373.95 1401.31 1374.79C1398.84 1376.91 1396.06 1378.35 1392.95 1379.11C1390.85 1379.62 1388.61 1379.71 1386.24 1379.44C1380.64 1377.89 1375.67 1374.07 1371.68 1369.52C1374.28 1369.46 1376.92 1368.91 1379.26 1367.83C1383.8 1366.24 1387.52 1362.32 1388.12 1357.43C1388.92 1350.85 1383.79 1346.76 1378.57 1346.9C1378.31 1346.45 1377.93 1346.03 1377.3 1345.69C1374.33 1345.98 1371.85 1347.01 1369.87 1348.79C1367.89 1350.57 1366.45 1352.7 1365.53 1355.17C1364.62 1357.65 1364.23 1360.25 1364.37 1362.98C1364.4 1363.48 1364.54 1363.92 1364.61 1364.4C1359.39 1362.49 1354.75 1358.52 1351.05 1354.59C1350.32 1353.81 1348.86 1354.42 1349.31 1355.55C1351.96 1362.32 1358.75 1367.11 1365.86 1368.82C1366.1 1369.35 1366.26 1369.92 1366.56 1370.43C1368.39 1373.59 1370.78 1376.21 1373.72 1378.27C1376.66 1380.34 1379.81 1381.76 1383.17 1382.55C1384.95 1382.96 1386.76 1383.18 1388.6 1383.25C1391.9 1383.92 1395.36 1384 1398.92 1383.2C1407.59 1381.25 1414.98 1372.73 1415.22 1363.83C1415.37 1362.76 1415.45 1361.7 1415.39 1360.66C1415.57 1359.51 1415.73 1358.35 1415.77 1357.18C1415.84 1354.28 1415.38 1351.55 1414.39 1348.97C1412.35 1343.44 1409.42 1339.41 1405.61 1336.9ZM1375.13 1353.15C1383.43 1352.43 1382.75 1361.32 1377.09 1364.28C1375.19 1364.61 1373.23 1364.59 1371.3 1364.38C1369.92 1364.23 1368.71 1363.99 1367.47 1364.02C1367.32 1359.07 1370.12 1353.59 1375.13 1353.15Z" fill="#211915" fill-opacity="0.7"/>
<path d="M1394.8 485.91C1390.8 483.481 1386.2 482.381 1381.02 482.597C1378.57 482.724 1376.19 483.37 1373.85 484.463C1372.91 484.689 1371.98 484.96 1371.07 485.328C1368.01 482.348 1364.49 479.883 1361.04 478.148C1360.35 477.798 1359.55 478.752 1360.08 479.357C1362.41 482.037 1365.23 484.42 1367.85 486.957C1357.88 493.498 1356.57 508.171 1365.43 516.487C1371.2 521.909 1377.38 516.896 1379.52 509.999C1381.7 502.977 1379.51 496.077 1375.36 490.298C1381.39 489.759 1388.46 492.745 1391.74 497.264C1396.83 504.276 1396.99 513.912 1393.52 521.603C1387.51 534.952 1372.64 541.461 1358.73 537.562C1354.09 536.264 1349.62 533.712 1345.95 530.413C1344.8 528.311 1343.81 526.046 1343.09 523.469C1341.54 517.846 1341.46 512.302 1342.3 506.564C1342.58 504.595 1343.83 502.106 1343.13 500.041C1343.03 499.735 1342.92 499.516 1342.82 499.261C1343.03 499.037 1343.25 498.811 1343.43 498.624C1343.53 498.512 1343.64 498.294 1343.74 497.955C1343.8 497.901 1343.82 497.844 1343.82 497.788C1343.82 497.732 1343.84 497.678 1343.9 497.618L1343.88 496.626L1343.8 496.546L1343.53 495.803C1343.19 495.479 1342.91 495.266 1342.69 495.161C1342.24 494.952 1341.72 494.879 1341.12 494.947C1341.01 494.952 1340.92 494.977 1340.87 495.034C1340.76 495.036 1340.69 495.053 1340.66 495.082C1340.64 495.11 1340.57 495.125 1340.46 495.127C1340.35 495.239 1340.24 495.297 1340.13 495.302C1339.83 495.608 1339.46 495.973 1339.1 496.334C1337.78 496.095 1336.11 496.585 1334.38 497.223C1326.36 498.226 1318.91 498.616 1311.9 492.566C1310.83 491.639 1309.91 490.647 1309.1 489.628C1311.6 488.214 1313.94 486.629 1316.1 484.832C1319.87 481.69 1322.49 478.417 1323.97 475.017C1325.44 471.623 1325.48 468.335 1324.09 465.161C1322.7 461.99 1319.28 459.408 1313.83 457.425C1312.45 457.4 1310.98 457.54 1309.45 457.85C1307.91 458.16 1306.56 458.738 1305.42 459.59C1302.71 461.857 1300.57 464.29 1298.99 466.889C1297.42 469.491 1296.36 472.174 1295.81 474.951C1295.26 477.723 1295.15 480.51 1295.49 483.319C1295.82 486.131 1296.54 488.817 1297.64 491.389C1291.32 492.906 1285.39 492.784 1279.83 491.019C1279.17 491.142 1278.71 491.488 1278.44 492.046C1278.18 492.602 1278.11 493.186 1278.23 493.79C1278.35 494.396 1278.65 494.901 1279.13 495.303C1279.61 495.706 1280.26 495.82 1281.08 495.634C1284.02 496.184 1287 496.3 1290 495.984C1293 495.672 1295.98 495.047 1298.94 494.099C1300.38 496.775 1302.17 499.22 1304.31 501.438C1306.46 503.654 1308.85 505.511 1311.47 506.999C1314.1 508.49 1316.92 509.548 1319.94 510.177C1322.97 510.806 1326.05 510.836 1329.18 510.269C1329.4 510.269 1329.54 510.236 1329.59 510.178C1328.23 516.229 1328.25 521.761 1329.65 526.783C1331.06 531.803 1333.45 536.101 1336.84 539.671C1340.23 543.244 1344.4 546 1349.35 547.941C1354.31 549.881 1359.66 550.737 1365.39 550.504C1369.42 550.254 1373.22 549.444 1376.81 548.072C1380.4 546.699 1383.73 544.915 1386.8 542.73C1389.87 540.539 1392.68 538.011 1395.22 535.139C1397.75 532.267 1399.93 529.214 1401.73 525.973C1404.87 520.441 1406.54 515.039 1406.74 509.761C1406.93 504.482 1405.99 499.799 1403.91 495.697C1401.83 491.603 1398.79 488.342 1394.8 485.91ZM1374.63 496.134C1376.02 499.577 1377.08 513.76 1369.62 513.374C1369.44 513.365 1369.26 513.3 1369.09 513.202C1368.58 512.395 1368.04 511.584 1367.48 510.766C1365.93 506.74 1365.31 499.362 1365.56 498.335C1366.51 494.58 1368.8 492.297 1371.68 491.149C1372.86 492.67 1373.89 494.303 1374.63 496.134ZM1307.96 474.184C1308.99 471.767 1310.7 469.317 1313.14 468.125C1314.9 467.834 1317.1 468.373 1318.55 469.208C1319.74 469.896 1320.57 470.928 1321.47 471.902C1321.18 473.764 1320.64 475.683 1319.59 477.719C1318.13 480.54 1315.9 482.888 1312.91 484.774C1311.21 485.892 1309.5 486.867 1307.78 487.734C1306.46 483.277 1306.06 478.642 1307.96 474.184ZM1302.08 490.137C1300.52 486.468 1299.72 482.953 1299.71 479.585C1299.72 478.436 1299.88 477.284 1300.12 476.128C1299.99 480.793 1301.07 485.545 1303.14 489.7C1302.79 489.827 1302.44 490.015 1302.08 490.137ZM1398.74 494.568C1399.89 496.377 1400.77 498.22 1401.39 500.096C1400.41 497.701 1399.16 495.336 1397.39 493.066C1395.03 490.033 1391.84 487.637 1388.31 486.031C1388.85 486.211 1389.38 486.368 1389.92 486.598C1393.35 488.041 1396.29 490.699 1398.74 494.568Z" fill="#211915" fill-opacity="0.7"/>
<path d="M493.623 418.819C493.508 418.773 493.39 418.729 493.23 418.781C480.732 422.801 483.075 437.777 488.416 446.859C491.593 452.264 495.887 456.816 500.276 461.258C501.701 463.079 503.164 464.831 504.63 466.491C506.836 468.991 509.161 471.3 511.545 473.521C511.571 473.551 511.595 473.578 511.621 473.608C511.598 473.601 511.569 473.594 511.549 473.584C502.415 469.919 493.294 466.219 484.09 462.721C481.043 461.565 477.934 460.23 474.774 458.98C474.604 458.907 474.44 458.839 474.27 458.766C468.974 456.446 464.031 453.731 459.446 450.617C457.518 450.563 456.494 450.918 456.365 451.672C456.333 451.861 456.399 452.073 456.416 452.274C454.535 452.426 452.877 454.123 454.016 456.358C463.336 474.616 480.29 487.177 494.346 501.579C500.875 508.268 506.816 515.596 510.92 524.049C514.294 531.006 513.599 540.599 517.963 546.644C517.954 546.695 517.955 546.751 517.941 546.802C517.968 546.779 517.991 546.75 518.013 546.727C518.092 546.832 518.143 546.956 518.221 547.061C518.281 547.139 518.44 547.161 518.512 547.08C519.265 546.222 519.797 545.251 520.229 544.233C520.526 543.83 520.839 543.452 521.107 543.001C522.027 541.459 522.568 539.927 522.91 538.395C522.643 534.169 521.899 529.899 520.558 525.571C519.127 520.936 517.205 516.33 514.799 511.749C512.391 507.176 509.618 502.687 506.489 498.289C503.356 493.889 500.029 489.681 496.498 485.676C493.394 482.156 490.173 478.873 486.874 475.76C497.042 479.564 507.687 482.58 517.547 486.648C530.44 491.973 543.274 497.881 557.207 499.939C559.337 500.251 560.521 496.872 558.317 496.185C542.015 491.117 527.47 481.49 515.53 469.391C505.964 459.7 492.036 444.156 495.354 429.341C496.063 427.083 496.933 424.875 497.911 422.825C499.294 419.958 495.852 417.769 493.623 418.819Z" fill="#211915" fill-opacity="0.7"/>
</svg>
