<svg width="1920" height="1080" viewBox="0 0 1920 1080" fill="none" xmlns="http://www.w3.org/2000/svg">
<g clip-path="url(#clip0_351_6531)">
<rect width="1920" height="1080" fill="#2C3148"/>
<path d="M975.776 577.726C995.362 557.301 994.681 524.865 974.256 505.28C953.831 485.694 921.395 486.374 901.809 506.8C882.224 527.225 882.904 559.661 903.33 579.246C923.755 598.832 956.19 598.152 975.776 577.726Z" fill="#211915"/>
<path d="M1305.93 143.123L1305.57 143.426L1305.26 143.132L1305.03 143.371L1304.74 143.142L1302.28 146.204L1240.72 198.141C1159.93 125.14 1053.48 80.2137 937.091 78.5516L927.815 2.95773L927.674 -5.31678L918.975 -5.16488L918.974 -5.07062L918.924 -4.3261L918.17 -4.23133L918.651 -0.322881L913.196 78.8214C795.792 83.1283 689.719 131.154 610.462 206.869L560.785 167.807L547.801 155.148L546.45 156.536L546.072 156.238L543.602 159.376L540.671 161.912L541.162 162.483L540.693 163.081L543.784 165.516L593.945 223.46C517.143 304.552 469.366 413.196 466.974 532.431L389.348 541.199L385.433 540.892L385.375 541.649L384.608 541.737L385.058 545.704L384.757 549.57L385.505 549.629L385.592 550.386L389.501 549.945L391.113 550.069L391.113 550.099L391.457 550.094L467.101 556.039C470.767 677.148 520.93 786.392 600.117 866.833L556.815 920.485L553.805 923.021L554.082 923.351L553.816 923.629L554.078 923.881L553.827 924.189L556.842 926.626L559.417 929.678L559.777 929.375L560.084 929.669L560.313 929.43L560.595 929.661L563.065 926.602L615.838 882.073C698.603 958.623 809.161 1005.32 930.048 1005.35L937.188 1074.19L936.845 1078.12L937.6 1078.18L937.677 1078.93L941.534 1078.53L945.511 1078.88L945.576 1078.11L946.333 1078.03L946.327 1077.97L946.362 1077.97L946.238 1070.59L952.006 1004.86C1071.75 999.292 1179.44 948.21 1258.5 868.789L1304.56 904.999L1317.54 917.658L1318.89 916.275L1319.27 916.57L1321.74 913.433L1324.67 910.899L1324.18 910.331L1324.65 909.733L1321.55 907.295L1274.04 852.412C1348.87 769.609 1394.2 659.851 1393.7 540.056L1469.09 531.505L1473 531.436L1474.97 531.588L1475.02 530.828L1475.76 530.743L1475.33 526.895L1475.64 522.917L1474.87 522.859L1474.79 522.102L1470.88 522.546L1393 516.462C1386.57 398.734 1336.17 292.881 1258.16 214.74L1308.52 152.331L1311.53 149.793L1311.26 149.465L1311.52 149.19L1311.26 148.941L1311.51 148.63L1308.49 146.193L1305.93 143.123ZM1230.38 206.867L1207.21 226.421C1204.79 224.3 1202.31 222.252 1199.85 220.18C1199.97 220.243 1200.11 220.289 1200.23 220.243C1204.69 218.724 1206.82 213.177 1209.33 209.46C1212.28 205.085 1215.38 200.819 1218.45 196.533C1222.48 199.919 1226.47 203.349 1230.38 206.867ZM1219.86 502.922C1218.01 489.13 1215.18 475.659 1211.47 462.555C1221.79 458.502 1231.3 452.632 1239.55 444.933C1251.19 434.063 1264.14 417.074 1264.79 400.5C1264.9 397.681 1261.37 396.396 1259.97 399.078C1259.77 399.467 1259.61 399.873 1259.41 400.264C1258.69 400.126 1257.91 400.209 1257.23 400.62C1241.32 410.118 1226.8 415.497 1208.02 415.901C1189.67 416.299 1171.54 412.603 1153.35 410.82C1149.01 410.397 1144.58 410.098 1140.14 409.952C1134.54 401.081 1128.44 392.565 1121.8 384.501C1120.4 386.511 1118.93 388.391 1117.41 390.182C1122.51 396.461 1127.2 403.076 1131.65 409.868C1118.84 410.121 1106.09 412.084 1094.77 417.188L1131.09 372.184C1141.37 384.33 1150.56 397.415 1158.54 411.297C1161.46 411.213 1164.37 411.167 1167.28 411.195C1158.36 395.095 1147.83 380.021 1135.96 366.141L1144.42 355.667C1159.33 372.793 1172.24 391.722 1182.76 412.09C1186.1 412.437 1189.4 412.905 1192.68 413.506C1181.18 390.137 1166.67 368.532 1149.65 349.187L1223.24 258.006C1287.73 324.764 1329.73 413.497 1336.64 512.041L1219.86 502.922ZM1324.26 525.281L1307.71 525.567C1305.37 524.262 1303.04 522.941 1300.68 521.664C1298.01 520.217 1295.34 518.738 1292.64 517.331L1313.15 518.932C1315.65 521.372 1319.24 522.97 1322.3 524.393C1322.94 524.693 1323.6 524.989 1324.26 525.281ZM1126.52 514.599C1121.52 510.633 1116.38 506.847 1111.17 503.16L1127.23 504.415C1133.67 509.295 1140.96 513.362 1147.6 517.747C1152.63 521.056 1157.66 524.779 1162.89 528.069L1142.59 528.418C1139.03 522.779 1131.23 518.332 1126.52 514.599ZM1042.45 482.008L1084.86 429.454C1112.43 411.282 1146.92 417.081 1178.65 420.846C1198.95 423.254 1224.79 424.952 1244.86 416.078C1214.58 440.993 1168.81 428.123 1132.81 436.805C1099.18 444.912 1076.05 474.645 1042.45 482.008ZM1133.85 528.571L1117.72 528.846C1111.03 522.035 1103.33 516.084 1095.8 510.294C1092.11 507.456 1088.18 504.111 1084.06 501.038L1100.37 502.31C1107.8 507.363 1115.13 512.549 1122.21 518.096C1125.67 520.809 1129.63 525.187 1133.85 528.571ZM1068.03 508.101C1064.29 505.152 1060.49 501.95 1056.58 498.895L1072.74 500.155C1078.65 504.94 1085.82 508.805 1091.71 513.244C1098.34 518.246 1104.59 523.764 1111.07 528.965L1092.16 529.291C1085.65 521.007 1076.26 514.572 1068.03 508.101ZM1190.73 468.114C1191.95 467.915 1193.17 467.706 1194.39 467.477C1197.54 466.886 1200.62 466.093 1203.66 465.204C1207.05 477.253 1209.66 489.618 1211.44 502.263L1197.91 501.211C1196.2 489.929 1193.79 478.886 1190.73 468.114ZM1190.09 500.598L1179.62 499.779C1177.87 498.955 1176.1 498.249 1174.29 497.67C1172.65 488.691 1170.53 479.888 1167.96 471.277C1172.95 470.503 1178.01 469.906 1183.09 469.234C1186.04 479.44 1188.39 489.909 1190.09 500.598ZM1138.44 505.287L1153.83 506.489C1159.95 510.119 1166.03 513.834 1171.97 517.755C1176.47 520.718 1180.98 524.466 1185.69 527.677L1171.39 527.923C1164.91 522.58 1157.34 518.278 1150.45 513.674C1146.47 511.015 1142.5 508.084 1138.44 505.287ZM1147.62 497.278C1147.59 497.258 1147.56 497.238 1147.52 497.219C1146.77 496.809 1146.01 496.84 1145.37 497.104L1117.78 494.95C1124.22 491.353 1130.24 486.254 1134.58 483.194C1142.88 477.357 1151.78 474.4 1161 472.518C1163.6 481.098 1165.77 489.864 1167.42 498.825L1147.62 497.278ZM1184.6 508.896C1189.64 512.012 1194.98 514.761 1199.76 517.604C1205.11 520.789 1210.5 524.109 1216.02 527.152L1193.9 527.538C1188.52 521.991 1181.01 517.771 1174.85 513.666C1171.57 511.474 1168.21 509.421 1164.86 507.353L1184.6 508.896ZM1200.69 512.671C1199.19 511.765 1197.67 510.791 1196.15 509.797L1210.77 510.937C1216.29 514.07 1222 516.883 1227.68 519.659C1232.11 521.83 1236.64 524.444 1241.28 526.717L1224.9 526.999C1217.09 521.857 1208.67 517.461 1200.69 512.671ZM1221.59 511.784L1241.63 513.347C1245.94 516.18 1250.87 518.169 1255.54 520.269C1258.51 521.604 1261.47 522.95 1264.45 524.278C1265.62 524.798 1267.56 525.457 1269.56 526.228L1250.89 526.548C1244.74 522.448 1237.34 519.629 1230.91 516.406C1227.82 514.854 1224.71 513.305 1221.59 511.784ZM1252.47 514.194L1283.62 516.629C1288.35 519.972 1293.63 522.991 1299 525.719L1276.84 526.1C1273.46 522.742 1267.12 521.151 1263.25 519.366C1259.71 517.739 1256.13 515.874 1252.47 514.194ZM1026.57 487.823L988.345 484.839L1239.54 223.933L1026.57 487.823ZM1086.74 529.384L1068.77 529.695C1062.78 524.01 1054.94 519.579 1048.57 514.656C1042.4 509.882 1035.94 502.873 1028.71 499.024L1030.47 496.859L1045.94 498.07C1051.71 502.677 1058.09 506.729 1063.83 511.184C1071.39 517.047 1078.66 524.102 1086.74 529.384ZM1030.5 516.868C1027.49 514.352 1024.22 511.302 1020.65 509.014L1025.81 502.622C1030.69 508.719 1038.42 513.367 1044.28 517.852C1049.14 521.569 1054.3 526.126 1059.77 529.848L1044.34 530.116C1040.39 525.155 1035.28 520.862 1030.5 516.868ZM1037.52 530.231L1015.96 530.604C1013.76 528.968 1011.51 527.375 1009.41 525.634C1008.99 525.289 1008.57 524.908 1008.14 524.51L1017.11 513.401C1020.16 515.975 1023.67 518.18 1026.61 520.576C1030.33 523.619 1033.86 527.031 1037.52 530.231ZM1057.53 370.738C1053.54 371.901 1049.49 373.04 1045.47 374.278L1061.07 361.118C1071.04 359.262 1080.74 355.473 1090.33 352.321C1096.39 350.33 1103.38 348.819 1109.66 346.291L1095.31 361.199C1082.55 363.471 1069.94 367.112 1057.53 370.738ZM1089.2 367.543L1074.19 383.137C1062.24 385.639 1050.42 388.894 1038.74 392.4C1031.2 394.667 1023.09 396.797 1015.4 399.653L1035.49 382.704C1043.42 380.705 1051.2 377.975 1059.02 375.708C1069.02 372.804 1079.16 370.33 1089.2 367.543ZM1035.73 371.117C1038.67 365.474 1040.63 359.174 1041.94 353.028C1043.57 345.376 1044.63 337.922 1045.85 330.601C1053.39 334.733 1060.71 339.224 1067.74 344.105L1035.73 371.117ZM1086.92 348.125C1081.32 349.944 1075.57 351.638 1069.95 353.625L1090.02 336.684C1102.42 335.377 1115.71 331.674 1127.99 327.251L1115.94 339.766C1106.3 340.144 1095.85 345.231 1086.92 348.125ZM1085.13 329.431L1073.24 339.463C1064.9 333.583 1056.18 328.236 1047.13 323.392C1048.12 318.294 1049.33 313.253 1050.96 308.241C1062.91 314.442 1074.32 321.538 1085.13 329.431ZM1053.67 301.06C1054.63 298.82 1055.68 296.585 1056.89 294.352C1057.81 292.668 1058.76 290.995 1059.71 289.323C1074.42 296.889 1088.39 305.701 1101.49 315.624L1091.12 324.373C1079.32 315.633 1066.81 307.817 1053.67 301.06ZM1097.98 329.973L1111.22 318.801C1122.37 317.077 1133.94 313.557 1144.89 309.702L1134.47 320.528C1122.51 322.976 1109.75 325.93 1097.98 329.973ZM1120.5 310.97L1132.94 300.466C1139.81 298.624 1146.44 295.416 1153.17 293.23C1156.27 292.229 1159.9 291.615 1163.28 290.6L1152.08 302.228C1141.79 304.573 1130.81 307.311 1120.5 310.97ZM1150.59 289.621C1148 290.444 1145.32 291.323 1142.66 292.272L1158.74 278.7C1162.5 277.913 1166.22 276.929 1169.92 276.057C1173.05 275.319 1176.21 274.621 1179.37 273.89L1168.08 285.62C1162.4 285.032 1155.71 287.988 1150.59 289.621ZM1171.92 271.19C1170.05 271.601 1168.15 271.977 1166.25 272.363L1179.29 261.365C1182.58 260.639 1185.84 259.735 1189.07 258.893C1191.1 258.365 1193.2 257.86 1195.32 257.324L1184.58 268.472C1180.34 269.271 1176.13 270.264 1171.92 271.19ZM1189.26 254.505C1188.4 254.722 1187.54 254.915 1186.68 255.124L1200.45 243.508C1204.56 242.232 1208.65 240.777 1212.71 239.261L1200.91 251.516C1196.96 252.266 1193.05 253.55 1189.26 254.505ZM1107.94 310.179C1094.15 299.589 1079.39 290.229 1063.84 282.199C1070.48 270.795 1076.94 259.288 1079.28 246.099C1081.91 231.36 1079.38 216.431 1072.96 203.051C1072.69 200.995 1072.31 198.915 1071.73 196.803C1070.87 193.72 1065.88 194.999 1066.29 198.112C1066.36 198.635 1066.35 199.129 1066.4 199.647C1065.37 200.417 1064.83 201.692 1065.62 203.228C1066.02 204.004 1066.34 204.802 1066.71 205.583C1066.54 230.969 1048.04 249.99 1030.01 267.323C1007.25 259.022 983.195 253.477 958.251 251.09L943.846 133.649C1040.8 136.826 1129.5 174.158 1198.1 234.113L1107.94 310.179ZM1023.39 273.675C1021.89 275.119 1020.41 276.559 1018.96 277.992C1016.92 280.011 1014.78 282.039 1012.6 284.089C995.998 278.772 978.726 275.037 960.939 273.015L959.275 259.468C981.484 261.732 1002.96 266.559 1023.39 273.675ZM1006.17 290.054C1001.91 293.993 997.564 298.034 993.341 302.209C983.693 299.641 973.845 297.599 963.786 296.214L961.889 280.763C977.079 282.596 991.877 285.728 1006.17 290.054ZM987.744 307.91C979.958 316.175 973.048 325.046 968.521 334.844L964.663 303.388C972.485 304.515 980.181 306.034 987.744 307.91ZM1000.01 305.898C1013.13 293.063 1026.22 280.202 1039.26 267.272C1046.31 260.265 1053.79 252.464 1059.96 243.955C1059.18 247.004 1058.32 250.024 1057.14 252.939C1053.31 262.371 1048.33 271.257 1042.89 279.842C1032.33 296.487 1019.66 311.625 1008.29 327.693C993.954 347.945 978.653 372.994 976.363 398.784L969.697 344.446C976.518 328.896 988.044 317.604 1000.01 305.898ZM1005.52 407.99C1017.84 405.287 1029.96 399.782 1042.03 396.156C1050.79 393.525 1059.63 391.274 1068.49 389.047L1051.57 406.621C1039.98 408.889 1028.53 413.05 1017.36 416.444C1005.99 419.896 993.537 422.734 982.419 427.479L1005.52 407.99ZM1018.79 421.224C1027.37 418.531 1036.35 416.275 1045.02 413.424L1026.55 432.61C1019.18 432.042 1011.55 434.677 1004.33 436.058C996.803 437.502 988.841 438.461 981.539 441.005L980.571 433.109C993.493 430.587 1006.3 425.142 1018.79 421.224ZM1003.68 441.052C1009.43 439.9 1015.91 439.324 1021.76 437.581L1008.41 451.448C1008.15 451.278 1007.84 451.167 1007.48 451.195C1002 451.636 996.656 453.401 991.38 454.866C988.793 455.582 986.076 456.189 983.516 457.106L982.005 444.789C989.287 444.43 996.6 442.474 1003.68 441.052ZM992.82 459.668C996.395 458.666 1000.04 457.737 1003.55 456.494L993.007 467.453C990.61 467.679 988.291 468.173 985.97 468.835C985.646 468.929 985.317 469.027 984.986 469.123L984.116 462.03C987.074 461.51 990.008 460.458 992.82 459.668ZM1211.65 234.058L1222.52 224.886C1224.34 224.463 1226.17 223.966 1227.99 223.38L1220.11 231.574C1217.31 232.333 1214.48 233.161 1211.65 234.058ZM1214.98 193.667C1211.73 198.046 1208.62 202.542 1205.61 207.076C1203.12 210.815 1198.94 215.112 1199.52 219.802C1199.53 219.912 1199.63 219.988 1199.71 220.068C1195.83 216.804 1191.86 213.638 1187.86 210.512C1190.47 206.118 1193 201.696 1195.8 197.418C1198.56 193.19 1201.85 189.317 1203.55 184.553C1207.41 187.522 1211.22 190.569 1214.98 193.667ZM1200.89 182.488C1196.88 185.37 1194.37 189.433 1191.64 193.587C1188.75 197.994 1186.01 202.538 1183.57 207.218C1178.07 203.035 1172.43 199.036 1166.73 195.12C1172.92 187.261 1178.13 178.26 1183.4 169.892C1189.33 173.959 1195.17 178.147 1200.89 182.488ZM1179.21 167.044C1173.67 175.247 1167.58 183.663 1162.85 192.5C1158.09 189.303 1153.23 186.238 1148.34 183.234C1155.37 176.309 1160.9 167.118 1165.81 158.427C1170.33 161.23 1174.8 164.089 1179.21 167.044ZM1161.24 155.605C1155.92 164.233 1149.72 172.32 1144.66 181.03C1138.8 177.517 1132.82 174.185 1126.77 170.953C1132.85 162.963 1137.92 153.754 1142.96 145.185C1149.13 148.524 1155.23 151.986 1161.24 155.605ZM1138 142.499C1132.72 150.953 1126.99 159.69 1122.73 168.78C1117.41 166.009 1112.01 163.385 1106.57 160.836C1110.11 156.021 1112.99 150.603 1115.94 145.465C1117.88 142.073 1120.64 138.461 1122.23 134.654C1127.54 137.18 1132.81 139.774 1138 142.499ZM1116.85 132.124C1114.34 135.583 1112.6 139.897 1110.6 143.435C1107.78 148.449 1104.72 153.56 1102.47 158.911C1098.02 156.888 1093.49 155.033 1088.96 153.16C1094.03 144.414 1098.44 135.092 1102.6 125.862C1107.39 127.864 1112.14 129.962 1116.85 132.124ZM1098 124.013C1093.42 132.992 1088.94 142.227 1085.32 151.614C1078.27 148.781 1071.1 146.197 1063.87 143.739C1067.37 140.019 1069.36 134.808 1071.36 130.184C1073.35 125.561 1075.12 120.816 1076.65 116.01C1083.85 118.492 1090.96 121.171 1098 124.013ZM1054.99 109.106C1060.48 110.694 1065.92 112.421 1071.33 114.212C1069.85 118.765 1068.35 123.303 1066.55 127.754C1064.58 132.65 1061.72 137.49 1060.75 142.709C1055.65 141.024 1050.52 139.448 1045.35 137.948C1047.3 134.569 1048.13 130.281 1049.33 126.694C1051.2 121.092 1053.15 115.503 1054.9 109.859C1054.99 109.593 1054.97 109.354 1054.99 109.106ZM1049.81 107.664C1049.72 107.829 1049.6 107.949 1049.53 108.141C1047.62 113.73 1045.89 119.393 1044.09 125.019C1042.91 128.695 1041.06 132.726 1040.69 136.686C1034.68 135.019 1028.62 133.487 1022.5 132.085C1024.54 128.526 1024.66 123.136 1025.47 119.421C1026.7 113.776 1028.2 108.237 1029.86 102.716C1036.56 104.233 1043.23 105.85 1049.81 107.664ZM1024.02 101.425C1022.31 107.086 1020.84 112.837 1019.82 118.656C1019.2 122.224 1017.78 127.272 1018.64 131.18C1013.52 130.058 1008.37 129.025 1003.19 128.098C1005.75 118.389 1007.11 108.341 1007.81 98.3229C1013.24 99.2707 1018.65 100.285 1024.02 101.425ZM1001.8 97.3008C1001.04 107.354 999.727 117.306 998.49 127.308C992.2 126.253 985.854 125.365 979.472 124.598C981.289 114.829 981.666 104.537 982.145 94.5713C988.738 95.3419 995.293 96.2508 1001.8 97.3008ZM975.996 93.9874C975.255 103.91 974.33 114.18 974.952 124.064C970.006 123.526 965.034 123.083 960.039 122.727C962.756 113.247 961.907 102.298 960.184 92.6463C965.475 93.0165 970.752 93.443 975.996 93.9874ZM953.446 92.2351C955.508 102.516 954.803 112.115 954.9 122.338C950.75 122.094 946.574 121.94 942.393 121.822L938.695 91.6663C943.634 91.7791 948.55 91.9687 953.446 92.2351ZM929.347 91.6154C929.54 91.6165 929.729 91.6176 929.922 91.6187L970.911 425.811L935.63 455.582L930.16 138.875C930.288 138.399 930.443 137.93 930.55 137.449C930.671 136.901 930.439 136.499 930.114 136.182L929.347 91.6154ZM909.751 382.308C906.629 386.9 903.263 391.498 900.026 396.184L900.892 383.604C904.765 378.16 907.887 372.096 911.428 366.494C915.711 359.723 920.843 353.237 925.037 346.361L925.277 360.322C919.82 367.443 914.807 374.876 909.751 382.308ZM925.376 365.789L925.689 383.834C921.477 388.045 918.223 394.512 915.253 398.661C909.306 406.964 902.228 415.359 898.052 424.801L899.337 406.198C903.52 400.228 907.326 393.903 911.254 387.918C916.052 380.599 920.892 373.3 925.376 365.789ZM907.956 362.641C905.859 365.862 903.672 369.157 901.658 372.547L902.363 362.32C906.871 356.199 910.369 349.393 914.438 342.981C917.679 337.869 921.317 332.983 924.723 327.964L924.931 340.069C918.22 346.318 912.943 354.984 907.956 362.641ZM903.007 352.988L904.197 335.679C907.446 331.209 910.251 326.396 913.149 321.714C916.91 315.644 921.06 309.464 924.293 303.003L924.614 321.68C916.174 330.076 908.085 341.617 903.007 352.988ZM900.724 259.584L899.805 272.938C883.027 274.835 866.706 278.228 851.011 283.049C852.491 285.236 853.937 287.451 855.374 289.666C869.534 285.453 884.216 282.449 899.272 280.661L898.216 296.004C886.462 297.536 874.964 299.857 863.791 302.969C863.815 303.007 863.838 303.044 863.862 303.087C860.883 299.692 858.014 296.183 855.299 292.532C849.855 285.217 845.438 277.455 841.284 269.547C841.845 270.284 842.43 271 842.98 271.742C861.457 265.753 880.788 261.665 900.724 259.584ZM897.724 303.118L895.754 331.673C886.149 324.853 877.206 317.254 869.1 308.803C878.431 306.354 887.982 304.445 897.724 303.118ZM911.308 316.971C909.165 320.288 906.923 323.625 904.795 327.025L905.716 313.664C912.749 305.58 918.673 296.183 924.009 286.691L924.211 298.261C919.282 303.943 915.377 310.668 911.308 316.971ZM918.819 285.924C917.047 288.798 915.294 291.681 913.539 294.567C910.842 298.993 908.302 303.43 906.103 308.07L907.395 289.334C911.545 284.584 914.593 279.039 917.627 273.493C919.64 269.807 921.805 265.994 923.584 262.058L923.847 277.358C923.519 277.881 923.335 278.463 923.311 279.149C921.681 280.318 919.25 285.23 918.819 285.924ZM913.707 271.386C911.809 274.858 909.78 278.249 907.918 281.725L908.865 268.009C914.221 260.337 919.258 251.481 923.248 242.498L923.445 253.829C919.547 259.21 916.885 265.575 913.707 271.386ZM909.556 257.983L911.143 234.966C913.544 231.203 915.159 226.866 916.994 222.841C918.333 219.9 919.646 216.949 920.938 213.989C921.497 212.714 922.038 211.079 922.679 209.438L923.074 232.282C917.866 240.106 913.218 249.061 909.556 257.983ZM916.746 211.735C915.372 214.562 913.726 217.547 912.133 220.618L913.591 199.462C913.659 199.412 913.74 199.416 913.802 199.346C917.488 195.044 919.691 189.72 922.105 184.638C922.149 184.545 922.197 184.448 922.241 184.355L922.543 201.752C919.646 203.742 918.113 208.936 916.746 211.735ZM918.414 182.645C916.978 185.443 915.459 188.256 914.168 191.152L915.802 167.502C915.83 167.479 915.871 167.483 915.898 167.46C918.398 165.139 920.217 162.165 921.81 159.078L922.094 175.615C920.816 177.931 919.62 180.29 918.414 182.645ZM916.287 160.371L918.204 132.567C919.397 130.724 920.376 128.725 921.248 126.688L921.644 149.572C921.24 150.451 920.861 151.34 920.439 152.207C919.121 154.929 917.596 157.611 916.287 160.371ZM901.298 251.277C879.637 253.43 858.677 257.9 838.681 264.517C835.229 257.771 831.85 250.965 828.107 244.273C814.015 219.084 789.538 202.765 761.091 198.555C757.985 198.096 755.408 202.677 758.442 204.564C760.604 205.914 762.686 207.357 764.709 208.868C769.581 213.774 774.753 218.33 779.682 223.171C785.357 230.163 789.852 238.099 792.807 246.908C796.544 258.053 797.641 269.788 797.969 281.529C779.891 290.749 762.932 301.824 747.271 314.448L654.351 241.378C722.084 178.887 811.057 139.024 909.384 134.01L901.298 251.277ZM798.114 290.746C798.125 293.35 798.126 295.95 798.127 298.534C798.128 300.884 798.15 303.285 798.186 305.708C786.399 312.331 775.164 319.803 764.551 328.041L753.906 319.673C767.667 308.729 782.45 299.023 798.114 290.746ZM798.433 314.314C798.677 319.89 799.124 325.53 799.883 331.116C794.097 334.705 788.486 338.538 783.028 342.571L770.708 332.881C779.531 326.135 788.783 319.929 798.433 314.314ZM801.101 338.594C802.877 347.618 805.737 356.256 810.198 363.936L788.703 347.035C792.746 344.098 796.877 341.277 801.101 338.594ZM804.845 277.135C804.474 267.837 803.117 258.839 800.728 250.319C802.691 253.562 804.567 256.853 806.263 260.235C816.44 280.497 819.585 302.377 825.563 323.98C830.908 343.305 840.653 358.479 853.841 373.375C867.382 388.663 882.258 403.666 886.8 424.177L831.639 380.8C831.679 380.16 831.454 379.49 830.755 378.934C799.499 353.965 806.255 312.428 804.845 277.135ZM897.763 428.978C897.971 428.958 898.168 428.888 898.321 428.765C905.254 422.944 910.146 414.727 915.235 407.303C918.739 402.198 922.02 395.848 925.797 390.213L926.129 409.409C921.284 413.582 917.532 420.179 913.918 424.952C910.811 429.055 906.917 433.262 904.27 437.916L897.518 432.604L897.763 428.978ZM919.562 426.489C921.55 423.832 924.065 420.976 926.275 417.968L926.587 435.859C924.203 438.86 922.127 442.206 919.857 445.207C919.089 446.221 918.247 447.224 917.398 448.235L908.435 441.187C912.732 436.893 916.069 431.155 919.562 426.489ZM924.307 447.349C925.111 446.214 925.924 445.054 926.722 443.874L926.927 455.732L921.483 451.449C922.472 450.053 923.397 448.636 924.307 447.349ZM921.071 116.464C920.361 118.281 919.679 120.106 918.942 121.873L920.723 96.0892L921.071 116.464ZM912.289 91.9072L909.441 133.217C909.339 129.568 909.42 125.9 909.64 122.191C902.528 122.538 895.485 123.117 888.485 123.841C886.24 114.037 884.453 103.87 881.492 94.3026C891.669 93.1979 901.914 92.3184 912.289 91.9072ZM877.09 94.7845C877.479 104.564 880.015 114.886 882.757 124.468C875.582 125.314 868.453 126.314 861.39 127.506C860.079 117.7 858.018 107.345 855.083 97.9224C862.362 96.6926 869.702 95.6551 877.09 94.7845ZM850.602 98.6224C851.464 108.432 853.525 118.788 856.048 128.385C850.572 129.383 845.124 130.472 839.723 131.683C837.776 122.021 835.805 111.452 832.02 102.391C838.173 101.019 844.359 99.7438 850.602 98.6224ZM826.486 103.689C827.617 113.411 830.921 123.682 833.562 133.147C827.682 134.556 821.837 136.053 816.056 137.702C814.225 131.976 812.097 126.335 810.13 120.658C808.788 116.788 807.592 112.834 805.993 109.066C812.763 107.118 819.588 105.323 826.486 103.689ZM801.118 110.535C802.039 114.661 803.494 118.699 804.803 122.697C806.62 128.266 808.396 133.883 810.542 139.338C803.67 141.407 796.841 143.582 790.119 145.989C788.806 140.207 786.078 134.449 784.103 129.039C782.804 125.478 781.831 121.109 780.043 117.424C786.99 114.964 794.018 112.665 801.118 110.535ZM774.76 119.287C775.686 123.336 777.711 127.419 778.94 131.021C780.796 136.451 782.314 142.53 784.892 147.815C779.144 149.955 773.458 152.208 767.835 154.587C764.386 145.33 760.797 135.414 756.086 126.658C762.245 124.069 768.469 121.609 774.76 119.287ZM732.329 137.473C738.619 134.383 744.981 131.42 751.435 128.617C754.263 138.187 758.594 147.781 762.659 156.806C756.796 159.384 750.996 162.072 745.276 164.901C743.442 159.521 740.722 154.3 738.273 149.219C736.402 145.334 734.614 141.206 732.329 137.473ZM727.676 139.855C729.489 144.491 731.974 148.969 734.031 153.435C736.157 158.063 738.03 162.871 740.426 167.373C735.318 169.986 730.246 172.664 725.261 175.475C720.542 166.8 714.708 157.935 708.548 150.123C714.831 146.556 721.204 143.13 727.676 139.855ZM684.704 164.591C691.006 160.474 697.439 156.543 703.954 152.74C708.652 161.524 714.399 170.476 720.466 178.259C713.934 182.06 707.488 185.984 701.186 190.122C697.753 184.355 693.497 178.973 689.885 173.32C688.216 170.712 686.776 167.211 684.704 164.591ZM679.74 167.906C681.228 171.472 684.083 175.033 685.743 177.717C689.012 183.016 692.383 188.498 696.455 193.266C691.008 196.945 685.617 200.699 680.353 204.624C674.839 196.314 669.318 187.544 663.09 179.657C668.546 175.621 674.096 171.701 679.74 167.906ZM641.16 196.988C646.932 192.144 652.825 187.444 658.84 182.883C663.983 191.521 670.112 199.787 675.882 207.938C671.051 211.64 666.28 215.424 661.616 219.326C655.371 211.837 648.749 203.471 641.16 196.988ZM637.186 200.289C643.544 207.947 650.896 214.943 657.284 222.559C657.349 222.631 657.426 222.655 657.491 222.723C653.224 226.387 649.049 230.149 644.936 233.98L620.812 215.009C626.137 209.96 631.616 205.073 637.186 200.289ZM619.537 225.072L888.52 436.594L885.244 484.082L619.537 225.072ZM608.579 227.059C608.664 226.971 608.751 226.885 608.838 226.799L620.873 238.529C620.872 239.545 620.954 240.566 621.159 241.591L608.579 227.059ZM628.043 249.543C627.758 248.357 627.438 247.183 627.147 246.046C626.994 245.461 626.857 244.84 626.711 244.227L634.647 251.961C635.338 254.054 636.231 256.118 636.838 258.082C637.094 258.901 637.333 259.729 637.575 260.559L628.043 249.543ZM643.443 267.333C643.156 264.309 642.266 261.357 641.312 258.456L648.98 265.929C649.153 269.482 650.908 273.374 651.848 276.539C651.921 276.78 651.985 277.035 652.057 277.278L643.443 267.333ZM658.747 285.011C658.117 281.902 657.052 278.846 656.147 275.858C655.777 274.631 655.451 273.276 655.098 271.896L663.154 279.744C663.631 283.689 664.791 287.634 665.837 291.37C666.087 292.274 666.354 293.187 666.614 294.091L658.747 285.011ZM865.71 485.192C865.761 485.924 865.776 486.657 865.789 487.388L856.693 488.416C856.58 486.547 856.401 484.675 856.259 482.804C855.854 477.422 855.521 472.016 854.892 466.649L864.572 476.085C865.225 479.061 865.485 482.223 865.71 485.192ZM868.905 480.31L875.083 486.34L870.156 486.896C870.008 484.71 869.531 482.477 868.905 480.31ZM850.32 465.097C850.371 470.812 850.913 476.52 851.313 482.22C851.469 484.439 851.537 486.719 851.737 488.971L844.841 489.75C844.894 484.394 843.987 478.896 843.589 473.661C843.094 467.171 842.856 460.574 842.007 454.094L851.318 463.167C850.746 463.561 850.313 464.199 850.32 465.097ZM838.636 472.513C839.047 478.274 838.902 484.479 839.88 490.309L836.778 490.662L834.132 487.606C833.293 480.477 832.09 473.368 831.491 466.211C830.842 458.441 831.026 450.447 830.274 442.654L837.51 449.707C837.255 457.308 838.095 464.936 838.636 472.513ZM522.997 539.113C523.003 537.692 523.009 536.271 523.028 534.852L833.2 499.825L862.143 533.259L522.997 539.113ZM862.295 541.959L858.68 546.442C857.533 545.697 856.403 544.967 855.346 544.223C854.405 543.56 853.453 542.842 852.488 542.126L862.295 541.959ZM1004.4 778.549C1005.64 783.442 1006.74 788.374 1007.75 793.33C995.469 797.127 982.796 800.038 969.812 802.006L971.174 786.485C982.531 784.586 993.625 781.932 1004.4 778.549ZM971.802 779.296L975.922 732.363C988.225 742.789 997.409 755.536 1002.4 771.176C1002.46 771.386 1002.51 771.599 1002.57 771.809C992.579 774.955 982.307 777.464 971.802 779.296ZM1009.34 800.831C1010.27 805.155 1011.29 809.454 1012.57 813.69C998.143 818.066 983.241 821.327 967.935 823.365L969.12 809.833C982.894 807.843 996.322 804.814 1009.34 800.831ZM1014.35 795.549C1008.49 767.957 1000.74 742.883 976.446 726.377L982.241 660.366C1013.99 692.82 1018.02 736.618 1024.11 779.971C1027.7 805.497 1033.35 833.31 1047.27 855.526C1042.84 851.282 1038.63 846.821 1034.73 842.075C1023.29 828.179 1018.03 812.9 1014.35 795.549ZM972.187 675.344C964.69 683.497 959.122 693.625 953.09 702.839C948.948 709.166 944.221 715.531 940.231 722.194L939.88 701.838C945.769 693.179 951.165 684.15 956.85 675.381C962.841 666.138 969.976 656.97 974.68 646.951L972.187 675.344ZM956.796 705.215C961.658 697.877 967.196 690.584 971.537 682.795L969.575 705.174C964.158 712.17 959.888 720.31 954.974 727.548C950.814 733.68 944.842 740.002 940.657 746.728L940.356 729.497C946.547 722.026 951.512 713.186 956.796 705.215ZM957.596 731.528C961.229 726.299 965.259 720.842 968.694 715.133L967.246 731.675C962.273 737.729 958.429 744.792 954.001 751.229C949.917 757.169 945.307 762.773 941.029 768.581L940.767 753.437C947.723 747.842 952.687 738.603 957.596 731.528ZM956.797 754.982C960.094 750.254 963.64 745.354 966.5 740.177L964.702 760.652C960.549 765.972 957.109 771.936 953.312 777.472C949.562 782.938 945.38 788.121 941.459 793.473L941.139 774.932C947.027 768.921 952.026 761.825 956.797 754.982ZM953.907 783.753C957.299 779.041 960.934 774.142 963.973 768.976L962.753 782.908C958.709 788.238 955.302 794.173 951.51 799.595C948.776 803.507 944.616 807.747 941.785 812.27L941.558 799.259C942.85 797.994 943.968 796.802 943.859 796.937C947.401 792.707 950.688 788.223 953.907 783.753ZM954.86 801.74C957.199 798.411 959.681 795.016 961.991 791.52L961.053 802.262C955.727 807.977 951.906 815.171 947.786 821.73C945.857 824.798 943.845 827.682 942.102 830.649L941.89 818.47C947.402 814.688 951.231 806.908 954.86 801.74ZM952.445 822.931C955.07 818.789 957.911 814.62 960.35 810.271L958.499 831.364C955.982 835.419 953.589 839.569 951.029 843.539C948.351 847.689 945.385 851.703 942.54 855.783L942.231 838C945.979 833.295 949.108 828.185 952.445 822.931ZM954.413 845.711C955.501 844.036 956.601 842.337 957.688 840.626L956.695 851.944C953.942 856.038 951.508 860.387 949.028 864.538C946.987 867.952 944.879 871.357 942.866 874.814L942.654 862.53C947.046 857.3 950.738 851.374 954.413 845.711ZM953.379 865.503C954.186 864.157 955.029 862.805 955.863 861.441L954.27 879.565C951.248 882.712 948.7 886.373 946.449 890.041C945.607 891.413 944.385 893.198 943.218 895.132L943 882.439C946.736 876.983 949.992 871.143 953.379 865.503ZM949.241 893.002C950.604 890.743 952.135 888.575 953.665 886.406L951.821 907.456C950.239 910.348 948.709 913.265 947.134 916.109C945.969 918.214 944.832 920.336 943.687 922.45L943.374 904.244C945.911 901.146 947.403 896.053 949.241 893.002ZM951 915.203C951.054 915.105 951.111 915.005 951.167 914.914L949.318 936C948.907 935.82 948.351 935.89 948.048 936.263C946.348 938.359 945.137 940.938 944.054 943.555L943.782 927.843C946.285 923.684 948.637 919.431 951 915.203ZM967.201 831.714C983.72 829.618 999.789 826.123 1015.32 821.385C1025.9 847.35 1048.58 867.338 1071.54 882.492C1074.15 884.214 1078.31 881.049 1075.83 878.338C1061.84 862.996 1054.27 844.046 1054.37 823.216C1054.4 817.339 1054.96 811.515 1055.7 805.709C1079.98 794.109 1102.41 779.278 1122.43 761.76L1215.34 834.823C1214.7 834.342 1214.04 833.898 1213.4 833.412C1146.16 898.507 1056.55 940.741 957.06 947.244L967.201 831.714ZM1057.1 795.908C1057.94 790.49 1058.82 785.073 1059.53 779.638C1075.87 770.722 1091.21 760.228 1105.29 748.279L1115.9 756.624C1098.1 772.035 1078.36 785.246 1057.1 795.908ZM1060.49 770.362C1060.61 768.796 1060.75 767.225 1060.82 765.655C1060.99 761.524 1060.91 757.185 1060.6 752.741C1069.82 747.022 1078.65 740.739 1087.01 733.905L1099.15 743.45C1087.13 753.528 1074.19 762.523 1060.49 770.362ZM1059.81 745.022C1057.84 729.995 1053.13 714.326 1045.39 701.174L1081.41 729.501C1074.51 735.061 1067.3 740.236 1059.81 745.022ZM953.301 673.1C948.78 680.146 944.13 687.18 939.749 694.365L939.473 678.289C944.762 671.879 949.555 665.049 954.479 658.369C958.896 652.38 963.726 646.448 967.676 640.066L973.103 644.331C965.222 652.705 959.477 663.466 953.301 673.1ZM952.32 654.593C948.004 660.529 943.524 666.403 939.371 672.476L939.151 659.702C942.792 655.322 946.246 650.784 949.727 646.28C952.932 642.127 956.524 638 959.278 633.459L964.818 637.819C960.287 643.1 956.376 649.005 952.32 654.593ZM947.328 643.107C944.569 646.707 941.78 650.302 939.051 653.944L938.872 643.468C939.37 643.526 939.892 643.409 940.341 642.987C943.737 639.804 946.591 636.027 949.339 632.282C950.329 630.927 951.365 629.492 952.353 628.015L956.645 631.393C953.204 634.976 950.304 639.228 947.328 643.107ZM945.942 629.105C943.62 632.29 941.118 635.357 938.786 638.538L938.516 622.857C939.318 621.531 940.298 620.436 941.386 619.39L948.721 625.161C947.779 626.497 946.862 627.843 945.942 629.105ZM935.938 977.744L901.049 641.395L929.72 617.206L935.938 977.744ZM704.015 795.375C696.393 797.956 688.718 800.842 681.144 803.919L691.054 793.625C700.085 791.032 709.119 787.899 718.002 784.472L704.724 795.676C704.587 795.434 704.357 795.258 704.015 795.375ZM625.802 848.853L838.562 585.227L876.73 588.225L859.227 606.405C858.937 606.526 858.636 606.616 858.354 606.749C858.006 606.909 857.947 607.292 858.069 607.608L695.828 776.122C695.154 776.394 694.456 776.653 693.787 776.929C693.113 777.21 693.264 777.953 693.725 778.31L625.802 848.853ZM650.865 841.119L621.35 866.021L643.784 842.719C646.146 842.176 648.498 841.543 650.865 841.119ZM560.377 563.36C560.494 563.383 560.613 563.431 560.73 563.454C560.825 563.47 560.91 563.427 561.007 563.41L583.866 565.209C584.884 565.557 585.881 565.984 586.913 566.276C587.435 566.423 587.893 566.008 588.023 565.534L623.705 568.337C623.812 568.366 623.912 568.417 624.02 568.44C624.163 568.473 624.284 568.425 624.414 568.394L639.532 569.584C641.303 588.215 644.842 606.303 649.947 623.736C646.549 625.121 643.15 626.506 639.785 627.977C612.884 639.714 579.863 657.797 572.139 688.65C571.509 691.159 574.66 691.966 576.181 690.516C576.527 690.379 576.868 690.173 577.177 689.815C578.074 688.78 579.027 687.859 579.951 686.875C608.606 674.625 638.232 672.908 668.538 671.519C679.435 693.444 692.97 713.814 708.775 732.187L636.083 822.262C570.339 753.6 528.335 661.974 523.458 560.458L560.377 563.36ZM523.091 551.701C523.056 550.401 522.953 549.12 522.93 547.817L523.798 547.801C526.361 549.7 529.386 551.149 532.471 552.437L523.091 551.701ZM582.45 556.366L571.889 555.536C565.852 552.749 559.641 550.255 553.751 547.285L570.3 546.999C572.973 551.103 578.412 553.914 582.45 556.366ZM561.553 554.726L545.424 553.456C543.931 552.812 542.441 552.171 540.971 551.52C538.329 550.348 535.623 548.92 532.859 547.642L546.962 547.399C550.684 550.129 555.939 551.827 559.465 553.627C560.157 553.982 560.858 554.359 561.553 554.726ZM576.77 546.888L583.652 546.769C589.337 550.889 595.493 554.348 601.597 557.797C601.648 557.826 601.697 557.853 601.749 557.883L592.784 557.177C590.561 556.037 588.344 554.89 586.214 553.611C583.164 551.778 580.05 549.007 576.77 546.888ZM719.965 558.913C724.136 561.976 728.673 565.493 733.472 568.234L723.849 567.476C717.247 562.866 710.204 558.851 703.511 554.362C698.968 551.318 694.572 547.981 690.009 544.927L705.153 544.665C707.77 550.94 714.615 554.99 719.965 558.913ZM737.567 557.951C742.813 561.764 748.035 566.139 753.561 569.811L743.913 569.054C738.334 564.183 731.103 561.04 725.023 556.796C719.798 553.147 714.821 547.482 708.961 544.606L721.239 544.394C725.589 550.016 731.847 553.793 737.567 557.951ZM752.892 555.404C761.278 560.822 769.599 566.407 778.065 571.741L761.436 570.435C755.894 565.1 749.053 560.895 742.851 556.429C737.091 552.283 731.452 547.329 724.973 544.334L739.743 544.077C740.543 549.473 748.682 552.684 752.892 555.404ZM828.217 575.682L812.997 574.489C798.286 564.702 784.373 553.985 770.171 543.553L785.959 543.28C799.061 555.176 813.457 565.822 828.217 575.682ZM792.561 543.162L804.682 542.954C815.045 552.837 826.586 563.08 838.457 571.495L835.615 575.015C820.718 565.079 806.587 554.272 792.561 543.162ZM803.956 573.775L788.317 572.545C780.841 567.411 773.132 562.592 765.493 557.711C758.762 553.412 750.871 549.481 744.848 543.99L764.121 543.657C776.191 554.872 790.022 564.728 803.956 573.775ZM787.335 581.199C754.88 612.05 715.982 628.537 672.505 637.905C646.385 643.533 616.747 649.573 594.408 665.385C599.64 659.882 605.532 654.919 612.472 650.416C627.968 640.362 645.184 633.623 662.25 626.805C677.34 620.775 692.423 614.491 706.304 605.965C717.352 599.182 731.022 589.446 737.165 577.251L787.335 581.199ZM781.901 641.581L741.552 691.576C735.268 683.659 729.489 675.33 724.217 666.648C734.953 664.648 745.486 661.726 755.511 657.279C764.882 653.118 773.741 647.807 781.901 641.581ZM700.404 669.725C705.879 669.279 711.356 668.685 716.805 667.886C722.874 678.129 729.633 687.912 737.058 697.141L727.355 709.164C717.231 696.903 708.203 683.707 700.404 669.725ZM722.456 715.235L714.013 725.699C699.846 709.051 687.587 690.737 677.52 671.104C682.335 670.878 687.167 670.629 692.016 670.326C700.671 686.34 710.878 701.375 722.456 715.235ZM690.768 606.11C690.728 606.132 690.688 606.153 690.645 606.177C686.134 608.499 681.531 610.615 676.894 612.642C673.21 599.454 670.552 585.842 668.961 571.897L684.265 573.101C685.691 584.363 687.88 595.375 690.768 606.11ZM691.383 573.657L728.499 576.573C724.502 581.1 720.7 585.793 716.004 589.785C710.191 594.724 703.756 598.943 697.098 602.698C694.618 593.233 692.696 583.544 691.383 573.657ZM669.789 615.63C665.723 617.317 661.653 618.991 657.568 620.63C652.873 604.387 649.595 587.547 647.862 570.239L661.228 571.29C662.876 586.482 665.738 601.301 669.789 615.63ZM713.605 566.675L697.002 565.369C696.87 564.918 696.614 564.483 696.134 564.157C686.659 557.685 676.961 551.274 667.079 545.329L683.638 545.043C691.928 553.261 702.942 560.77 713.605 566.675ZM688.874 564.732L675.895 563.713C671.548 560.892 666.983 558.34 662.693 555.573C657.704 552.355 652.803 548.957 647.84 545.664L659.1 545.469C668.712 552.261 678.775 558.624 688.874 564.732ZM665.847 562.921L654.875 562.062C647.199 556.137 638.254 550.558 629.43 545.982L640.634 545.788C646.498 550.258 652.731 554.28 658.885 558.291C661.183 559.785 663.5 561.364 665.847 562.921ZM645.875 561.352L632.827 560.327C629.483 558.192 625.992 556.256 622.622 554.237C618.207 551.59 613.802 548.887 609.32 546.325L622.207 546.103C629.382 551.582 637.616 556.914 645.875 561.352ZM623.631 559.603L611.902 558.681C609.631 557.491 607.356 556.311 605.122 555.078C600.166 552.34 595.299 549.389 590.328 546.652L602.637 546.44C608.48 550.452 614.613 554.064 620.664 557.751C621.652 558.354 622.64 558.982 623.631 559.603ZM811.078 542.842L824.282 542.616C829.407 547.69 835.302 552.066 840.904 556.579C842.831 558.133 844.741 559.74 846.664 561.334L841.723 567.46C832.336 558.628 821.58 550.334 811.078 542.842ZM881.84 646.218C871.894 648.632 862.033 651.779 852.246 654.325C840.463 657.396 828.234 659.85 816.486 663.342L831.724 647.519C842.097 645.471 852.375 642.783 862.643 640.309C872.262 637.991 882.071 635.975 891.39 632.597L891.92 637.714L881.84 646.218ZM871.313 775.612C872.219 774.511 873.177 773.46 874.042 772.324C891.569 749.235 897.851 719.547 897.372 690.315L906.862 781.79C894.735 780.611 882.862 778.538 871.313 775.612ZM907.599 788.885L909.181 804.129C890.112 802.602 871.586 799.072 853.848 793.67C858.12 789.781 862.257 785.758 866.184 781.538C879.584 785.13 893.425 787.594 907.599 788.885ZM750.304 745.968C744.009 747.997 737.565 749.854 731.203 751.922L743.505 739.145C752.886 737.497 762.209 734.432 771.215 731.875C775.735 730.593 780.326 729.354 784.893 728.023L781.158 731.175C781.114 731.137 781.065 731.105 781.021 731.068C779.213 732.621 777.386 734.146 775.538 735.646C775.595 735.691 775.652 735.731 775.709 735.775L771.961 738.935C764.699 741.188 757.496 743.648 750.304 745.968ZM748.379 734.083L760.472 721.523C771.006 719.51 781.475 716.077 791.756 713.391C796.869 712.059 802 710.745 807.085 709.296L792.644 721.48C784.489 723.805 776.406 726.513 768.311 728.801C761.794 730.647 755.015 732.187 748.379 734.083ZM782.804 741.172C792.663 748.456 803.077 755.02 813.956 760.814C811.172 765.037 808.319 769.209 805.513 773.337C793.427 766.8 781.895 759.378 771.02 751.115L782.804 741.172ZM788.671 736.837C790.141 736.252 791.616 735.681 793.053 735.035C793.921 734.645 793.366 733.34 792.487 733.519C792.2 733.578 791.917 733.66 791.633 733.722L832.886 698.909C836.89 719.232 828.593 737.601 817.708 754.975C807.584 749.612 797.886 743.544 788.671 736.837ZM813.915 703.531C804.782 705.352 795.782 707.955 786.804 710.369C779.948 712.208 772.899 713.833 765.986 715.793L780.292 700.937C796.908 700.461 816.952 695.74 832.343 687.985L813.915 703.531ZM808.057 691.799C800.127 693.926 791.979 695.24 783.99 697.091L793.596 687.115C807.368 685.413 821.125 680.918 834.527 677.515C839.241 676.319 844.053 675.222 848.861 674.047L838.556 682.739C828.192 684.882 818.286 689.054 808.057 691.799ZM831.515 673.739C820.56 676.466 809.123 678.682 798.305 682.229L811.358 668.675C826.108 666.608 840.925 661.949 855.245 658.089C861.243 656.473 867.375 654.957 873.469 653.284L856.862 667.295C848.325 669.164 839.856 671.662 831.515 673.739ZM861.705 636.268C853.396 638.27 845.02 640.144 836.735 642.314L852.067 626.392C859.376 625.505 866.65 624.261 873.914 623.067C879.304 622.18 884.829 621.577 890.094 620.117L891.119 630.008C881.174 631.235 871.425 633.927 861.705 636.268ZM872.856 618.501C867.559 619.401 862.256 620.307 856.973 621.291L869.044 608.755C872.055 608.476 875.061 607.967 877.88 607.587C881.345 607.12 885.034 606.727 888.627 606.012L889.661 615.966C884.025 616.278 878.384 617.562 872.856 618.501ZM878.345 603.2C876.891 603.427 875.39 603.588 873.878 603.735L885.754 591.401C886.245 591.847 886.743 592.285 887.248 592.714L888.142 601.317C884.85 601.931 881.571 602.702 878.345 603.2ZM658.68 827.252C661.978 826.419 665.15 824.797 668.277 823.506C670.615 822.541 672.944 821.562 675.25 820.541L656.864 836.054C654.383 836.129 651.873 836.4 649.411 836.877L658.68 827.252ZM669.07 819.673C667.488 820.335 665.805 820.946 664.122 821.592L675.567 809.703C684.633 806.735 693.556 802.772 701.717 798.204L681.947 814.883C677.563 816.215 673.308 817.906 669.07 819.673ZM696.23 788.249L708.148 775.866C718.366 773.569 728.7 770.501 738.752 766.957L725.552 778.096C715.703 781.106 705.803 784.45 696.23 788.249ZM714.443 769.328L725.407 757.941C735.446 755.164 745.342 751.47 755.145 748.332C757.477 747.585 759.822 746.851 762.169 746.114C760.663 747.508 759.173 748.922 757.675 750.323C757.807 750.435 757.949 750.536 758.084 750.645L747.081 759.93C736.198 762.697 725.172 765.796 714.443 769.328ZM765.071 756.139C776.463 764.908 788.562 772.773 801.257 779.685C798.777 783.441 796.429 787.17 794.291 790.881C780.387 783.265 767.174 774.559 754.778 764.818L765.071 756.139ZM810.598 778.063C827.494 753.296 846.891 725.281 838.625 694.068L866.316 670.704C872.144 717.785 838.751 755.771 812.905 791.308C802.739 805.281 793.227 819.891 786.604 835.865C786.626 835.691 786.624 835.515 786.649 835.344C789.326 813.666 798.418 795.925 810.598 778.063ZM847.235 799.578C867.259 806.055 888.274 810.256 909.983 811.881L911.365 825.191C885.103 823.45 859.785 818.136 835.906 809.692C839.643 806.283 843.435 802.927 847.235 799.578ZM849.664 557.613C846.855 555.434 843.992 553.317 841.276 551.156C837.628 548.256 834.016 545.261 830.238 542.512L845.428 542.249C847.874 544.619 850.99 546.54 853.559 548.474C854.26 549.002 854.97 549.583 855.682 550.156L849.664 557.613ZM692.392 413.035C688.354 411.208 684.326 409.375 680.306 407.58C689.4 390.705 700.154 374.856 712.359 360.229L721.131 370.362C710.255 383.609 700.627 397.889 692.392 413.035ZM726.194 376.214L736.229 387.807C727.691 398.543 720.035 409.991 713.343 422.052C708.652 420.198 703.992 418.207 699.355 416.156C707.094 402.01 716.079 388.65 726.194 376.214ZM672.651 404.25C657.201 397.679 641.366 392.331 624.575 390.57C605.404 388.561 586.572 389.252 568.434 381.671C567.068 381.098 565.456 381.927 565.217 383.419C565.087 384.251 565.065 384.909 565.151 385.46C565.069 385.451 564.997 385.422 564.915 385.414C564.272 385.34 563.894 386.015 564.231 386.543C568.758 393.692 578.469 395.881 586.262 397.882C589.636 398.748 593.015 399.51 596.397 400.264C605.219 403.542 614.51 405.977 623.414 408.4C636.616 414.216 648.581 422.382 659.873 431.375C649.37 456.981 642.398 484.365 639.563 512.929L523.154 526.076C526.714 425.996 566.682 334.777 630.325 265.472L706.829 353.845C693.765 369.363 682.3 386.255 672.651 404.25ZM684.653 507.845L669.201 509.588C671.657 489.732 676.305 470.539 682.955 452.276C680.803 450.691 678.696 449.065 676.65 447.382C669.157 467.42 663.96 488.552 661.403 510.47L647.963 511.986C650.703 486.014 656.939 461.046 666.237 437.587C665.202 436.45 664.212 435.281 663.263 434.097C667.165 437.3 670.997 440.58 674.766 443.89C681.339 449.659 688.189 456.138 695.328 462.669C690.411 477.186 686.811 492.289 684.653 507.845ZM701.022 467.81C715.786 480.995 731.818 493.649 749.378 500.532L691.844 507.03C693.817 493.57 696.911 480.472 701.022 467.81ZM803.535 481.654C790.871 478.607 778.272 475.215 765.94 471.006C741.146 462.543 719.619 450.101 698.144 435.26C679.899 422.647 661.551 413.153 640.203 406.917C637.515 406.131 634.811 405.388 632.102 404.65C629.475 403.374 626.817 402.152 624.095 401.068C618.298 398.756 612.351 397.118 606.318 395.743C610.338 396.066 614.364 396.35 618.38 396.725C640.521 398.803 660.436 406.523 680.499 415.681C711.664 429.899 744.774 445.797 779.739 438.067L820.456 485.105C814.765 483.888 808.973 482.963 803.535 481.654ZM719.944 424.546C726.111 413.532 733.112 403.048 740.874 393.174L757.339 412.189C757.412 412.358 757.471 412.535 757.549 412.699C757.687 412.997 757.95 413.144 758.227 413.215L774.254 431.73C755.335 434.622 737.389 430.836 719.944 424.546ZM826.599 466.777C826.972 471.303 827.374 475.893 827.945 480.457L822.682 474.378C821.01 465.282 819.073 456.228 817.598 447.088C816.594 440.878 816.183 434.239 815.089 427.853L826.273 438.753C824.848 447.88 825.853 457.677 826.599 466.777ZM813.703 449.563C814.654 455.572 815.644 461.604 816.811 467.596L807.848 457.24C806.648 448.817 804.321 440.456 802.768 432.119C801.907 427.483 801.12 422.838 800.38 418.184C800.103 416.351 799.82 414.519 799.532 412.686L810.425 423.302C810.28 432.01 812.38 441.227 813.703 449.563ZM797.232 428.697C798.404 435.485 799.499 442.561 801.103 449.45L794.621 441.963C792.282 433.406 789.593 424.992 787.77 416.261C786.539 410.372 786.647 403.04 783.965 397.515L794.034 407.33C792.811 413.584 796.374 423.719 797.232 428.697ZM781.428 395.167C778.385 402.459 782.144 412.573 783.8 420.016C784.767 424.365 785.786 428.769 786.968 433.123L778.028 422.795C776.825 414.505 774.739 406.33 772.913 398.159C771.901 393.628 769.769 387.893 768.4 382.34L781.505 395.112C781.488 395.14 781.445 395.133 781.428 395.167ZM768.127 398.713C769.379 404.367 770.53 410.064 771.89 415.703L759.358 401.227C758.838 396.738 757.929 392.256 757.269 387.857C756.309 381.431 755.355 375.004 754.293 368.589L763.56 377.62C764.256 384.701 766.631 391.951 768.127 398.713ZM752.42 388.415C752.696 390.28 752.93 392.18 753.171 394.082L746.139 385.962C745.847 380.466 744.902 374.951 744.213 369.552C743.716 365.644 743.517 361.483 742.877 357.463L748.915 363.353C749.86 371.73 751.181 380.074 752.42 388.415ZM739.8 371.725C740.102 374.354 740.38 377.009 740.69 379.66L734.477 372.486C733.877 367.91 732.969 363.359 732.151 358.824C731.292 354.035 730.498 349.208 729.511 344.427L737.944 352.647C737.477 358.913 739.095 365.662 739.8 371.725ZM728.029 361.046C728.324 362.705 728.603 364.375 728.89 366.042L722.623 358.799C721.94 353.546 720.84 348.326 719.906 343.137C719.37 340.154 719.146 336.907 718.592 333.792L724.586 339.639C725.299 346.817 726.768 353.961 728.029 361.046ZM715.5 345.146C715.907 347.437 716.332 349.745 716.785 352.05L710.34 344.608C709.515 339.523 707.929 334.54 706.595 329.58C705.736 326.372 705.018 323.08 704.241 319.796L713.245 328.57C712.638 333.988 714.57 339.926 715.5 345.146ZM701.614 330.12C702.197 332.315 702.826 334.515 703.498 336.7L689.94 321.041C688.972 316.651 687.718 312.326 686.478 307.991C685.832 305.72 685.312 303.241 684.712 300.761L697.951 313.67C698.62 319.224 700.188 324.788 701.614 330.12ZM681.536 308.578C681.929 309.983 682.351 311.375 682.78 312.769L673.72 302.306C672.707 298.831 671.414 295.426 670.338 291.97C669.626 289.691 669.038 287.287 668.428 284.886L678.139 294.353C678.461 299.171 680.319 304.209 681.536 308.578ZM602.532 233.365L622.541 256.482C621.518 257.621 620.506 258.77 619.481 259.907C611.765 253.546 604.013 246.567 595.652 241.003C597.946 238.455 600.183 235.862 602.532 233.365ZM592.418 244.6C599.637 251.578 608.123 257.64 616.011 263.792C611.746 268.665 607.557 273.606 603.516 278.674C596.222 272.283 587.978 265.021 579.35 260.115C583.591 254.845 587.946 249.674 592.418 244.6ZM576.604 263.452C583.417 270.708 592.469 277.044 600.414 282.637C596.42 287.78 592.498 292.983 588.737 298.309C580.487 292.438 572.15 286.1 563.46 280.983C567.704 275.033 572.086 269.184 576.604 263.452ZM560.641 285.109C568.082 291.814 577.063 297.548 585.59 302.798C581.588 308.626 577.723 314.566 574.01 320.596C568.656 317.821 563.238 315.175 557.984 312.192C554.358 310.132 550.811 307.719 547.077 305.793C551.418 298.769 555.933 291.871 560.641 285.109ZM544.557 309.856C547.671 312.268 551.23 314.195 554.61 316.179C560.015 319.352 565.545 322.485 571.258 325.125C568.346 329.993 565.495 334.901 562.771 339.89C554.493 334.671 544.886 328.915 535.514 325.57C538.436 320.271 541.437 315.029 544.557 309.856ZM533.51 329.159C536.961 331.53 540.687 333.522 544.356 335.564C549.644 338.5 554.921 341.58 560.355 344.272C557.761 349.167 555.248 354.108 552.842 359.113C543.771 354.649 534.367 349.736 524.767 346.302C527.571 340.522 530.473 334.801 533.51 329.159ZM522.827 350.213C531.569 355.463 541.382 359.585 550.597 363.759C548.122 369.071 545.734 374.432 543.477 379.86C538.412 376.518 531.502 375.324 525.858 373.449C522.007 372.17 518.127 370.828 514.19 369.717C516.924 363.141 519.795 356.632 522.827 350.213ZM512.588 373.811C517.211 375.695 521.997 377.237 526.675 378.87C531.615 380.595 536.675 383.172 541.907 383.666C539.368 389.945 536.963 396.292 534.722 402.717C524.478 400.829 514.567 397.974 504.476 395.55C507.004 388.218 509.698 380.966 512.588 373.811ZM503.013 399.853C512.51 403.712 522.98 405.927 533.069 407.645C530.852 414.263 528.757 420.937 526.864 427.691C521.451 427.069 516.058 426.337 510.705 425.309C505.873 424.381 501.03 423.044 496.139 422.325C498.231 414.749 500.541 407.263 503.013 399.853ZM495.052 426.085C504.235 430.277 515.456 431.76 525.455 432.844C523.876 438.771 522.379 444.727 521.054 450.754C515.702 449.532 509.857 449.464 504.506 448.922C499.643 448.433 494.773 447.838 489.893 447.548C491.438 440.325 493.161 433.175 495.052 426.085ZM489.053 451.93C494.321 452.781 499.67 453.242 504.961 453.852C509.821 454.412 515.005 455.492 520.006 455.524C518.736 461.639 517.562 467.785 516.559 473.99C506.218 473.196 495.827 472.23 485.453 471.84C486.507 465.154 487.71 458.517 489.053 451.93ZM484.754 476.75C495.03 477.93 505.42 478.517 515.723 479.278C514.648 486.562 513.689 493.887 512.997 501.288C506.423 500.721 499.715 500.747 493.185 500.446C489.946 500.298 485.858 499.5 482.038 499.463C482.756 491.832 483.659 484.264 484.754 476.75ZM481.511 505.032C486.06 505.599 491.274 505.108 495.004 505.337C500.768 505.698 506.633 506.323 512.459 506.489C511.897 513.421 511.506 520.403 511.284 527.422L480.066 530.944C480.27 522.242 480.807 513.615 481.511 505.032ZM479.922 539.719L511.216 536.185C511.205 537.227 511.196 538.271 511.193 539.315L479.922 539.854C479.921 539.813 479.923 539.765 479.922 539.719ZM502.062 548.176C502.528 548.309 502.982 548.444 503.415 548.601C505.014 549.181 506.594 549.853 508.174 550.53L482.522 548.512L502.062 548.176ZM480.186 557.06L511.54 559.524C511.787 564.509 512.103 569.475 512.525 574.413C507.863 572.861 502.225 573.42 497.487 573.649C492.02 573.914 486.556 574.525 481.272 575.922C480.799 569.663 480.398 563.388 480.186 557.06ZM481.701 581.311C487.273 580.639 492.811 579.805 498.445 579.636C503.155 579.493 508.369 580.599 513.008 579.615C513.495 584.59 514.037 589.549 514.69 594.475C509.096 594.712 503.391 595.85 497.965 596.593C493.18 597.251 488.295 597.794 483.553 598.828C482.815 593.023 482.211 587.182 481.701 581.311ZM484.225 603.661C488.706 603.305 493.184 602.552 497.614 602.031C503.382 601.352 509.565 601.172 515.407 600.13C516.212 605.62 517.116 611.081 518.129 616.501C513.704 616.023 508.897 617.26 504.552 617.702C498.605 618.313 492.608 618.788 486.698 619.724C485.769 614.404 484.966 609.041 484.225 603.661ZM487.507 624.086C492.681 623.84 497.849 623.32 503.002 622.814C507.952 622.328 514.098 622.691 518.979 620.972C519.804 625.13 520.67 629.277 521.615 633.39C511.284 634.915 500.709 637.289 490.954 641.058C489.686 635.442 488.559 629.778 487.507 624.086ZM491.862 644.871C502.189 642.897 512.447 640.345 522.749 638.183C524.168 644.043 525.663 649.875 527.324 655.638C521.332 657.029 515.474 659.283 509.658 661.193C505.496 662.558 501.281 663.823 497.202 665.418C495.267 658.635 493.484 651.783 491.862 644.871ZM498.679 670.281C503.815 668.971 508.848 667.109 513.866 665.496C518.828 663.9 523.895 662.485 528.714 660.492C530.534 666.537 532.445 672.539 534.527 678.466C524.709 681.865 514.5 686.13 505.451 691.134C503.031 684.255 500.772 677.305 498.679 670.281ZM506.975 695.418C516.9 692.536 527.108 688.315 536.413 683.755C538.76 690.16 541.246 696.494 543.895 702.745C534.542 707.777 524.8 712.007 515.355 716.806C512.378 709.767 509.596 702.635 506.975 695.418ZM517.158 721.218C527.24 718.002 537.012 713.018 546.126 707.857C548.455 713.168 550.857 718.434 553.395 723.625C548.024 727.343 542.55 730.888 536.885 734.164C533.351 736.206 529.409 737.908 525.93 740.158C522.864 733.926 519.938 727.61 517.158 721.218ZM528.002 744.135C532.415 742.586 536.556 739.974 540.6 737.686C545.776 734.759 550.736 731.506 555.628 728.146C557.945 732.747 560.315 737.319 562.795 741.817C554.008 747.88 544.554 752.959 535.729 758.911C533.043 754.051 530.507 749.101 528.002 744.135ZM537.837 762.549C547.672 758.847 556.977 752.597 565.352 746.463C567.84 750.844 570.383 755.193 573.019 759.476C568.955 761.295 565.441 765.007 561.992 767.621C557.338 771.148 551.101 774.5 547.894 779.504C544.416 773.935 541.071 768.279 537.837 762.549ZM549.636 782.222C555.175 780.655 560.045 775.789 564.553 772.435C568.093 769.805 572.727 767.39 575.792 763.996C578.763 768.69 581.801 773.334 584.95 777.899C576.613 784.424 568.042 791.048 560.288 798.276C556.62 793.009 553.078 787.652 549.636 782.222ZM563.143 802.311C571.771 796.21 579.981 789.219 588.038 782.392C591.657 787.497 595.35 792.54 599.189 797.473C594.559 801.089 590.082 804.92 585.565 808.664C582.074 811.556 577.778 814.309 574.684 817.816C570.727 812.736 566.881 807.566 563.143 802.311ZM577.68 821.667C581.435 819.457 584.657 816.133 587.999 813.392C592.785 809.462 597.653 805.592 602.334 801.526C605.71 805.761 609.146 809.949 612.677 814.048C607.587 818.509 602.986 823.718 598.256 828.494C595.658 831.12 592.237 833.611 590.223 836.747C585.936 831.813 581.752 826.788 577.68 821.667ZM593.334 840.394C597.364 838.053 600.696 833.372 603.764 830.365C607.891 826.316 612.274 822.395 616.171 818.092C620.216 822.664 624.366 827.137 628.603 831.529L608.373 856.595C603.224 851.323 598.227 845.908 593.334 840.394ZM625.891 873.577L748.369 770.228C761.541 780.734 775.615 790.13 790.482 798.266C780.72 818.906 778.012 842.859 777.888 866.186C776.663 874.199 776.469 882.412 778.445 889.589C778.459 889.876 778.468 890.169 778.481 890.456C778.51 891.072 778.773 891.484 779.137 891.734C779.392 892.472 779.682 893.194 779.992 893.905C779.903 894.643 780.257 895.252 780.772 895.626C781.215 896.479 782.59 896.611 782.955 895.679C783.183 895.499 783.39 895.273 783.517 894.931C792.777 870.378 801.96 847.308 819.026 826.874C822.233 823.031 825.707 819.454 829.275 815.962C855.415 825.637 883.257 831.695 912.226 833.478L924.103 947.966C822.997 946.464 730.409 907.987 659.727 845.099C657.062 848.029 654.196 850.773 651.126 853.236C657.079 858.56 663.238 863.648 669.486 868.632C664.779 873.983 660.058 879.322 655.4 884.711C653.396 887.029 650.282 889.674 648.166 892.598C640.557 886.468 633.079 880.181 625.891 873.577ZM653.061 896.523C655.646 894.019 657.851 890.622 659.856 888.38C664.64 883.032 669.359 877.632 674.094 872.237C677.899 875.182 681.773 878.034 685.679 880.852C678.994 889.254 672.811 897.975 667.035 907.015C662.312 903.598 657.643 900.114 653.061 896.523ZM670.878 909.817C676.64 900.764 682.829 891.985 689.411 883.508C694.278 886.938 699.238 890.238 704.248 893.465C698.052 902.044 691.761 911.253 687.045 920.716C681.573 917.195 676.178 913.568 670.878 909.817ZM691.678 923.718C697.965 915.092 703.536 905.62 709.191 896.555C714.831 900.077 720.587 903.417 726.402 906.673C723.259 911.959 720.188 917.284 717.292 922.712C715.511 926.046 711.999 930.858 710.947 935.102C704.432 931.458 697.995 927.679 691.678 923.718ZM715.143 937.369C718.181 933.29 720.28 928.095 722.704 923.767C725.431 918.9 728.281 914.107 731.144 909.316C736.844 912.412 742.645 915.346 748.497 918.184C745.257 922.973 743.194 929.045 740.769 934.087C738.832 938.11 735.75 942.661 734.051 947.116C727.659 944.014 721.358 940.765 715.143 937.369ZM760.081 958.814C752.993 955.913 746.007 952.805 739.103 949.556C742.109 945.756 744.125 940.522 746.226 936.521C748.78 931.663 752.198 926.257 753.811 920.767C759.414 923.386 765.093 925.859 770.826 928.239C766.348 937.975 762.22 948.157 760.082 958.606C760.066 958.68 760.09 958.743 760.081 958.814ZM764.078 960.498C764.233 960.321 764.381 960.135 764.478 959.888C768.424 950.031 771.857 940.105 776.142 930.409C780.792 932.264 785.51 933.97 790.243 935.661C788.161 939.076 787.659 943.323 786.585 947.34C784.859 953.796 782.675 960.375 781.49 966.994C775.632 964.938 769.822 962.788 764.078 960.498ZM785.568 968.39C787.603 962.7 788.861 956.665 790.407 950.85C791.58 946.439 793.718 941.587 793.677 936.943C800.359 939.27 807.142 941.366 813.969 943.359C812.361 947.159 811.287 951.181 810.344 955.239C808.861 961.618 806.746 968.229 805.703 974.71C798.922 972.752 792.212 970.647 785.568 968.39ZM810.074 975.889C812.217 971.61 813.089 966.665 814.063 962.028C815.316 956.062 816.831 950.387 818.728 944.695C825.533 946.592 832.423 948.27 839.353 949.828C838.239 955.104 837.609 960.541 836.814 965.849C836.017 971.159 834.669 976.674 835.064 982.046C826.644 980.221 818.316 978.176 810.074 975.889ZM839.221 982.959C841.212 977.881 841.502 972.044 842.263 966.669C842.991 961.467 843.922 956.215 844.372 950.966C851.042 952.379 857.775 953.633 864.561 954.728C863.244 959.804 862.575 965.084 861.698 970.238C860.785 975.601 859.393 981.115 859.144 986.592C852.453 985.523 845.811 984.32 839.221 982.959ZM864.083 987.438C865.65 982.152 866.126 976.439 867.019 971.04C867.87 965.877 868.945 960.673 869.35 955.44C875.388 956.342 881.478 957.064 887.594 957.707C887.389 963.82 887.462 969.939 887.132 976.057C886.876 980.724 886.076 985.444 885.958 990.129C878.612 989.404 871.322 988.508 864.083 987.438ZM911.901 991.838C904.941 991.558 898.024 991.11 891.142 990.516C893.539 980.589 893.38 968.157 892.401 958.167C898.769 958.761 905.181 959.194 911.622 959.505C911.287 965.039 911.532 970.636 911.62 976.157C911.702 981.293 911.298 986.681 911.901 991.838ZM928.7 992.295C924.755 992.278 920.851 992.09 916.927 991.974C917.347 987.094 916.791 981.983 916.7 977.163C916.593 971.344 916.676 965.443 916.126 959.634C919.192 959.751 922.264 959.834 925.336 959.897L928.7 992.295ZM944.196 952.15C944.438 951.57 944.678 950.982 944.923 950.404C946.233 947.295 947.861 944.073 948.899 940.765L944.808 987.391L944.196 952.15ZM953.166 991.71L956.02 959.179C958.545 959.022 961.034 958.745 963.548 958.548C962.769 962.788 963.726 967.361 964.122 971.686C964.703 978.04 965.454 984.44 966.713 990.705C962.204 991.065 957.711 991.48 953.166 991.71ZM971.818 990.323C971.044 983.915 970.029 977.531 969.261 971.118C968.748 966.815 968.93 962.262 967.584 958.208C974.726 957.575 981.796 956.713 988.826 955.723C990.174 960.886 990.552 966.885 991.555 971.727C992.654 977.035 993.766 982.346 995.015 987.624C987.347 988.734 979.607 989.607 971.818 990.323ZM1000.47 986.733C999.029 978.949 997.27 971.197 995.519 963.483C994.924 960.853 994.555 957.79 993.752 954.96C1002 953.702 1010.14 952.129 1018.22 950.399C1019.76 960.973 1023.41 971.692 1026.22 981.877C1017.72 983.728 1009.14 985.369 1000.47 986.733ZM1030.91 980.851C1028.35 970.619 1026.31 959.466 1022.5 949.479C1029.73 947.855 1036.87 945.982 1043.95 943.99C1046.55 954.451 1050.77 964.745 1054.29 974.874C1046.58 977.085 1038.78 979.049 1030.91 980.851ZM1059.42 973.384C1059.4 973.326 1059.42 973.277 1059.4 973.219C1055.92 963.155 1052.95 952.465 1048.56 942.691C1055.49 940.659 1062.31 938.418 1069.08 936.043C1069.37 939.662 1071.98 943.916 1073.12 946.7C1075.79 953.218 1078.73 959.672 1082.09 965.876C1074.61 968.558 1067.07 971.089 1059.42 973.384ZM1087.39 963.908C1083.61 955.606 1079.64 947.391 1075.92 939.059C1075.96 939.145 1074.97 936.576 1073.72 934.428C1080.43 931.985 1087.06 929.367 1093.6 926.596C1096.04 936.842 1101.81 946.883 1107.33 955.917C1100.77 958.731 1094.12 961.397 1087.39 963.908ZM1131.67 944.677C1125.52 947.763 1119.29 950.712 1112.98 953.52C1107.49 944.171 1103.34 934.026 1097.87 924.745C1104.64 921.792 1111.3 918.617 1117.87 915.325C1119.58 921.15 1122.43 926.677 1124.98 932.151C1126.96 936.366 1128.36 941.434 1131.67 944.677ZM1136.18 942.37C1135.65 937.615 1132.23 932.997 1130.14 928.827C1127.54 923.633 1125.07 918.109 1121.66 913.358C1128.11 910.048 1134.43 906.524 1140.68 902.9C1143.77 912.984 1149.22 923.403 1154.56 932.327C1148.51 935.807 1142.39 939.162 1136.18 942.37ZM1181.65 915.364C1174.6 920.128 1167.39 924.674 1160.06 929.044C1155.89 919.375 1151.26 908.972 1145.74 899.934C1151.55 896.459 1157.25 892.815 1162.88 889.074C1164.45 892.387 1167.48 895.452 1169.4 898.193C1173.41 903.959 1177.4 909.778 1181.65 915.364ZM1194.14 882.735C1198.54 887.379 1203.02 891.957 1207.47 896.556C1200.65 901.898 1193.73 907.113 1186.6 912.067C1182.68 906.153 1178.45 900.424 1174.27 894.686C1172.34 892.025 1170.47 888.253 1167.92 885.689C1173.82 881.642 1179.57 877.409 1185.25 873.076C1187.84 876.576 1191.2 879.635 1194.14 882.735ZM1218.11 863.436C1222.45 867.837 1226.45 872.471 1230.44 877.187C1230.46 877.217 1230.5 877.229 1230.52 877.259C1224.58 882.59 1218.47 887.737 1212.24 892.749C1207.71 888.11 1203.21 883.444 1198.65 878.847C1195.7 875.871 1192.77 872.495 1189.43 869.798C1195.98 864.662 1202.38 859.342 1208.61 853.843C1211.57 857.239 1214.97 860.241 1218.11 863.436ZM1235.4 872.856C1229.04 864.911 1221.42 855.869 1212.62 850.271C1216.08 847.143 1219.49 843.97 1222.83 840.715L1248.19 860.654C1244.02 864.813 1239.73 868.857 1235.4 872.856ZM1245.81 847.713L983.872 641.735L987.86 596.271L1245.81 847.713ZM896.009 586.881C871.368 563.253 870.547 524.12 894.175 499.479C917.803 474.839 956.938 474.015 981.579 497.643C1006.22 521.274 1007.04 560.406 983.413 585.049C959.782 609.693 920.653 610.511 896.009 586.881ZM1200.22 561.984L1213.59 560.469C1211.93 585.983 1206.91 610.613 1198.92 633.902C1199.79 635.047 1200.59 636.207 1201.43 637.36C1192.92 628.549 1185.01 619.085 1177.34 610.34C1175.15 607.844 1172.92 605.381 1170.67 602.94C1173.84 590.497 1176.05 577.687 1177.25 564.592L1192.54 562.856C1191.1 580.994 1187.86 598.646 1182.9 615.588C1184.97 617.622 1186.99 619.703 1188.95 621.864C1194.88 602.707 1198.69 582.653 1200.22 561.984ZM1173.34 755.544C1174.59 759.617 1175.44 764.047 1176.74 768.239L1165.08 756.868C1163.28 748.511 1160.92 739.827 1157.96 731.594L1169.93 745.425C1171.09 748.795 1172.3 752.151 1173.34 755.544ZM1177.62 754.303L1186.49 764.551C1187.44 768.516 1188.52 772.455 1189.53 776.388C1190 778.239 1190.44 780.127 1190.88 782.02L1181.67 773.039C1181.77 766.842 1179.56 760.258 1177.62 754.303ZM1001.6 586.944C1004.99 586.46 1008.38 586.045 1011.79 585.706C1012.23 589.537 1012.87 593.36 1013.38 597.121C1013.98 601.536 1014.3 606.181 1015.1 610.668L1002.08 597.974C1002.44 594.71 1002.28 590.792 1001.6 586.944ZM997.586 593.592L992.32 588.457C993.753 588.196 995.186 587.949 996.622 587.715C996.984 589.663 997.285 591.628 997.586 593.592ZM1017.91 596.264C1017.45 592.638 1017.08 588.944 1016.55 585.286C1019.79 585.029 1023.05 584.839 1026.32 584.717C1027.57 599.359 1030.78 614.612 1033.68 628.781L1019.92 615.364C1020.15 609.029 1018.69 602.481 1017.91 596.264ZM1037.06 631.155C1036.37 616.376 1034.82 599.441 1030.66 584.547L1039.61 594.895C1040.08 602.865 1041.9 610.816 1043.36 618.623C1044.85 626.594 1046.12 634.682 1047.88 642.627L1036.8 631.824C1036.93 631.628 1037.07 631.45 1037.06 631.155ZM1141.19 698.93L1131.05 687.219C1138.22 677.335 1144.66 666.903 1150.33 656.004C1154.81 658.244 1159.29 660.562 1163.8 662.871C1157.22 675.518 1149.66 687.575 1141.19 698.93ZM1170.62 666.295C1174.56 668.241 1178.56 670.115 1182.63 671.863C1174.76 687.107 1165.56 701.558 1155.15 715.054L1146.31 704.841C1155.45 692.736 1163.58 679.84 1170.62 666.295ZM1126.36 681.797L1091.08 641.046C1110.75 639.352 1127.63 645.167 1144.05 652.945C1138.82 662.995 1132.91 672.634 1126.36 681.797ZM1047.98 617.747C1046.93 612.142 1046.02 606.401 1044.72 600.784L1057.05 615.03C1058.59 623.933 1061.32 632.698 1063.42 641.448C1065.03 648.111 1065.88 655.466 1067.95 662.19L1053.18 647.789C1052.03 637.712 1049.83 627.706 1047.98 617.747ZM1067.51 638.589C1066.18 633.113 1064.85 627.547 1063.18 622.107L1079.41 640.855C1080.89 654.726 1084.67 669.165 1089 682.704L1072.66 666.769C1073.07 657.482 1069.66 647.435 1067.51 638.589ZM1085.67 648.087L1097.67 661.954C1099.75 675.466 1104.38 690.307 1109.77 702.948L1095.47 689.015C1092.88 675.699 1089.9 661.399 1085.67 648.087ZM1115.8 708.354C1113.9 698.545 1110.32 689.011 1107.42 679.453C1106.46 676.282 1105.53 673.086 1104.56 669.906L1116.19 683.343C1116.19 683.378 1116.16 683.394 1116.17 683.429C1116.98 691.611 1120.2 699.625 1122.61 707.465C1123.75 711.169 1124.75 714.967 1125.92 718.693L1115.8 708.835C1115.82 708.682 1115.84 708.529 1115.8 708.354ZM1126.2 703.171C1124.8 698.663 1123.45 694.06 1121.67 689.669L1136.39 706.674C1137.34 712.411 1138.72 718.068 1140.07 723.758C1140.9 727.275 1141.47 731.072 1142.36 734.722L1131.79 724.413C1130.83 717.228 1128.32 710.041 1126.2 703.171ZM1144.43 722.931C1143.69 719.73 1142.96 716.538 1142.17 713.356L1150.35 722.804C1151.86 731.584 1154.48 740.785 1157.61 749.585L1148.08 740.293C1147.93 734.47 1145.74 728.568 1144.43 722.931ZM1186.63 751.415C1186.54 751.2 1186.47 750.975 1186.38 750.763C1186.2 750.334 1185.88 750.196 1185.55 750.165L1160.64 721.394C1171.95 706.903 1181.91 691.336 1190.35 674.868C1215.92 684.19 1243.51 684.808 1269.64 677.154C1273.14 676.131 1271.47 671.17 1268.22 671.261C1242.46 671.96 1222.45 658.213 1205.09 641.062C1214.4 615.331 1220.19 587.961 1221.89 559.528L1337.5 546.416C1336.15 646.676 1298.39 738.585 1236.56 809.099L1186.63 751.415ZM1164.91 596.882C1157.81 589.693 1150.22 583.018 1141.73 577.452C1137.88 574.923 1133.51 572.334 1128.9 570.07L1170.14 565.393C1169.09 576.109 1167.32 586.613 1164.91 596.882ZM1217.33 659.616C1211.27 656.691 1205.38 653.412 1199.69 649.746C1181.66 638.145 1165.34 623.734 1145.83 614.537C1129.46 606.827 1111.56 604.181 1094 600.605C1083.97 598.57 1073.85 596.241 1064.49 591.984C1059.41 589.675 1054.32 584.465 1049.05 581.706C1048.12 580.931 1047.15 580.175 1046.15 579.46L1112.74 571.907C1117.35 573.083 1121.93 574.367 1126.37 576.438C1134.43 580.208 1141.82 585.275 1148.67 590.926C1164.46 603.964 1176.93 620.4 1190.74 635.392C1198.84 644.185 1207.66 652.631 1217.33 659.616ZM1259.53 848.92L1252.26 841.852C1252.19 841.324 1252.1 840.801 1252.04 840.273L1259.53 848.92ZM1241.45 828.032C1241.95 829.691 1242.54 831.362 1243.21 833.028L1235.37 825.381C1234.4 822.127 1232.19 818.899 1230.82 816.117C1230.67 815.835 1230.53 815.548 1230.39 815.268L1241.45 828.032ZM1221.49 804.978C1222.79 809.126 1224.73 813.037 1226.69 816.924L1216.32 806.817C1215.34 802.978 1213.77 799.189 1212.48 795.611C1212.25 794.992 1212.01 794.381 1211.77 793.764L1221.49 804.978ZM1208.62 795.873C1209.24 797.532 1209.79 799.247 1210.33 800.977L1196.86 787.849C1195.88 783.119 1194.39 778.435 1193.24 773.83C1193.07 773.141 1192.9 772.447 1192.73 771.758L1204.5 785.364C1205.85 788.875 1207.29 792.349 1208.62 795.873ZM1265.44 842.454L1236.7 809.252C1237.72 810.348 1238.73 811.447 1239.72 812.488C1241.39 814.24 1242.98 816.068 1244.52 817.933C1247.53 814.521 1250.43 811.016 1253.33 807.51C1255.95 810.503 1259.8 812.614 1262.87 815.147C1267.96 819.323 1272.76 823.83 1277.78 828.066C1273.76 832.942 1269.66 837.752 1265.44 842.454ZM1280.89 824.187C1276.63 819.823 1271.96 815.85 1267.24 812.005C1263.95 809.319 1260.48 805.628 1256.5 803.736C1260.6 798.672 1264.53 793.485 1268.39 788.228C1276.94 794.472 1285.74 800.413 1294.32 806.637C1289.98 812.594 1285.51 818.453 1280.89 824.187ZM1297.3 802.473C1288.89 796.067 1280.2 789.777 1271.12 784.377C1275.67 778.023 1279.99 771.498 1284.19 764.889C1292.28 771.398 1302.4 776.657 1311.49 781.363C1306.96 788.546 1302.21 795.569 1297.3 802.473ZM1314.37 776.839C1305.17 771.736 1296.12 765.662 1286.7 760.936C1291.26 753.578 1295.57 746.061 1299.68 738.418C1303 741.291 1307.68 743.077 1311.42 744.847C1317 747.485 1322.72 749.771 1328.53 751.849C1324.04 760.33 1319.37 768.691 1314.37 776.839ZM1331.19 746.808C1325.25 744.695 1319.39 742.434 1313.64 739.823C1309.82 738.085 1305.94 735.519 1301.82 734.357C1305.16 727.981 1308.31 721.498 1311.32 714.942C1320.37 720.191 1330.84 723.699 1340.5 727.58C1337.55 734.076 1334.43 740.482 1331.19 746.808ZM1342.59 723.025C1332.95 719.054 1322.99 714.229 1312.83 711.649C1316.18 704.177 1319.3 696.58 1322.22 688.896C1324.76 691.045 1329.46 692.4 1332.34 693.687C1338.61 696.488 1344.9 699.231 1351.21 701.95C1348.49 709.057 1345.65 716.099 1342.59 723.025ZM1353.09 696.79C1347.67 694.483 1342.26 692.18 1336.81 689.949C1332.66 688.246 1328.18 685.893 1323.7 684.941C1325.83 679.157 1327.82 673.305 1329.7 667.405C1338.8 672.461 1349.72 675.366 1359.6 677.749C1357.57 684.159 1355.4 690.506 1353.09 696.79ZM1361.26 672.441C1350.99 669.794 1341.26 665.464 1331.24 662.257C1332.76 657.255 1334.18 652.204 1335.52 647.127C1345.23 650.952 1356.19 653.209 1365.96 655.754C1364.49 661.358 1362.94 666.921 1361.26 672.441ZM1367.38 650.342C1357.72 647.479 1347.12 643.686 1336.81 641.934C1338.29 636.037 1339.6 630.074 1340.84 624.085C1344.79 625.285 1349.31 625.539 1353.13 626.055C1359.52 626.919 1365.97 627.543 1372.42 627.72C1370.94 635.336 1369.24 642.865 1367.38 650.342ZM1373.35 622.603C1373.26 622.585 1373.2 622.54 1373.11 622.529C1366.71 622.081 1360.32 621.713 1353.96 620.912C1350.18 620.436 1345.94 619.237 1341.9 618.94C1343.32 611.516 1344.48 604.009 1345.51 596.458C1349.48 596.619 1353.49 596.515 1357.41 596.468C1364.03 596.388 1370.7 596.477 1377.3 596.028C1376.23 604.962 1374.95 613.834 1373.35 622.603ZM1377.92 590.767C1377.68 590.693 1377.44 590.609 1377.16 590.597C1370.77 590.428 1364.34 590.81 1357.94 591.018C1354.04 591.144 1350.06 591.209 1346.13 591.516C1347.15 583.283 1347.94 574.984 1348.49 566.621C1359 566.826 1369.71 565.496 1380.09 564.224C1379.65 573.15 1378.88 581.981 1377.92 590.767ZM1380.28 558.023C1369.85 559.28 1359.21 559.789 1348.79 561.232C1349.07 555.867 1349.27 550.487 1349.33 545.068L1380.66 541.516C1380.66 547.051 1380.47 552.539 1380.28 558.023ZM1107.04 563.8C1105.15 563.732 1103.29 563.797 1101.45 564.065C1101.05 564.124 1100.7 564.312 1100.4 564.553L1037.51 571.687C1032.67 565.625 1027.7 559.674 1022.41 553.985C1018.76 550.052 1015.16 545.351 1010.53 542.578C1009.62 541.546 1008.75 540.485 1007.84 539.452L1378.02 533.067L1107.04 563.8ZM1380.25 524.317L1334.38 525.109C1331.11 523.531 1327.65 522.305 1324.39 520.705C1323.75 520.393 1323.11 520.017 1322.46 519.661L1380.24 524.172C1380.24 524.223 1380.25 524.269 1380.25 524.317ZM1379.88 515.416L1348.56 512.97C1348.28 508.767 1347.86 504.603 1347.45 500.43C1352.14 500.016 1356.82 499.579 1361.52 499.308C1367.09 498.987 1373.08 499.536 1378.56 498.324C1379.1 503.995 1379.54 509.692 1379.88 515.416ZM1378.09 493.921C1372.33 492.934 1366.08 493.814 1360.33 494.23C1355.88 494.55 1351.44 494.974 1347.02 495.52C1346.65 492.078 1346.16 488.674 1345.7 485.256C1349.1 485.542 1352.67 484.193 1356.15 483.553C1362.76 482.332 1369.88 481.775 1376.31 479.746C1376.96 484.453 1377.59 489.168 1378.09 493.921ZM1375.73 475.501C1369.28 475.588 1362.67 477.3 1356.4 478.547C1352.77 479.275 1348.46 479.444 1345.15 481.156C1344.47 476.411 1343.7 471.702 1342.86 467.012C1343.4 467.647 1344.55 467.974 1345.32 467.729C1354.66 464.727 1363.77 462.851 1373.4 461.607C1374.23 466.218 1375.04 470.843 1375.73 475.501ZM1372.41 456.324C1362.55 456.857 1352.59 459.128 1343.5 462.846C1342.91 463.087 1342.54 463.563 1342.34 464.12C1341.46 459.39 1340.51 454.687 1339.48 450.018C1344.77 449.166 1350 447.875 1355.25 446.737C1359.86 445.733 1365.31 445.464 1369.68 443.442C1370.64 447.72 1371.57 452.003 1372.41 456.324ZM1368.52 438.377C1364.2 438.421 1359.76 440.177 1355.52 441.122C1349.81 442.397 1343.99 443.459 1338.35 445.059C1337.55 441.659 1336.74 438.254 1335.86 434.884C1340.74 433.748 1345.54 432.173 1350.33 430.728C1355.34 429.217 1360.48 427.902 1365.38 426.033C1366.48 430.127 1367.55 434.234 1368.52 438.377ZM1364.12 421.374C1358.03 422.775 1352.02 425.037 1346.12 426.92C1342.3 428.144 1338.46 429.322 1334.72 430.75C1333.76 427.228 1332.85 423.683 1331.8 420.196C1341.58 418.708 1352.2 415.424 1361.29 411.794C1362.25 414.974 1363.22 418.159 1364.12 421.374ZM1359.84 406.958C1354.18 408.294 1348.59 410.268 1343.05 411.955C1338.82 413.241 1334.56 414.468 1330.48 416.145C1329.36 412.566 1328.23 409.005 1327.02 405.47C1336.8 403.251 1346.88 399.651 1355.97 395.284C1357.3 399.154 1358.61 403.038 1359.84 406.958ZM1354.27 390.505C1344.67 393.879 1335.01 397.501 1325.63 401.433C1324 396.813 1322.28 392.238 1320.49 387.69C1330.53 385.87 1340.39 382.302 1349.51 377.811C1351.16 382.018 1352.75 386.244 1354.27 390.505ZM1347.35 372.535C1337.96 376.854 1328.43 380.02 1318.6 383.004C1316.73 378.402 1314.8 373.831 1312.76 369.311C1317.7 367.489 1322.56 365.454 1327.42 363.45C1331.89 361.607 1337.06 360.366 1340.76 357.274C1343.04 362.318 1345.26 367.394 1347.35 372.535ZM1338.85 353.102C1334.39 353.563 1330.19 356.166 1326.05 357.908C1320.87 360.09 1315.62 362.16 1310.52 364.551C1308.35 359.868 1306.12 355.22 1303.78 350.64C1308.96 348.434 1313.9 345.695 1318.9 343.067C1322.77 341.027 1327.34 339.411 1330.75 336.608C1333.55 342.054 1336.27 347.535 1338.85 353.102ZM1328.26 331.769C1324.01 333.024 1320.1 335.925 1316.22 338.023C1311.25 340.709 1306.22 343.287 1301.5 346.367C1298.42 340.52 1295.21 334.759 1291.87 329.077C1296.42 328.307 1300.98 324.629 1304.84 322.618C1309.25 320.323 1314.96 318.564 1319.18 315.496C1322.31 320.859 1325.35 326.269 1328.26 331.769ZM1316.2 310.443C1311.24 311.879 1306.33 315.269 1302.13 317.501C1298.24 319.561 1292.54 321.575 1289.56 325.182C1285.51 318.461 1281.34 311.817 1276.93 305.345C1279.38 304.051 1281.62 302.209 1283.92 300.58C1289.63 296.536 1295.2 292.272 1300.77 288.035C1301.01 287.852 1301.13 287.646 1301.29 287.439C1306.46 294.966 1311.49 302.598 1316.2 310.443ZM1298.24 283.09C1297.73 283.147 1297.23 283.297 1296.74 283.661C1291.5 287.601 1286.26 291.543 1281.13 295.627C1278.82 297.471 1276.2 299.242 1274.13 301.404C1269.9 295.346 1265.5 289.427 1260.96 283.608C1269.66 278.763 1277.85 271.597 1284.73 264.988C1289.36 270.915 1293.9 276.926 1298.24 283.09ZM1281.18 260.556C1273.56 266.472 1264.94 272.655 1257.8 279.577C1253 273.572 1248.09 267.659 1242.97 261.925C1247.09 260.917 1250.71 257.239 1253.92 254.717C1258.4 251.201 1262.72 247.543 1266.98 243.795C1271.83 249.277 1276.59 254.839 1281.18 260.556ZM1262.78 239.122C1258.72 242.463 1254.67 245.81 1250.62 249.184C1247.17 252.063 1242.25 254.878 1240.29 259.056C1237.18 255.636 1234.06 252.216 1230.84 248.899C1229.68 250.278 1228.5 251.627 1227.3 252.958L1249.62 225.302C1254.09 229.825 1258.5 234.412 1262.78 239.122Z" fill="#211915"/>
<path d="M516.853 894.625C514.351 892.964 511.762 891.674 509.085 890.742C506.405 889.823 503.772 889.323 501.171 889.253C498.58 889.183 496.331 889.64 494.439 890.614C490.827 892.587 488.323 895.089 486.927 898.105C485.527 901.121 484.932 904.351 485.137 907.8C485.257 909.865 485.678 911.954 486.238 914.053C486.372 914.814 486.53 915.585 486.737 916.352C489.752 927.507 497.75 937.017 506.111 945.618C508.927 949.001 511.748 952.384 514.624 955.596C518.44 959.844 522.264 964.039 526.106 968.172C529.729 972.061 533.312 975.975 536.87 979.901C534.667 978.786 532.399 977.708 530.076 976.713C527.291 975.249 524.512 973.761 521.715 972.331C516.804 969.811 511.893 967.177 506.986 964.467C506.557 964.055 506.076 963.699 505.607 963.329C505.069 962.195 504.413 960.918 503.597 959.407C502.647 957.683 501.65 955.914 500.609 954.118C499.571 952.319 498.51 950.653 497.434 949.118C496.35 947.585 495.37 946.36 494.462 945.47C493.577 944.682 492.429 943.945 491.012 943.254C489.587 942.571 488.172 942.122 486.752 941.912C485.342 941.702 484.016 941.842 482.788 942.326C481.556 942.816 480.697 943.832 480.207 945.388C479.803 947.094 480.007 948.727 480.839 950.278C481.669 951.837 482.777 953.298 484.152 954.667C485.541 956.033 487.066 957.261 488.729 958.347C490.394 959.44 491.856 960.308 493.105 960.977L502.497 966.537C504.862 972.356 508.617 978.245 512.209 983.68C508.878 981.379 505.511 979.133 502.057 977.013C496.844 973.815 491.304 970.657 485.552 967.86C485.392 967.761 485.24 967.655 485.08 967.556C482.855 966.236 480.388 964.694 477.668 962.933C474.947 961.172 472.105 959.564 469.131 958.104C466.159 956.641 463.13 955.436 460.054 954.472C456.976 953.511 453.991 953.077 451.087 953.176C447.597 953.445 444.742 954.379 442.52 955.978C440.295 957.581 438.679 959.573 437.665 961.957C436.661 964.336 436.28 966.938 436.535 969.751C436.682 971.408 437.1 973.006 437.658 974.583C439.295 980.672 443.757 984.357 449.158 986.314C449.569 986.489 449.958 986.702 450.384 986.856C452.744 987.693 455.146 988.256 457.619 988.517C460.084 988.776 462.402 988.844 464.569 988.718C465.327 988.572 465.894 988.293 466.263 987.893C466.636 987.488 466.8 987.031 466.769 986.528C466.725 986.037 466.525 985.565 466.166 985.122C465.801 984.687 465.24 984.398 464.483 984.261C462.595 984.675 460.585 984.888 458.45 984.905C457.403 984.909 456.371 984.846 455.352 984.723C455.089 984.664 454.835 984.591 454.576 984.522C451.977 983.087 449.631 981.227 447.522 978.985C447.123 978.313 446.727 977.639 446.329 976.968C449.118 969.243 453.884 966.426 460.658 968.583C464.916 969.194 469.391 970.368 473.451 971.663C474.981 972.153 476.488 972.73 477.995 973.302C478.568 973.661 479.169 974.059 479.721 974.388C483.568 976.925 487.518 979.51 491.564 982.178C495.604 984.84 499.649 987.467 503.681 990.076C507.713 992.686 511.699 995.186 515.632 997.591C517.017 998.436 518.381 999.234 519.739 1000.02C525.273 1004.9 530.655 1009.97 536.092 1015.02C538.876 1017.59 542.118 1013.63 540.429 1010.79C540.469 1010.76 540.509 1010.73 540.552 1010.7C540.244 1010.38 539.929 1010.06 539.622 1009.73C531.603 1001.42 525.417 993.088 520.361 982.923C532.093 986.282 543.314 988.868 554.226 994.887C556.179 995.966 557.759 994.449 557.997 992.707C558.455 992.464 558.929 992.235 559.354 991.963C547.043 977.146 532.333 963.784 519.018 950.114C514.436 945.41 509.404 940.52 504.891 935.26C504.222 934.335 503.542 933.443 502.883 932.502C501.285 930.277 499.425 927.665 497.313 924.667C496.964 924.173 496.675 923.657 496.347 923.157C495.782 922.112 495.216 921.075 494.732 919.998C491.572 912.912 491.113 902.567 499.921 899.451C509.858 895.938 517.482 903.742 521.676 911.659C521.613 911.783 521.577 911.914 521.503 912.032C521.302 912.747 521.337 913.309 521.616 913.741C521.894 914.163 522.278 914.47 522.758 914.661C523.138 914.806 523.531 914.76 523.938 914.7C525.378 915.134 527.115 913.847 526.608 911.91C526.531 911.606 526.425 911.305 526.335 911.004C526.644 909.584 526.736 908.162 526.4 906.717C525.841 904.356 524.744 902.162 523.087 900.149C521.441 898.126 519.36 896.286 516.853 894.625ZM486.215 950.191C485.157 948.907 484.432 947.374 484.036 945.592C486.078 945.371 487.842 945.701 489.324 946.569C490.809 947.439 492.15 948.595 493.348 950.023C494.552 951.452 495.627 953.056 496.584 954.847C497.538 956.634 498.424 958.317 499.231 959.904C497.679 958.849 496.102 957.846 494.485 956.884C492.874 955.928 491.358 954.898 489.939 953.787C488.513 952.679 487.278 951.485 486.215 950.191Z" fill="#211915"/>
<path d="M1396 958.82C1392.2 956.305 1387.93 954.641 1383.19 953.829C1378.45 953.022 1373.42 952.738 1368.1 952.984C1362.78 953.233 1357.58 953.358 1352.49 953.352C1351.46 953.351 1350.48 953.247 1349.47 953.207C1345.28 952.888 1341.02 952.178 1337.33 950.445C1335.65 949.561 1334.11 948.511 1332.72 947.346C1332.13 946.768 1331.61 946.117 1331.12 945.406C1330.24 942.583 1328.97 939.888 1328.7 936.861C1328.78 934.947 1329.27 933.089 1330.34 931.513C1336.55 922.403 1352.52 941.889 1339.94 943.813C1339.5 943.884 1339.29 944.596 1339.79 944.756C1340 944.823 1340.2 944.852 1340.4 944.906C1340.44 945.124 1340.54 945.331 1340.75 945.477C1346.25 949.328 1353.99 946.156 1356.45 940.131C1359.94 931.579 1353.36 922.785 1345.67 919.629C1337.53 916.297 1328.9 919.085 1324.63 926.917C1324.27 927.587 1323.97 928.316 1323.7 929.076C1322.97 930.069 1322.33 931.141 1321.91 932.382C1317.31 945.943 1330.26 956.645 1341.98 959.386C1346.14 960.355 1350.37 960.6 1354.61 960.717C1357.75 961.148 1360.87 961.625 1363.9 962.391C1376.75 965.666 1401.72 979.227 1394.32 994.01C1393.51 994.949 1392.68 995.873 1391.71 996.71C1389.24 998.832 1386.46 1000.27 1383.35 1001.03C1381.25 1001.54 1379 1001.63 1376.63 1001.36C1371.04 999.815 1366.06 995.988 1362.08 991.435C1364.67 991.383 1367.31 990.831 1369.66 989.751C1374.19 988.164 1377.92 984.241 1378.51 979.348C1379.31 972.774 1374.18 968.683 1368.96 968.824C1368.7 968.371 1368.33 967.951 1367.7 967.613C1364.72 967.897 1362.24 968.931 1360.27 970.707C1358.29 972.49 1356.84 974.616 1355.93 977.092C1355.01 979.568 1354.63 982.171 1354.76 984.902C1354.79 985.398 1354.94 985.843 1355 986.321C1349.78 984.406 1345.14 980.44 1341.44 976.507C1340.71 975.733 1339.26 976.337 1339.7 977.468C1342.35 984.241 1349.14 989.025 1356.26 990.742C1356.49 991.275 1356.65 991.842 1356.95 992.347C1358.79 995.514 1361.18 998.128 1364.11 1000.19C1367.06 1002.26 1370.21 1003.68 1373.56 1004.47C1375.35 1004.88 1377.16 1005.1 1378.99 1005.17C1382.29 1005.84 1385.75 1005.92 1389.32 1005.12C1397.99 1003.17 1405.37 994.654 1405.62 985.748C1405.76 984.68 1405.84 983.624 1405.78 982.579C1405.96 981.427 1406.13 980.273 1406.16 979.103C1406.24 976.204 1405.78 973.467 1404.79 970.893C1402.74 965.365 1399.81 961.335 1396 958.82ZM1365.52 975.073C1373.82 974.354 1373.15 983.241 1367.48 986.199C1365.59 986.531 1363.62 986.514 1361.69 986.297C1360.32 986.146 1359.11 985.914 1357.86 985.942C1357.71 980.986 1360.52 975.506 1365.52 975.073Z" fill="#211915"/>
<path d="M1385.19 107.83C1381.19 105.401 1376.6 104.3 1371.41 104.516C1368.97 104.644 1366.58 105.29 1364.25 106.383C1363.3 106.609 1362.38 106.88 1361.47 107.248C1358.4 104.267 1354.89 101.802 1351.44 100.067C1350.74 99.7176 1349.95 100.671 1350.47 101.276C1352.8 103.957 1355.63 106.339 1358.24 108.877C1348.27 115.418 1346.96 130.091 1355.82 138.407C1361.59 143.828 1367.77 138.815 1369.92 131.919C1372.1 124.896 1369.9 117.997 1365.75 112.217C1371.78 111.678 1378.85 114.664 1382.13 119.184C1387.22 126.196 1387.39 135.832 1383.92 143.523C1377.9 156.871 1363.03 163.381 1349.12 159.482C1344.49 158.184 1340.01 155.632 1336.35 152.333C1335.19 150.231 1334.2 147.965 1333.49 145.388C1331.94 139.766 1331.85 134.222 1332.69 128.483C1332.98 126.514 1334.22 124.026 1333.52 121.96C1333.42 121.654 1333.31 121.435 1333.22 121.18C1333.42 120.957 1333.64 120.731 1333.82 120.544C1333.93 120.432 1334.03 120.213 1334.14 119.875C1334.19 119.82 1334.22 119.764 1334.21 119.708C1334.21 119.652 1334.24 119.598 1334.3 119.538L1334.28 118.546L1334.19 118.466L1333.93 117.723C1333.59 117.399 1333.3 117.186 1333.09 117.081C1332.64 116.871 1332.12 116.798 1331.51 116.867C1331.4 116.872 1331.32 116.897 1331.26 116.954C1331.16 116.956 1331.09 116.973 1331.06 117.001C1331.03 117.03 1330.96 117.044 1330.85 117.047C1330.74 117.158 1330.63 117.217 1330.52 117.221C1330.23 117.528 1329.86 117.892 1329.49 118.254C1328.17 118.014 1326.51 118.505 1324.77 119.142C1316.75 120.146 1309.3 120.536 1302.3 114.486C1301.22 113.559 1300.31 112.567 1299.5 111.548C1302 110.133 1304.34 108.549 1306.49 106.752C1310.26 103.61 1312.89 100.336 1314.36 96.9368C1315.84 93.5424 1315.88 90.2545 1314.49 87.0806C1313.09 83.9093 1309.68 81.3279 1304.22 79.3443C1302.84 79.3199 1301.38 79.46 1299.84 79.7698C1298.3 80.0796 1296.96 80.6578 1295.82 81.5092C1293.11 83.7762 1290.96 86.2095 1289.39 88.8091C1287.81 91.4111 1286.75 94.0941 1286.2 96.8708C1285.65 99.6423 1285.55 102.43 1285.88 105.239C1286.21 108.051 1286.94 110.737 1288.04 113.308C1281.72 114.826 1275.78 114.704 1270.22 112.939C1269.57 113.062 1269.1 113.408 1268.83 113.966C1268.58 114.521 1268.5 115.106 1268.62 115.709C1268.75 116.315 1269.05 116.821 1269.53 117.223C1270 117.626 1270.65 117.739 1271.48 117.554C1274.42 118.103 1277.39 118.219 1280.39 117.904C1283.39 117.592 1286.38 116.966 1289.34 116.018C1290.78 118.695 1292.57 121.139 1294.71 123.358C1296.86 125.574 1299.24 127.431 1301.86 128.919C1304.49 130.409 1307.32 131.468 1310.34 132.097C1313.36 132.726 1316.44 132.756 1319.58 132.188C1319.8 132.189 1319.93 132.155 1319.99 132.098C1318.63 138.148 1318.64 143.681 1320.05 148.703C1321.45 153.722 1323.84 158.021 1327.23 161.591C1330.62 165.163 1334.79 167.92 1339.75 169.86C1344.7 171.801 1350.05 172.656 1355.79 172.424C1359.81 172.174 1363.62 171.363 1367.2 169.992C1370.79 168.618 1374.12 166.835 1377.2 164.649C1380.27 162.459 1383.07 159.93 1385.61 157.058C1388.15 154.187 1390.32 151.134 1392.13 147.893C1395.27 142.361 1396.94 136.958 1397.13 131.681C1397.32 126.401 1396.39 121.718 1394.31 117.617C1392.22 113.523 1389.19 110.262 1385.19 107.83ZM1365.02 118.053C1366.42 121.497 1367.47 135.68 1360.01 135.294C1359.83 135.285 1359.65 135.22 1359.48 135.122C1358.97 134.315 1358.43 133.504 1357.87 132.686C1356.32 128.66 1355.7 121.281 1355.96 120.255C1356.9 116.5 1359.19 114.216 1362.07 113.069C1363.26 114.589 1364.28 116.223 1365.02 118.053ZM1298.35 96.104C1299.38 93.6864 1301.1 91.2367 1303.53 90.045C1305.3 89.7533 1307.5 90.2928 1308.94 91.1281C1310.13 91.8161 1310.96 92.8477 1311.87 93.8217C1311.57 95.684 1311.04 97.6024 1309.98 99.6385C1308.52 102.46 1306.3 104.808 1303.3 106.694C1301.6 107.812 1299.9 108.787 1298.17 109.653C1296.85 105.197 1296.45 100.561 1298.35 96.104ZM1292.48 112.057C1290.91 108.387 1290.12 104.873 1290.11 101.504C1290.11 100.356 1290.28 99.204 1290.52 98.0481C1290.39 102.713 1291.46 107.464 1293.53 111.619C1293.18 111.747 1292.83 111.935 1292.48 112.057ZM1389.14 116.488C1390.29 118.297 1391.17 120.14 1391.79 122.016C1390.81 119.62 1389.56 117.256 1387.79 114.986C1385.42 111.952 1382.24 109.557 1378.7 107.951C1379.24 108.13 1379.78 108.287 1380.32 108.518C1383.74 109.961 1386.68 112.618 1389.14 116.488Z" fill="#211915"/>
<path d="M484.018 40.7386C483.902 40.6927 483.784 40.6493 483.625 40.701C471.126 44.7214 473.47 59.697 478.811 68.779C481.987 74.1841 486.282 78.7356 490.67 83.1782C492.096 84.9993 493.559 86.7509 495.024 88.4108C497.231 90.9106 499.556 93.2196 501.939 95.4408C501.966 95.4708 501.989 95.4983 502.015 95.5283C501.992 95.5211 501.964 95.5141 501.943 95.5043C492.81 91.8386 483.688 88.1394 474.484 84.6406C471.438 83.485 468.329 82.1499 465.168 80.8998C464.999 80.827 464.835 80.7591 464.665 80.6863C459.369 78.3659 454.426 75.651 449.841 72.5366C447.912 72.4828 446.889 72.8378 446.759 73.5917C446.728 73.7808 446.793 73.9932 446.81 74.194C444.929 74.3455 443.272 76.0429 444.411 78.2775C453.731 96.5363 470.684 109.097 484.741 123.499C491.27 130.188 497.211 137.516 501.314 145.969C504.689 152.926 503.994 162.519 508.357 168.564C508.348 168.615 508.349 168.671 508.335 168.722C508.363 168.699 508.385 168.67 508.407 168.647C508.486 168.752 508.537 168.876 508.616 168.981C508.676 169.059 508.834 169.081 508.906 169C509.66 168.142 510.192 167.171 510.624 166.153C510.921 165.75 511.234 165.372 511.502 164.92C512.422 163.379 512.962 161.847 513.305 160.315C513.038 156.089 512.294 151.819 510.953 147.491C509.521 142.856 507.599 138.25 505.194 133.669C502.786 129.096 500.013 124.607 496.883 120.209C493.751 115.809 490.424 111.601 486.892 107.596C483.788 104.076 480.567 100.793 477.269 97.6796C487.436 101.484 498.081 104.499 507.941 108.568C520.835 113.893 533.669 119.801 547.601 121.859C549.731 122.171 550.916 118.792 548.712 118.105C532.409 113.037 517.865 103.41 505.924 91.3114C496.359 81.6203 482.431 66.0755 485.748 51.2612C486.457 49.0032 487.327 46.7952 488.305 44.7454C489.689 41.8774 486.246 39.6887 484.018 40.7386Z" fill="#211915"/>
</g>
<defs>
<clipPath id="clip0_351_6531">
<rect width="1920" height="1080" fill="white"/>
</clipPath>
</defs>
</svg>
