<svg width="102" height="103" viewBox="0 0 102 103" fill="none" xmlns="http://www.w3.org/2000/svg">
<path d="M39.0952 21.4482C32.7126 18.303 29.1488 16.5188 27.6106 6.88235C26.671 10.2952 26.6705 12.2963 27.0504 15.8459C29.5343 19.9757 30.7746 22.3467 36.2941 25.3697C39.3029 27.0829 40.6642 28.4634 42.1765 32.0924L42.7367 36.2941L42.1765 41.6162L48.0588 39.3753L53.381 38.8151C55.4788 35.1686 56.3769 32.5395 57.8627 27.6106C56.1701 22.8404 55.354 21.396 53.9412 19.2073C50.8886 17.0372 49.9304 14.7915 48.619 10.2437C47.5043 6.63383 48.0463 4.60989 48.619 1C46.6292 4.2773 45.6922 6.20238 45.2577 10.2437C45.8374 15.2804 46.7908 17.0688 48.619 20.0476C50.4392 22.9936 51.4587 24.6461 51.9804 28.451C51.9465 30.6045 50.2997 33.493 50.2997 33.493L47.7787 37.4146C47.7816 33.5834 47.5259 31.4849 46.098 27.9302C44.1159 25.5952 41.6317 23.0542 39.0952 21.4482Z" fill="#646464"/>
<path d="M62.6246 30.4118C61.3422 32.7026 60.7164 34.0926 57.8627 34.6134L53.381 38.8151L59.2633 41.056C63.2894 37.9854 65.2935 36.0553 68.2269 32.0924L66.8263 21.4482C66.8263 21.4482 66.3926 17.1366 66.8263 14.1653C67.26 11.194 71.5882 5.48179 71.5882 5.48179C67.1926 7.88498 64.066 10.6925 62.6246 15.8459C61.712 19.1088 64.0721 21.0454 62.6246 30.4118Z" fill="#646464"/>
<path d="M72.7087 35.1737C70.3633 37.8087 68.833 39.1913 65.1457 39.0952L59.2633 41.056L63.1849 45.5378C69.9133 45.0559 73.0306 42.5097 78.0308 36.014C80.0677 32.1214 78.7721 29.4925 81.6723 25.3697C83.8929 22.2502 85.7665 20.8702 89.5154 18.6471L85.5938 19.2073C79.7241 21.2975 76.5904 23.2432 72.7087 35.1737Z" fill="#646464"/>
<path d="M75.2297 47.4986C72.7864 48.1465 71.5273 47.856 69.3473 46.9384L63.1849 45.5378L63.7451 51.7003L63.7588 51.9744L65.986 51.6374C77.3556 53.6021 78.2447 51.5111 82.2325 49.1793C84.1678 46.0624 85.4609 44.2538 91.4762 39.9356C94.1123 38.9911 96.2863 38.9578 100.44 39.0952C96.6984 37.1731 94.7084 35.9411 88.395 37.6947L88.2218 37.8392C84.3353 41.0831 82.1032 42.946 75.2297 47.4986Z" fill="#646464"/>
<path d="M73.549 58.1429C71.5547 57.5511 70.6605 56.8318 69.3473 55.0616L65.986 51.6374L63.7588 51.9744L64.0252 57.3025C70.3868 63.625 74.114 63.7853 80.8319 62.6246C83.2375 61.7334 84.7535 60.3838 88.1148 59.2633C91.3407 59.3985 93.6748 58.8722 95.3978 59.2633C97.6943 59.4306 98.8963 59.9092 101 60.944C99.3155 58.6846 98.186 57.44 92.8767 55.6218C90.3608 55.2458 88.9497 55.0015 86.4342 55.6218C84.7764 55.9468 84.0149 56.0302 80.2717 57.5826C79.4765 58.0704 78.7699 58.3055 73.549 58.1429Z" fill="#646464"/>
<path d="M73.549 69.6274C69.7862 68.4371 69.2703 67.9611 66.8263 63.465L64.0252 57.3025L60.1036 61.7843C63.4736 69.5545 66.2211 71.7202 71.5882 74.3894H81.3922C86.108 75.9219 88.375 77.8796 92.3165 81.6723C90.2822 76.7426 89.8223 73.8552 80.8319 70.1877L73.549 69.6274Z" fill="#646464"/>
<path d="M60.3838 72.4286V68.7871L60.1036 61.7843L55.6218 65.1457C54.7817 71.5242 53.9797 75.0661 63.465 82.5126C67.0651 84.4263 69.0387 85.022 72.9888 90.6358C74.2185 92.6016 74.6853 94.1043 75.5098 96.7983C76.0642 94.3918 75.8992 93.0424 75.5098 90.6358L75.4834 90.5456C74.7127 87.9131 73.8135 84.8415 69.3473 81.112C65.104 78.7165 63.0693 76.915 60.3838 72.4286Z" fill="#646464"/>
<path d="M50.8599 78.8711C50.3426 74.5371 50.5879 72.8056 52.2605 71.3081C53.075 68.999 54.1449 67.5844 55.6218 65.1457H48.619C46.655 70.353 46.3923 73.7999 45.5378 78.8711C46.554 82.058 47.0627 82.8467 48.8992 85.3137C51.6044 88.186 52.2869 89.8884 53.9412 92.8767C54.3407 96.5573 54.227 98.6888 53.1008 102.681L56.4622 97.0784C56.7031 95.1287 57.1295 93.0617 56.4622 90.6358C55.2212 86.1246 54.5588 86.1559 50.8599 78.8711Z" fill="#646464"/>
<path d="M39.0952 75.2297C41.0578 71.9378 42.159 70.5273 44.1373 69.6274L48.619 65.1457L43.8571 63.465C38.8056 67.0839 37.1647 69.3787 34.5838 73.549C34.2583 75.6269 34.1534 77.7304 34.3333 80.2717C35.279 83.2089 35.8938 84.7606 35.4538 89.2353C35.1437 92.9832 33.9341 94.8747 31.5322 98.1989C35.5358 96.1901 37.9043 95.2649 39.0952 88.6751C39.8375 84.1297 39.7399 81.0934 39.0952 75.2297Z" fill="#646464"/>
<path d="M30.1317 68.7871C32.5921 65.6771 34.1109 65.1759 36.8543 64.5854L43.8571 63.465L39.6555 58.7031C31.5792 60.3037 29.2344 62.2195 25.8025 65.986C25.3683 66.8382 24.9517 67.7614 24.5294 68.7871L22.2885 77.1905C19.6846 81.4173 17.4508 82.9755 13.0448 85.3137C18.4756 84.7747 21.4854 84.3361 25.6499 78.8711C26.9327 76.0692 28.4082 73.6046 30.1317 68.7871Z" fill="#646464"/>
<path d="M26.7703 57.0224C29.5182 56.3881 31.009 56.2816 33.493 57.0224L39.6555 58.7031L37.9748 53.1008L36.6874 51.9744C31.1862 51.4183 28.5287 51.6357 24.2492 52.5929C22.3143 53.8219 20.2797 55.4375 17.8067 57.5826C16.0735 60.9363 14.3958 62.4884 9.96358 64.5854L1.84034 65.4258C3.70587 66.4752 4.18139 67.146 11.6443 67.3866C14.6994 66.3973 16.356 65.7004 18.9272 63.465C21.1095 60.7972 23.328 59.4012 26.7703 57.0224Z" fill="#646464"/>
<path d="M28.7311 46.098C30.6887 47.421 31.7227 48.0914 33.493 49.1793L36.6874 51.9744L37.9748 53.1008C37.7298 50.0119 37.9029 48.4906 39.0952 46.3782C35.3737 42.8531 31.8874 41.8361 26.7703 40.7044C25.9118 40.7878 24.9909 40.9077 23.9692 41.056C20.0694 42.4375 18.0121 43.2961 15.0056 45.2577C12.1613 45.7739 10.567 45.6638 7.72269 45.2577C5.03297 44.8814 3.5908 44.0476 1 42.7367C3.02756 45.0529 3.8546 46.3578 8.56302 48.619C11.2976 48.9967 12.8312 49.0641 15.5658 48.619C18.6973 47.9747 20.3761 47.5218 22.8487 46.098C25.1457 46.4773 26.4342 46.6614 28.7311 46.098Z" fill="#646464"/>
<path d="M30.1317 34.6134C33.4555 36.9802 36.5156 38.2024 36.2941 41.6162L39.0952 46.3782C39.983 44.7472 40.6252 43.728 42.1765 41.6162C40.7099 36.9367 37.8516 34.3236 31.5322 30.4118C25.3077 29.8095 20.888 29.2913 19.2073 28.7311C17.5266 28.1709 13.6359 26.201 9.96358 22.2885C11.5209 27.0738 12.4717 29.7417 20.888 33.2129C24.0035 34.1792 25.6174 34.8339 30.1317 34.6134Z" fill="#646464"/>
<path d="M46.6583 43.2969L42.7367 46.9384L41.8964 49.7395C41.544 51.7087 41.7681 52.5989 42.1573 54.1451L42.1765 54.2213L43.8571 57.5826L46.6583 60.6639L51.1401 61.5042L55.3417 60.3838L58.423 58.1429L60.3838 54.2213L60.1036 50.0196L57.8627 45.5378L55.6218 43.8571L50.8599 43.0168L46.6583 43.2969Z" fill="#646464"/>
<path d="M50.2997 33.493C50.2997 33.493 51.9465 30.6045 51.9804 28.451C51.4587 24.6461 50.4392 22.9936 48.619 20.0476C46.7908 17.0688 45.8374 15.2804 45.2577 10.2437C45.6922 6.20238 46.6292 4.2773 48.619 1C48.0463 4.60989 47.5043 6.63383 48.619 10.2437C49.9304 14.7915 50.8886 17.0372 53.9412 19.2073C55.354 21.396 56.1701 22.8404 57.8627 27.6106M50.2997 33.493L47.7787 37.4146C47.7816 33.5834 47.5259 31.4849 46.098 27.9302M50.2997 33.493C50.2997 33.493 48.5983 30.8755 46.098 27.9302M57.8627 27.6106V34.6134M57.8627 27.6106C56.3769 32.5395 55.4788 35.1686 53.381 38.8151M57.8627 34.6134C60.7164 34.0926 61.3422 32.7026 62.6246 30.4118C64.0721 21.0454 61.712 19.1088 62.6246 15.8459C64.066 10.6925 67.1926 7.88499 71.5882 5.48179C71.5882 5.48179 67.26 11.194 66.8263 14.1653C66.3926 17.1366 66.8263 21.4482 66.8263 21.4482L68.2269 32.0924M57.8627 34.6134L53.381 38.8151M68.2269 32.0924C68.2269 32.0924 66.8304 36.8813 65.1457 39.0952M68.2269 32.0924C65.2935 36.0553 63.2894 37.9854 59.2633 41.056M65.1457 39.0952C68.833 39.1913 70.3633 37.8087 72.7087 35.1737C76.5904 23.2432 79.7241 21.2975 85.5938 19.2073L89.5154 18.6471C85.7665 20.8702 83.8929 22.2502 81.6723 25.3697C78.7721 29.4925 80.0677 32.1214 78.0308 36.014M65.1457 39.0952L59.2633 41.056M78.0308 36.014C75.5041 40.8427 73.0898 43.6572 69.3473 46.9384M78.0308 36.014C73.0306 42.5097 69.9133 45.0559 63.1849 45.5378M69.3473 46.9384C71.5273 47.856 72.7864 48.1465 75.2297 47.4986C82.1032 42.946 84.3353 41.0831 88.2218 37.8392M69.3473 46.9384L63.1849 45.5378M88.395 37.6947C94.7084 35.9411 96.6984 37.1731 100.44 39.0952C96.2863 38.9578 94.1123 38.9911 91.4762 39.9356C85.4609 44.2538 84.1678 46.0624 82.2325 49.1793M88.395 37.6947L88.2218 37.8392M88.395 37.6947C88.3369 37.7432 88.2792 37.7913 88.2218 37.8392M82.2325 49.1793C76.0597 53.7536 73.4539 54.6129 69.3473 55.0616M82.2325 49.1793C78.2447 51.5111 77.3556 53.6021 65.986 51.6374M69.3473 55.0616C70.6605 56.8318 71.5547 57.5511 73.549 58.1429C78.7699 58.3055 79.4765 58.0704 80.2717 57.5826C84.0149 56.0302 84.7764 55.9469 86.4342 55.6218C88.9497 55.0015 90.3608 55.2458 92.8767 55.6218C98.186 57.44 99.3155 58.6846 101 60.944C98.8963 59.9092 97.6943 59.4306 95.3978 59.2633C93.6748 58.8722 91.3407 59.3985 88.1148 59.2633C84.7535 60.3838 83.2375 61.7334 80.8319 62.6246M69.3473 55.0616L65.986 51.6374M80.8319 62.6246C75.5987 64.0207 72.4735 63.9386 66.8263 63.465M80.8319 62.6246C74.114 63.7853 70.3868 63.625 64.0252 57.3025M66.8263 63.465C69.2703 67.9611 69.7862 68.4371 73.549 69.6275L80.8319 70.1877C89.8223 73.8552 90.2822 76.7426 92.3165 81.6723C88.375 77.8796 86.108 75.9219 81.3922 74.3894H71.5882M66.8263 63.465C65.7324 61.0584 65.1191 59.7091 64.0252 57.3025M66.8263 63.465L64.0252 57.3025M71.5882 74.3894C67.0451 72.778 64.5581 71.6675 60.3838 68.7871M71.5882 74.3894C66.2211 71.7202 63.4736 69.5545 60.1036 61.7843M60.3838 68.7871V72.4286C63.0693 76.915 65.104 78.7165 69.3473 81.112C73.8135 84.8415 74.7127 87.9131 75.4834 90.5456M60.3838 68.7871L60.1036 61.7843M75.5098 90.6359C75.8992 93.0424 76.0642 94.3918 75.5098 96.7983C74.6853 94.1043 74.2185 92.6016 72.9888 90.6359C69.0387 85.022 67.0651 84.4263 63.465 82.5126M75.5098 90.6359L75.4834 90.5456M75.5098 90.6359C75.501 90.6058 75.4922 90.5758 75.4834 90.5456M63.465 82.5126C57.4597 78.84 55.4048 76.2145 52.2605 71.3081M63.465 82.5126C53.9797 75.0661 54.7818 71.5242 55.6218 65.1457M52.2605 71.3081C50.5879 72.8056 50.3426 74.5371 50.8599 78.8712C54.5588 86.1559 55.2212 86.1246 56.4622 90.6359C57.1295 93.0617 56.7031 95.1287 56.4622 97.0784L53.1008 102.681C54.227 98.6888 54.3407 96.5572 53.9412 92.8767C52.2869 89.8884 51.6044 88.186 48.8992 85.3137C47.0627 82.8467 46.554 82.058 45.5378 78.8712M52.2605 71.3081C53.075 68.999 54.1449 67.5844 55.6218 65.1457M45.5378 78.8712C44.5407 75.6312 43.8091 73.1684 44.1373 69.6275M45.5378 78.8712C46.3923 73.7999 46.655 70.353 48.619 65.1457M44.1373 69.6275C42.159 70.5273 41.0578 71.9378 39.0952 75.2297C39.7399 81.0934 39.8375 84.1297 39.0952 88.6751C37.9043 95.2649 35.5358 96.1901 31.5322 98.1989C33.9341 94.8747 35.1437 92.9832 35.4538 89.2353C35.8938 84.7606 35.279 83.2089 34.3333 80.2717C34.1534 77.7304 34.2583 75.6269 34.5838 73.549M44.1373 69.6275L48.619 65.1457M36.8543 64.5854C34.1109 65.1759 32.5921 65.6771 30.1317 68.7871C28.4082 73.6046 26.9327 76.0692 25.6499 78.8712C21.4854 84.3361 18.4756 84.7747 13.0448 85.3137C17.4508 82.9755 19.6846 81.4173 22.2885 77.1905L24.5294 68.7871C24.9517 67.7614 25.3683 66.8382 25.8025 65.986M36.8543 64.5854C35.8154 68.1473 35.0103 70.8261 34.5838 73.549M36.8543 64.5854L43.8571 63.465M33.493 57.0224C31.009 56.2816 29.5182 56.3881 26.7703 57.0224C23.328 59.4012 21.1095 60.7972 18.9272 63.465C16.356 65.7004 14.6994 66.3973 11.6443 67.3866C4.18139 67.146 3.70587 66.4752 1.84034 65.4258L9.96359 64.5854C14.3958 62.4884 16.0735 60.9363 17.8067 57.5826C20.2797 55.4375 22.3143 53.8219 24.2492 52.5929M33.493 57.0224C29.6084 60.2471 27.5609 62.5351 25.8025 65.986M33.493 57.0224L39.6555 58.7031M33.493 49.1793C31.7227 48.0914 30.6887 47.421 28.7311 46.098C26.4342 46.6614 25.1457 46.4773 22.8487 46.098C20.3761 47.5218 18.6973 47.9747 15.5658 48.619C12.8312 49.0641 11.2976 48.9967 8.56303 48.619C3.8546 46.3578 3.02756 45.0529 1 42.7367C3.5908 44.0476 5.03297 44.8814 7.72269 45.2577C10.567 45.6638 12.1613 45.7739 15.0056 45.2577C18.0121 43.2961 20.0694 42.4375 23.9692 41.056C24.9909 40.9077 25.9118 40.7878 26.7703 40.7044M33.493 49.1793C29.8621 49.7643 27.169 50.7385 24.2492 52.5929M33.493 49.1793L36.6874 51.9744M36.2941 41.6162C36.5156 38.2024 33.4555 36.9802 30.1317 34.6134C25.6174 34.8339 24.0035 34.1792 20.888 33.2129C12.4717 29.7417 11.5209 27.0738 9.96359 22.2885C13.6359 26.201 17.5266 28.1709 19.2073 28.7311C20.888 29.2913 25.3077 29.8095 31.5322 30.4118M36.2941 41.6162C33.0028 40.5786 29.8741 40.4029 26.7703 40.7044M36.2941 41.6162L39.0952 46.3782M31.5322 30.4118C36.8523 32.0382 39.3512 33.2952 42.7367 36.2941M31.5322 30.4118C37.8516 34.3236 40.7099 36.9367 42.1765 41.6162M42.7367 36.2941L42.1765 32.0924C40.6642 28.4634 39.3029 27.0829 36.2941 25.3697C30.7746 22.3467 29.5343 19.9757 27.0504 15.8459C26.6705 12.2963 26.671 10.2952 27.6106 6.88235C29.1488 16.5188 32.7126 18.303 39.0952 21.4482C41.6317 23.0542 44.1159 25.5952 46.098 27.9302M42.7367 36.2941L42.1765 41.6162M42.1765 41.6162C40.9201 45.4479 41.3242 46.2807 42.7367 46.9384M42.1765 41.6162L48.0588 39.3753M42.1765 41.6162C40.6252 43.728 39.983 44.7472 39.0952 46.3782M42.7367 46.9384L46.6583 43.2969M42.7367 46.9384L41.8964 49.7395M46.6583 43.2969C45.2523 41.9564 45.8894 41.0658 48.0588 39.3753M46.6583 43.2969L50.8599 43.0168M48.0588 39.3753L53.381 38.8151M48.0588 39.3753L47.7787 37.6947M53.381 38.8151C50.1632 40.5601 50.0339 41.4607 50.8599 43.0168M53.381 38.8151L59.2633 41.056M50.8599 43.0168L55.6218 43.8571M55.6218 43.8571C55.0259 41.97 55.7331 41.3211 59.2633 41.056M55.6218 43.8571L57.8627 45.5378M59.2633 41.056L63.1849 45.5378M63.1849 45.5378C60.2111 43.079 59.206 43.5194 57.8627 45.5378M63.1849 45.5378L63.7451 51.7003M57.8627 45.5378L60.1036 50.0196M60.1036 50.0196C61.7323 48.6781 62.5438 48.9086 63.7451 51.7003M60.1036 50.0196L60.3838 54.2213M63.7451 51.7003L63.7588 51.9744M64.0252 57.3025L60.1036 61.7843M64.0252 57.3025L63.7588 51.9744M60.1036 61.7843L55.6218 65.1457M60.1036 61.7843C60.5211 59.4182 60.0726 58.6909 58.423 58.1429M55.6218 65.1457H48.619M48.619 65.1457L43.8571 63.465M48.619 65.1457C51.1287 64.365 51.9061 63.6509 51.1401 61.5042M43.8571 63.465L39.6555 58.7031M43.8571 63.465C38.8056 67.0839 37.1647 69.3787 34.5838 73.549M43.8571 63.465C46.2833 62.8004 47.2729 62.3084 46.6583 60.6639M39.6555 58.7031L37.9748 53.1008M39.6555 58.7031C31.5792 60.3037 29.2344 62.2195 25.8025 65.986M39.6555 58.7031C41.953 59.1525 42.9092 58.9141 43.8571 57.5826M37.9748 53.1008C37.7298 50.0119 37.9029 48.4906 39.0952 46.3782M37.9748 53.1008C39.7924 55.1948 40.7066 55.4528 42.1765 54.2213M37.9748 53.1008L36.6874 51.9744M39.0952 46.3782C39.5012 49.767 40.0946 50.5459 41.8964 49.7395M39.0952 46.3782C35.3737 42.8531 31.8874 41.8361 26.7703 40.7044M42.1765 54.2213L43.8571 57.5826M42.1765 54.2213L42.1573 54.1451M42.1765 54.2213C42.17 54.1957 42.1636 54.1703 42.1573 54.1451M41.8964 49.7395C41.544 51.7087 41.7681 52.5989 42.1573 54.1451M43.8571 57.5826L46.6583 60.6639M46.6583 60.6639L51.1401 61.5042M51.1401 61.5042L55.3417 60.3838M55.3417 60.3838L58.423 58.1429M55.3417 60.3838C56.4494 61.705 56.3273 62.6603 55.3417 64.5854M58.423 58.1429L60.3838 54.2213M60.3838 54.2213C62.39 54.2586 63.038 55.0778 63.7451 57.3025M63.7588 51.9744L65.986 51.6374M24.2492 52.5929C28.5287 51.6357 31.1862 51.4183 36.6874 51.9744" stroke="white"/>
</svg>
